%TF.GenerationSoftware,KiCad,Pcbnew,7.0.1*%
%TF.CreationDate,2023-03-22T08:50:41-05:00*%
%TF.ProjectId,byte,62797465-2e6b-4696-9361-645f70636258,A*%
%TF.SameCoordinates,Original*%
%TF.FileFunction,Copper,L1,Top*%
%TF.FilePolarity,Positive*%
%FSLAX46Y46*%
G04 Gerber Fmt 4.6, Leading zero omitted, Abs format (unit mm)*
G04 Created by KiCad (PCBNEW 7.0.1) date 2023-03-22 08:50:41*
%MOMM*%
%LPD*%
G01*
G04 APERTURE LIST*
G04 Aperture macros list*
%AMRoundRect*
0 Rectangle with rounded corners*
0 $1 Rounding radius*
0 $2 $3 $4 $5 $6 $7 $8 $9 X,Y pos of 4 corners*
0 Add a 4 corners polygon primitive as box body*
4,1,4,$2,$3,$4,$5,$6,$7,$8,$9,$2,$3,0*
0 Add four circle primitives for the rounded corners*
1,1,$1+$1,$2,$3*
1,1,$1+$1,$4,$5*
1,1,$1+$1,$6,$7*
1,1,$1+$1,$8,$9*
0 Add four rect primitives between the rounded corners*
20,1,$1+$1,$2,$3,$4,$5,0*
20,1,$1+$1,$4,$5,$6,$7,0*
20,1,$1+$1,$6,$7,$8,$9,0*
20,1,$1+$1,$8,$9,$2,$3,0*%
G04 Aperture macros list end*
%TA.AperFunction,SMDPad,CuDef*%
%ADD10RoundRect,0.250000X0.400000X0.625000X-0.400000X0.625000X-0.400000X-0.625000X0.400000X-0.625000X0*%
%TD*%
%TA.AperFunction,SMDPad,CuDef*%
%ADD11RoundRect,0.250001X0.624999X-0.462499X0.624999X0.462499X-0.624999X0.462499X-0.624999X-0.462499X0*%
%TD*%
%TA.AperFunction,ComponentPad*%
%ADD12C,3.000000*%
%TD*%
%TA.AperFunction,SMDPad,CuDef*%
%ADD13RoundRect,0.250001X-0.624999X0.462499X-0.624999X-0.462499X0.624999X-0.462499X0.624999X0.462499X0*%
%TD*%
%TA.AperFunction,ComponentPad*%
%ADD14R,3.500000X3.500000*%
%TD*%
%TA.AperFunction,ComponentPad*%
%ADD15RoundRect,0.750000X-1.000000X0.750000X-1.000000X-0.750000X1.000000X-0.750000X1.000000X0.750000X0*%
%TD*%
%TA.AperFunction,ComponentPad*%
%ADD16RoundRect,0.875000X-0.875000X0.875000X-0.875000X-0.875000X0.875000X-0.875000X0.875000X0.875000X0*%
%TD*%
%TA.AperFunction,SMDPad,CuDef*%
%ADD17RoundRect,0.250000X-0.625000X0.400000X-0.625000X-0.400000X0.625000X-0.400000X0.625000X0.400000X0*%
%TD*%
%TA.AperFunction,SMDPad,CuDef*%
%ADD18RoundRect,0.250000X-0.412500X-0.650000X0.412500X-0.650000X0.412500X0.650000X-0.412500X0.650000X0*%
%TD*%
%TA.AperFunction,SMDPad,CuDef*%
%ADD19RoundRect,0.250000X0.650000X-0.412500X0.650000X0.412500X-0.650000X0.412500X-0.650000X-0.412500X0*%
%TD*%
%TA.AperFunction,SMDPad,CuDef*%
%ADD20R,0.900000X2.800000*%
%TD*%
%TA.AperFunction,SMDPad,CuDef*%
%ADD21R,2.500000X2.500000*%
%TD*%
%TA.AperFunction,ComponentPad*%
%ADD22R,1.600000X1.600000*%
%TD*%
%TA.AperFunction,ComponentPad*%
%ADD23C,1.600000*%
%TD*%
%TA.AperFunction,SMDPad,CuDef*%
%ADD24RoundRect,0.250000X-0.400000X-0.625000X0.400000X-0.625000X0.400000X0.625000X-0.400000X0.625000X0*%
%TD*%
%TA.AperFunction,ComponentPad*%
%ADD25O,1.600000X1.600000*%
%TD*%
%TA.AperFunction,ComponentPad*%
%ADD26C,1.524000*%
%TD*%
%TA.AperFunction,ComponentPad*%
%ADD27O,2.900000X3.000000*%
%TD*%
%TA.AperFunction,SMDPad,CuDef*%
%ADD28RoundRect,0.250001X-0.462499X-0.624999X0.462499X-0.624999X0.462499X0.624999X-0.462499X0.624999X0*%
%TD*%
%TA.AperFunction,SMDPad,CuDef*%
%ADD29RoundRect,0.250000X-0.650000X0.412500X-0.650000X-0.412500X0.650000X-0.412500X0.650000X0.412500X0*%
%TD*%
%TA.AperFunction,SMDPad,CuDef*%
%ADD30R,1.600000X0.410000*%
%TD*%
%TA.AperFunction,ViaPad*%
%ADD31C,0.800000*%
%TD*%
%TA.AperFunction,ViaPad*%
%ADD32C,0.508000*%
%TD*%
%TA.AperFunction,ViaPad*%
%ADD33C,0.635000*%
%TD*%
%TA.AperFunction,Conductor*%
%ADD34C,0.381000*%
%TD*%
%TA.AperFunction,Conductor*%
%ADD35C,0.250000*%
%TD*%
%TA.AperFunction,Conductor*%
%ADD36C,0.889000*%
%TD*%
G04 APERTURE END LIST*
D10*
%TO.P,R2,1*%
%TO.N,+3V3*%
X149150000Y-61595000D03*
%TO.P,R2,2*%
%TO.N,B*%
X146050000Y-61595000D03*
%TD*%
D11*
%TO.P,D2,1,K*%
%TO.N,/LED_driver/SEG3*%
X123190000Y-95250000D03*
%TO.P,D2,2,A*%
%TO.N,/LED_driver/SEG7*%
X123190000Y-92275000D03*
%TD*%
D12*
%TO.P,TP1,1,1*%
%TO.N,GND*%
X80010000Y-88900000D03*
%TD*%
D11*
%TO.P,D8,1,K*%
%TO.N,/LED_driver/SEG3*%
X92710000Y-95250000D03*
%TO.P,D8,2,A*%
%TO.N,/LED_driver/SEG0*%
X92710000Y-92275000D03*
%TD*%
%TO.P,D1,1,K*%
%TO.N,/LED_driver/SEG3*%
X128270000Y-95250000D03*
%TO.P,D1,2,A*%
%TO.N,/LED_driver/SEG8*%
X128270000Y-92275000D03*
%TD*%
D13*
%TO.P,D13,1,K*%
%TO.N,/LED_driver/SEG4*%
X106815000Y-50800000D03*
%TO.P,D13,2,A*%
%TO.N,/LED_driver/SEG0*%
X106815000Y-53775000D03*
%TD*%
D10*
%TO.P,R4,1*%
%TO.N,+3V3*%
X149150000Y-66675000D03*
%TO.P,R4,2*%
%TO.N,A*%
X146050000Y-66675000D03*
%TD*%
%TO.P,R5,1*%
%TO.N,+3V3*%
X149150000Y-95250000D03*
%TO.P,R5,2*%
%TO.N,SWITCH*%
X146050000Y-95250000D03*
%TD*%
D14*
%TO.P,J1,1*%
%TO.N,Net-(PS1-+VIN)*%
X85090000Y-57150000D03*
D15*
%TO.P,J1,2*%
%TO.N,GND*%
X85090000Y-51150000D03*
D16*
%TO.P,J1,3*%
%TO.N,N/C*%
X80390000Y-54150000D03*
%TD*%
D17*
%TO.P,R3,1*%
%TO.N,Net-(U3-ISET)*%
X121920000Y-71819500D03*
%TO.P,R3,2*%
%TO.N,GND*%
X121920000Y-74919500D03*
%TD*%
D18*
%TO.P,C2,1*%
%TO.N,Net-(PS1-+VIN)*%
X72390000Y-62230000D03*
%TO.P,C2,2*%
%TO.N,GND*%
X75515000Y-62230000D03*
%TD*%
D19*
%TO.P,C3,1*%
%TO.N,+3V3*%
X89408000Y-79756000D03*
%TO.P,C3,2*%
%TO.N,GND*%
X89408000Y-76631000D03*
%TD*%
D20*
%TO.P,D11,1,e*%
%TO.N,/LED_driver/SEG4*%
X103800000Y-72019500D03*
%TO.P,D11,2,d*%
%TO.N,/LED_driver/SEG5*%
X105240000Y-72019500D03*
%TO.P,D11,3,C.K.*%
%TO.N,/LED_driver/SEG1*%
X106680000Y-72019500D03*
%TO.P,D11,4,c*%
%TO.N,/LED_driver/SEG6*%
X108120000Y-72019500D03*
%TO.P,D11,5,DP*%
%TO.N,/LED_driver/SEG0*%
X109560000Y-72019500D03*
%TO.P,D11,6,b*%
%TO.N,/LED_driver/SEG7*%
X109560000Y-62019500D03*
%TO.P,D11,7,a*%
%TO.N,/LED_driver/SEG8*%
X108120000Y-62019500D03*
%TO.P,D11,8,C.K.*%
%TO.N,/LED_driver/SEG1*%
X106680000Y-62019500D03*
%TO.P,D11,9,f*%
%TO.N,/LED_driver/SEG3*%
X105240000Y-62019500D03*
%TO.P,D11,10,g*%
%TO.N,/LED_driver/SEG2*%
X103800000Y-62019500D03*
%TD*%
D21*
%TO.P,PS1,1,+VIN*%
%TO.N,Net-(PS1-+VIN)*%
X72390000Y-68010000D03*
%TO.P,PS1,2,GND*%
%TO.N,GND*%
X83390000Y-68010000D03*
%TO.P,PS1,3,+VO*%
%TO.N,+3V3*%
X83390000Y-80010000D03*
%TO.P,PS1,4,ON/OFF*%
%TO.N,unconnected-(PS1-ON{slash}OFF-Pad4)*%
X72390000Y-80010000D03*
%TD*%
D13*
%TO.P,D15,1,K*%
%TO.N,/LED_driver/SEG4*%
X123190000Y-50800000D03*
%TO.P,D15,2,A*%
%TO.N,/LED_driver/SEG2*%
X123190000Y-53775000D03*
%TD*%
D18*
%TO.P,C6,1*%
%TO.N,+3V3*%
X130810000Y-64770000D03*
%TO.P,C6,2*%
%TO.N,GND*%
X133935000Y-64770000D03*
%TD*%
D12*
%TO.P,TP2,1,1*%
%TO.N,+3V3*%
X80010000Y-95250000D03*
%TD*%
D11*
%TO.P,D3,1,K*%
%TO.N,/LED_driver/SEG3*%
X118110000Y-95250000D03*
%TO.P,D3,2,A*%
%TO.N,/LED_driver/SEG6*%
X118110000Y-92275000D03*
%TD*%
%TO.P,D6,1,K*%
%TO.N,/LED_driver/SEG3*%
X102870000Y-95250000D03*
%TO.P,D6,2,A*%
%TO.N,/LED_driver/SEG2*%
X102870000Y-92275000D03*
%TD*%
D20*
%TO.P,D12,1,e*%
%TO.N,/LED_driver/SEG4*%
X111420000Y-72017500D03*
%TO.P,D12,2,d*%
%TO.N,/LED_driver/SEG5*%
X112860000Y-72017500D03*
%TO.P,D12,3,C.K.*%
%TO.N,/LED_driver/SEG2*%
X114300000Y-72017500D03*
%TO.P,D12,4,c*%
%TO.N,/LED_driver/SEG6*%
X115740000Y-72017500D03*
%TO.P,D12,5,DP*%
%TO.N,/LED_driver/SEG0*%
X117180000Y-72017500D03*
%TO.P,D12,6,b*%
%TO.N,/LED_driver/SEG7*%
X117180000Y-62017500D03*
%TO.P,D12,7,a*%
%TO.N,/LED_driver/SEG8*%
X115740000Y-62017500D03*
%TO.P,D12,8,C.K.*%
%TO.N,/LED_driver/SEG2*%
X114300000Y-62017500D03*
%TO.P,D12,9,f*%
%TO.N,/LED_driver/SEG3*%
X112860000Y-62017500D03*
%TO.P,D12,10,g*%
%TO.N,/LED_driver/SEG1*%
X111420000Y-62017500D03*
%TD*%
D11*
%TO.P,D5,1,K*%
%TO.N,/LED_driver/SEG3*%
X107950000Y-95250000D03*
%TO.P,D5,2,A*%
%TO.N,/LED_driver/SEG4*%
X107950000Y-92275000D03*
%TD*%
D22*
%TO.P,C1,1*%
%TO.N,Net-(PS1-+VIN)*%
X88900000Y-62329861D03*
D23*
%TO.P,C1,2*%
%TO.N,GND*%
X88900000Y-64829861D03*
%TD*%
D13*
%TO.P,D14,1,K*%
%TO.N,/LED_driver/SEG4*%
X114300000Y-50800000D03*
%TO.P,D14,2,A*%
%TO.N,/LED_driver/SEG1*%
X114300000Y-53775000D03*
%TD*%
D24*
%TO.P,R1,1*%
%TO.N,+3V3*%
X78460000Y-101600000D03*
%TO.P,R1,2*%
%TO.N,Net-(D9-A)*%
X81560000Y-101600000D03*
%TD*%
D22*
%TO.P,U1,1,~{RESET}/PB5*%
%TO.N,unconnected-(U1-~{RESET}{slash}PB5-Pad1)*%
X132080000Y-58420000D03*
D25*
%TO.P,U1,2,XTAL1/PB3*%
%TO.N,A*%
X134620000Y-58420000D03*
%TO.P,U1,3,XTAL2/PB4*%
%TO.N,B*%
X137160000Y-58420000D03*
%TO.P,U1,4,GND*%
%TO.N,GND*%
X139700000Y-58420000D03*
%TO.P,U1,5,AREF/PB0*%
%TO.N,MOSI*%
X139700000Y-50800000D03*
%TO.P,U1,6,PB1*%
%TO.N,SWITCH*%
X137160000Y-50800000D03*
%TO.P,U1,7,PB2*%
%TO.N,CLK*%
X134620000Y-50800000D03*
%TO.P,U1,8,VCC*%
%TO.N,+3V3*%
X132080000Y-50800000D03*
%TD*%
D26*
%TO.P,SW1,A,A*%
%TO.N,A*%
X144700000Y-72760000D03*
%TO.P,SW1,B,B*%
%TO.N,B*%
X139700000Y-72760000D03*
%TO.P,SW1,C,C*%
%TO.N,GND*%
X142200000Y-72760000D03*
%TO.P,SW1,S1,S1*%
%TO.N,SWITCH*%
X144700000Y-87260000D03*
%TO.P,SW1,S2,S2*%
%TO.N,GND*%
X139700000Y-87260000D03*
D27*
%TO.P,SW1,SH*%
%TO.N,N/C*%
X148800000Y-80260000D03*
X135600000Y-80260000D03*
%TD*%
D20*
%TO.P,D10,1,e*%
%TO.N,/LED_driver/SEG4*%
X96180000Y-72019500D03*
%TO.P,D10,2,d*%
%TO.N,/LED_driver/SEG5*%
X97620000Y-72019500D03*
%TO.P,D10,3,C.K.*%
%TO.N,/LED_driver/SEG0*%
X99060000Y-72019500D03*
%TO.P,D10,4,c*%
%TO.N,/LED_driver/SEG6*%
X100500000Y-72019500D03*
%TO.P,D10,5,DP*%
%TO.N,/LED_driver/SEG1*%
X101940000Y-72019500D03*
%TO.P,D10,6,b*%
%TO.N,/LED_driver/SEG7*%
X101940000Y-62019500D03*
%TO.P,D10,7,a*%
%TO.N,/LED_driver/SEG8*%
X100500000Y-62019500D03*
%TO.P,D10,8,C.K.*%
%TO.N,/LED_driver/SEG0*%
X99060000Y-62019500D03*
%TO.P,D10,9,f*%
%TO.N,/LED_driver/SEG3*%
X97620000Y-62019500D03*
%TO.P,D10,10,g*%
%TO.N,/LED_driver/SEG2*%
X96180000Y-62019500D03*
%TD*%
D11*
%TO.P,D7,1,K*%
%TO.N,/LED_driver/SEG3*%
X97790000Y-95250000D03*
%TO.P,D7,2,A*%
%TO.N,/LED_driver/SEG1*%
X97790000Y-92275000D03*
%TD*%
%TO.P,D4,1,K*%
%TO.N,/LED_driver/SEG3*%
X113030000Y-95250000D03*
%TO.P,D4,2,A*%
%TO.N,/LED_driver/SEG5*%
X113030000Y-92275000D03*
%TD*%
D28*
%TO.P,D9,1,K*%
%TO.N,GND*%
X78522500Y-106680000D03*
%TO.P,D9,2,A*%
%TO.N,Net-(D9-A)*%
X81497500Y-106680000D03*
%TD*%
D29*
%TO.P,C7,1*%
%TO.N,Net-(U3-OSC)*%
X128270000Y-71807000D03*
%TO.P,C7,2*%
%TO.N,GND*%
X128270000Y-74932000D03*
%TD*%
D30*
%TO.P,U3,1,DIN*%
%TO.N,MOSI*%
X121805700Y-64797000D03*
%TO.P,U3,2,CLK*%
%TO.N,CLK*%
X121805700Y-65432000D03*
%TO.P,U3,3,DIG3/SEG3*%
%TO.N,/LED_driver/SEG3*%
X121805700Y-66067000D03*
%TO.P,U3,4,DIG2/SEG2*%
%TO.N,/LED_driver/SEG2*%
X121805700Y-66702000D03*
%TO.P,U3,5,DIG1/SEG1*%
%TO.N,/LED_driver/SEG1*%
X121805700Y-67337000D03*
%TO.P,U3,6,DIG0/SEG0*%
%TO.N,/LED_driver/SEG0*%
X121805700Y-67972000D03*
%TO.P,U3,7,ISET*%
%TO.N,Net-(U3-ISET)*%
X121805700Y-68607000D03*
%TO.P,U3,8,GND*%
%TO.N,GND*%
X121805700Y-69242000D03*
%TO.P,U3,9,OSC*%
%TO.N,Net-(U3-OSC)*%
X127114300Y-69242000D03*
%TO.P,U3,10,SEG8*%
%TO.N,/LED_driver/SEG8*%
X127114300Y-68607000D03*
%TO.P,U3,11,DIG7/SEG7*%
%TO.N,/LED_driver/SEG7*%
X127114300Y-67972000D03*
%TO.P,U3,12,DIG6/SEG6*%
%TO.N,/LED_driver/SEG6*%
X127114300Y-67337000D03*
%TO.P,U3,13,DIG5/SEG5*%
%TO.N,/LED_driver/SEG5*%
X127114300Y-66702000D03*
%TO.P,U3,14,DIG4/SEG4*%
%TO.N,/LED_driver/SEG4*%
X127114300Y-66067000D03*
%TO.P,U3,15,~{CS}*%
%TO.N,GND*%
X127114300Y-65432000D03*
%TO.P,U3,16,V+*%
%TO.N,+3V3*%
X127114300Y-64797000D03*
%TD*%
D31*
%TO.N,+3V3*%
X130810000Y-62230000D03*
X152400000Y-95250000D03*
X152400000Y-64135000D03*
D32*
%TO.N,/LED_driver/SEG3*%
X105257600Y-64465200D03*
X97586800Y-64465200D03*
D33*
X123823000Y-65112500D03*
D32*
X112877600Y-64465200D03*
D31*
X95250000Y-95250000D03*
%TO.N,/LED_driver/SEG2*%
X102870000Y-80010000D03*
D32*
X96266000Y-65125600D03*
X114300000Y-65125600D03*
D33*
X120013000Y-65112500D03*
D32*
X103784400Y-65125600D03*
D33*
%TO.N,/LED_driver/SEG1*%
X123823000Y-69557500D03*
D32*
X110490000Y-69596000D03*
X102108000Y-69596000D03*
X106680000Y-69596000D03*
%TO.N,/LED_driver/SEG0*%
X109575600Y-68935600D03*
X117195600Y-68935600D03*
D33*
X120013000Y-68922500D03*
D32*
X99060000Y-68935600D03*
D33*
%TO.N,/LED_driver/SEG8*%
X125093000Y-68922500D03*
D32*
X116459000Y-68275200D03*
X101346000Y-68300600D03*
X108839000Y-68300600D03*
%TO.N,/LED_driver/SEG7*%
X117094000Y-67056000D03*
X109474000Y-67056000D03*
X101854000Y-67056000D03*
D33*
X128903000Y-67652500D03*
%TO.N,/LED_driver/SEG6*%
X125093000Y-67652500D03*
D32*
X100507800Y-67665600D03*
X115722400Y-67640200D03*
X108127800Y-67640200D03*
%TO.N,/LED_driver/SEG5*%
X105232200Y-66395600D03*
X97663000Y-66395600D03*
X112877600Y-66395600D03*
D33*
X128903000Y-66382500D03*
D32*
%TO.N,/LED_driver/SEG4*%
X112166400Y-65760600D03*
D33*
X124458000Y-65747500D03*
D32*
X96901000Y-65735200D03*
X104394000Y-65760600D03*
D31*
%TO.N,B*%
X139700000Y-67945000D03*
%TO.N,A*%
X144700000Y-68025000D03*
%TD*%
D34*
%TO.N,+3V3*%
X80010000Y-95250000D02*
X83390000Y-91870000D01*
X130810000Y-64770000D02*
X130810000Y-62230000D01*
D35*
X83390000Y-80440000D02*
X83390000Y-80010000D01*
D34*
X130810000Y-64770000D02*
X127141300Y-64770000D01*
X78460000Y-101600000D02*
X78460000Y-96800000D01*
X89408000Y-79756000D02*
X89154000Y-80010000D01*
X149150000Y-95250000D02*
X152400000Y-95250000D01*
X149150000Y-64135000D02*
X149150000Y-66675000D01*
X78460000Y-96800000D02*
X80010000Y-95250000D01*
X83390000Y-91870000D02*
X83390000Y-80010000D01*
X89154000Y-80010000D02*
X83390000Y-80010000D01*
X127141300Y-64770000D02*
X127114300Y-64797000D01*
X149150000Y-64135000D02*
X152400000Y-64135000D01*
X149150000Y-61595000D02*
X149150000Y-64135000D01*
%TO.N,GND*%
X120648000Y-70319500D02*
X120394000Y-70573500D01*
X121410000Y-70319500D02*
X120648000Y-70319500D01*
X127114300Y-65432000D02*
X125933300Y-65432000D01*
X125933300Y-65432000D02*
X125095000Y-64593700D01*
X121803700Y-69240000D02*
X121803700Y-69925800D01*
X121803700Y-69925800D02*
X121410000Y-70319500D01*
X125095000Y-64593700D02*
X125095000Y-62230000D01*
%TO.N,Net-(U3-OSC)*%
X127114300Y-69242000D02*
X127114300Y-70651300D01*
X127114300Y-70651300D02*
X128270000Y-71807000D01*
%TO.N,Net-(U3-ISET)*%
X121918000Y-71817500D02*
X121944000Y-71817500D01*
X123188000Y-69047798D02*
X122745202Y-68605000D01*
X121944000Y-71817500D02*
X123188000Y-70573500D01*
X123188000Y-70573500D02*
X123188000Y-69047798D01*
X122745202Y-68605000D02*
X121803700Y-68605000D01*
%TO.N,/LED_driver/SEG3*%
X112860000Y-62017500D02*
X112860000Y-64447600D01*
X105240000Y-62019500D02*
X105240000Y-64447600D01*
X112860000Y-64447600D02*
X112877600Y-64465200D01*
X97586800Y-62052700D02*
X97620000Y-62019500D01*
X123823000Y-65112500D02*
X122870500Y-66065000D01*
X122870500Y-66065000D02*
X121803700Y-66065000D01*
X92710000Y-95250000D02*
X95250000Y-95250000D01*
X95250000Y-95250000D02*
X128270000Y-95250000D01*
X97586800Y-64465200D02*
X97586800Y-62052700D01*
X105240000Y-64447600D02*
X105257600Y-64465200D01*
%TO.N,/LED_driver/SEG2*%
X114300000Y-59690000D02*
X114300000Y-62017500D01*
X103784400Y-65125600D02*
X103784400Y-62035100D01*
X121803700Y-66700000D02*
X120622700Y-66700000D01*
X120013000Y-66090300D02*
X120013000Y-65112500D01*
X96180000Y-65039600D02*
X96266000Y-65125600D01*
X123190000Y-53775000D02*
X120215000Y-53775000D01*
X114300000Y-72017500D02*
X114300000Y-65125600D01*
X103784400Y-62035100D02*
X103800000Y-62019500D01*
X102870000Y-92275000D02*
X102870000Y-80010000D01*
X96180000Y-62019500D02*
X96180000Y-65039600D01*
X120215000Y-53775000D02*
X114300000Y-59690000D01*
X114300000Y-65125600D02*
X114300000Y-62017500D01*
X120622700Y-66700000D02*
X120013000Y-66090300D01*
%TO.N,/LED_driver/SEG1*%
X110490000Y-69596000D02*
X111420000Y-68666000D01*
X123823000Y-69557500D02*
X123823000Y-68173300D01*
X101940000Y-78400000D02*
X97790000Y-82550000D01*
X122984700Y-67335000D02*
X121803700Y-67335000D01*
X123823000Y-68173300D02*
X122984700Y-67335000D01*
X111420000Y-54950000D02*
X111420000Y-62017500D01*
X97790000Y-82550000D02*
X97790000Y-92275000D01*
X106680000Y-62019500D02*
X106680000Y-72019500D01*
X112595000Y-53775000D02*
X111420000Y-54950000D01*
X114300000Y-53775000D02*
X112595000Y-53775000D01*
X111420000Y-68666000D02*
X111420000Y-62017500D01*
X101940000Y-72019500D02*
X101940000Y-78400000D01*
X101940000Y-69764000D02*
X102108000Y-69596000D01*
X101940000Y-72019500D02*
X101940000Y-69764000D01*
%TO.N,/LED_driver/SEG0*%
X99060000Y-62019500D02*
X99060000Y-55880000D01*
X121803700Y-67970000D02*
X120330500Y-67970000D01*
X120330500Y-67970000D02*
X120013000Y-68287500D01*
X101165000Y-53775000D02*
X106815000Y-53775000D01*
X120013000Y-68287500D02*
X120013000Y-68922500D01*
X99060000Y-55880000D02*
X101165000Y-53775000D01*
X99060000Y-68935600D02*
X99060000Y-72019500D01*
X109575600Y-68935600D02*
X109575600Y-72003900D01*
X99060000Y-72019500D02*
X99060000Y-76200000D01*
X99060000Y-76200000D02*
X92710000Y-82550000D01*
X99060000Y-68935600D02*
X99060000Y-62019500D01*
X117195600Y-68935600D02*
X117195600Y-72003900D01*
X109575600Y-72003900D02*
X109560000Y-72019500D01*
X92710000Y-82550000D02*
X92710000Y-92275000D01*
%TO.N,/LED_driver/SEG8*%
X125093000Y-68922500D02*
X125410500Y-68605000D01*
X125093000Y-68922500D02*
X125093000Y-79373000D01*
X108829500Y-65192300D02*
X108120000Y-64482800D01*
X108829500Y-68291100D02*
X108829500Y-65192300D01*
X116449500Y-65166900D02*
X115740000Y-64457400D01*
X108120000Y-64482800D02*
X108120000Y-62019500D01*
X128270000Y-82550000D02*
X128270000Y-92275000D01*
X108839000Y-68300600D02*
X108829500Y-68291100D01*
X116449500Y-68265700D02*
X116449500Y-65166900D01*
X125410500Y-68605000D02*
X127112300Y-68605000D01*
X125093000Y-79373000D02*
X128270000Y-82550000D01*
X101209500Y-68164100D02*
X101209500Y-65776500D01*
X101209500Y-65776500D02*
X100500000Y-65067000D01*
X101346000Y-68300600D02*
X101209500Y-68164100D01*
X100500000Y-65067000D02*
X100500000Y-62019500D01*
X115740000Y-64457400D02*
X115740000Y-61994100D01*
%TO.N,/LED_driver/SEG7*%
X117094000Y-67056000D02*
X118745000Y-68707000D01*
X109474000Y-67056000D02*
X109560000Y-66970000D01*
X123190000Y-80645000D02*
X123190000Y-92275000D01*
X128903000Y-67652500D02*
X128585500Y-67970000D01*
X118745000Y-68707000D02*
X118745000Y-76200000D01*
X101854000Y-67056000D02*
X101940000Y-66970000D01*
X118745000Y-76200000D02*
X123190000Y-80645000D01*
X101940000Y-66970000D02*
X101940000Y-62019500D01*
X109560000Y-66970000D02*
X109560000Y-62019500D01*
X117094000Y-67056000D02*
X117180000Y-66970000D01*
X117180000Y-66970000D02*
X117180000Y-62017500D01*
X128585500Y-67970000D02*
X127112300Y-67970000D01*
%TO.N,/LED_driver/SEG6*%
X108127800Y-67640200D02*
X108120000Y-67648000D01*
X118110000Y-77470000D02*
X118110000Y-92275000D01*
X115740000Y-72017500D02*
X115740000Y-75100000D01*
X115740000Y-75100000D02*
X118110000Y-77470000D01*
X115714600Y-67648000D02*
X115714600Y-72019500D01*
X108120000Y-67648000D02*
X108120000Y-72019500D01*
X100500000Y-72019500D02*
X100500000Y-67698800D01*
X125093000Y-67652500D02*
X125410500Y-67335000D01*
X125410500Y-67335000D02*
X127112300Y-67335000D01*
X100500000Y-67698800D02*
X100533200Y-67665600D01*
%TO.N,/LED_driver/SEG5*%
X97620000Y-66438600D02*
X97663000Y-66395600D01*
X127112300Y-66700000D02*
X128585500Y-66700000D01*
X128585500Y-66700000D02*
X128903000Y-66382500D01*
X105232200Y-66395600D02*
X105240000Y-66403400D01*
X112860000Y-66413200D02*
X112860000Y-72017500D01*
X112877600Y-66395600D02*
X112860000Y-66413200D01*
X97620000Y-72019500D02*
X97620000Y-66438600D01*
X112860000Y-72017500D02*
X112860000Y-92105000D01*
X112860000Y-92105000D02*
X113030000Y-92275000D01*
X105240000Y-66403400D02*
X105240000Y-72019500D01*
%TO.N,/LED_driver/SEG4*%
X111420000Y-75270000D02*
X111420000Y-72017500D01*
X111420000Y-70236500D02*
X111420000Y-72017500D01*
X124458000Y-65747500D02*
X124775500Y-66065000D01*
X96180000Y-66456200D02*
X96180000Y-66335000D01*
X97790000Y-50800000D02*
X93980000Y-54610000D01*
X96180000Y-66456200D02*
X96901000Y-65735200D01*
X104394000Y-65760600D02*
X103800000Y-66354600D01*
X124775500Y-66065000D02*
X127112300Y-66065000D01*
X93980000Y-54610000D02*
X93980000Y-64256200D01*
X106815000Y-50800000D02*
X123190000Y-50800000D01*
X96180000Y-72019500D02*
X96180000Y-66456200D01*
X112166400Y-69490100D02*
X111420000Y-70236500D01*
X93980000Y-64256200D02*
X96180000Y-66456200D01*
X106815000Y-50800000D02*
X97790000Y-50800000D01*
X112166400Y-65760600D02*
X112166400Y-69490100D01*
X107950000Y-78740000D02*
X111420000Y-75270000D01*
X107950000Y-92275000D02*
X107950000Y-78740000D01*
X103800000Y-66354600D02*
X103800000Y-72019500D01*
D36*
%TO.N,Net-(PS1-+VIN)*%
X72390000Y-62230000D02*
X77470000Y-57150000D01*
X77470000Y-57150000D02*
X85090000Y-57150000D01*
X85090000Y-58519861D02*
X88900000Y-62329861D01*
X72390000Y-62230000D02*
X72390000Y-68010000D01*
X85090000Y-57150000D02*
X85090000Y-58519861D01*
D35*
%TO.N,Net-(D9-A)*%
X81560000Y-101600000D02*
X81560000Y-106617500D01*
X81560000Y-101600000D02*
X81497500Y-101662500D01*
X81560000Y-106617500D02*
X81497500Y-106680000D01*
D34*
%TO.N,B*%
X139700000Y-67945000D02*
X146050000Y-61595000D01*
X139700000Y-72760000D02*
X139700000Y-67945000D01*
%TO.N,A*%
X144700000Y-72760000D02*
X144700000Y-68025000D01*
X144700000Y-68025000D02*
X146050000Y-66675000D01*
%TO.N,SWITCH*%
X144700000Y-93900000D02*
X146050000Y-95250000D01*
X144700000Y-87260000D02*
X144700000Y-93900000D01*
%TO.N,MOSI*%
X121805700Y-58534300D02*
X127000000Y-53340000D01*
X121805700Y-64797000D02*
X121805700Y-58534300D01*
X139065000Y-48895000D02*
X139700000Y-49530000D01*
X127000000Y-50800000D02*
X128905000Y-48895000D01*
X127000000Y-53340000D02*
X127000000Y-50800000D01*
X128905000Y-48895000D02*
X139065000Y-48895000D01*
X139700000Y-49530000D02*
X139700000Y-50800000D01*
%TO.N,CLK*%
X127000000Y-54610000D02*
X133350000Y-54610000D01*
X121803700Y-65430000D02*
X122745202Y-65430000D01*
X122921201Y-65254001D02*
X122921201Y-58688799D01*
X122745202Y-65430000D02*
X122921201Y-65254001D01*
X134620000Y-53340000D02*
X134620000Y-50800000D01*
X122921201Y-58688799D02*
X127000000Y-54610000D01*
X133350000Y-54610000D02*
X134620000Y-53340000D01*
%TD*%
%TA.AperFunction,Conductor*%
%TO.N,GND*%
G36*
X148592136Y-46990572D02*
G01*
X148911772Y-47001492D01*
X148911772Y-47001544D01*
X148911964Y-47001499D01*
X149110402Y-47008586D01*
X149118726Y-47009162D01*
X149404985Y-47038590D01*
X149639723Y-47063828D01*
X149647599Y-47064929D01*
X149923815Y-47112554D01*
X149924205Y-47112623D01*
X150163857Y-47155861D01*
X150171259Y-47157429D01*
X150387188Y-47210050D01*
X150440244Y-47222980D01*
X150441571Y-47223311D01*
X150547918Y-47250454D01*
X150680260Y-47284232D01*
X150687173Y-47286209D01*
X150949611Y-47369503D01*
X150950936Y-47369934D01*
X151186429Y-47448313D01*
X151192816Y-47450634D01*
X151360293Y-47516678D01*
X151447807Y-47551189D01*
X151449796Y-47551993D01*
X151679895Y-47647303D01*
X151685761Y-47649911D01*
X151932636Y-47767320D01*
X151934898Y-47768424D01*
X152158222Y-47880212D01*
X152163567Y-47883050D01*
X152401463Y-48016812D01*
X152403963Y-48018256D01*
X152619136Y-48145924D01*
X152623900Y-48148897D01*
X152851899Y-48298442D01*
X152854573Y-48300247D01*
X153060341Y-48443114D01*
X153064581Y-48446192D01*
X153281650Y-48610801D01*
X153284533Y-48613054D01*
X153479696Y-48770327D01*
X153483402Y-48773434D01*
X153574170Y-48852579D01*
X153688648Y-48952399D01*
X153691698Y-48955148D01*
X153875191Y-49125985D01*
X153878428Y-49129109D01*
X154070889Y-49321570D01*
X154074013Y-49324807D01*
X154244850Y-49508300D01*
X154247599Y-49511350D01*
X154426548Y-49716576D01*
X154429680Y-49720313D01*
X154501226Y-49809095D01*
X154586927Y-49915444D01*
X154589215Y-49918371D01*
X154753794Y-50135401D01*
X154756896Y-50139674D01*
X154891175Y-50333073D01*
X154899724Y-50345385D01*
X154901579Y-50348134D01*
X154983330Y-50472773D01*
X155051086Y-50576075D01*
X155054089Y-50580886D01*
X155181731Y-50796016D01*
X155183198Y-50798556D01*
X155316943Y-51036422D01*
X155319786Y-51041776D01*
X155431574Y-51265100D01*
X155432689Y-51267385D01*
X155550080Y-51514222D01*
X155552702Y-51520119D01*
X155648003Y-51750197D01*
X155648809Y-51752191D01*
X155749356Y-52007160D01*
X155751693Y-52013593D01*
X155830009Y-52248894D01*
X155830553Y-52250568D01*
X155913781Y-52512800D01*
X155915771Y-52519757D01*
X155976687Y-52758427D01*
X155977018Y-52759754D01*
X156042562Y-53028710D01*
X156044143Y-53036171D01*
X156087328Y-53275530D01*
X156087498Y-53276493D01*
X156135064Y-53552368D01*
X156136174Y-53560308D01*
X156161403Y-53794969D01*
X156161464Y-53795553D01*
X156190833Y-54081241D01*
X156191414Y-54089629D01*
X156198500Y-54288029D01*
X156198503Y-54288225D01*
X156198507Y-54288225D01*
X156209427Y-54607863D01*
X156209500Y-54612165D01*
X156209500Y-105407835D01*
X156209427Y-105412137D01*
X156198514Y-105731579D01*
X156198507Y-105731774D01*
X156191414Y-105930369D01*
X156190833Y-105938757D01*
X156161464Y-106224445D01*
X156161403Y-106225029D01*
X156136174Y-106459690D01*
X156135064Y-106467630D01*
X156087498Y-106743505D01*
X156087328Y-106744468D01*
X156044143Y-106983827D01*
X156042562Y-106991288D01*
X155977018Y-107260244D01*
X155976687Y-107261571D01*
X155915771Y-107500241D01*
X155913781Y-107507198D01*
X155830553Y-107769430D01*
X155830009Y-107771104D01*
X155751693Y-108006405D01*
X155749356Y-108012838D01*
X155648809Y-108267807D01*
X155648003Y-108269801D01*
X155552702Y-108499879D01*
X155550080Y-108505776D01*
X155432689Y-108752613D01*
X155431574Y-108754898D01*
X155319786Y-108978222D01*
X155316943Y-108983576D01*
X155183198Y-109221442D01*
X155181731Y-109223982D01*
X155054089Y-109439112D01*
X155051086Y-109443923D01*
X154901584Y-109671857D01*
X154899724Y-109674613D01*
X154756896Y-109880324D01*
X154753794Y-109884597D01*
X154589215Y-110101627D01*
X154586927Y-110104554D01*
X154429689Y-110299675D01*
X154426548Y-110303422D01*
X154247599Y-110508648D01*
X154244850Y-110511698D01*
X154074013Y-110695191D01*
X154070889Y-110698428D01*
X153878428Y-110890889D01*
X153875191Y-110894013D01*
X153691698Y-111064850D01*
X153688648Y-111067599D01*
X153483422Y-111246548D01*
X153479675Y-111249689D01*
X153284554Y-111406927D01*
X153281627Y-111409215D01*
X153064597Y-111573794D01*
X153060324Y-111576896D01*
X152854613Y-111719724D01*
X152851857Y-111721584D01*
X152623923Y-111871086D01*
X152619112Y-111874089D01*
X152403982Y-112001731D01*
X152401442Y-112003198D01*
X152163576Y-112136943D01*
X152158222Y-112139786D01*
X151934898Y-112251574D01*
X151932613Y-112252689D01*
X151685776Y-112370080D01*
X151679879Y-112372702D01*
X151449801Y-112468003D01*
X151447807Y-112468809D01*
X151192838Y-112569356D01*
X151186405Y-112571693D01*
X150951104Y-112650009D01*
X150949430Y-112650553D01*
X150687198Y-112733781D01*
X150680241Y-112735771D01*
X150441571Y-112796687D01*
X150440244Y-112797018D01*
X150171288Y-112862562D01*
X150163827Y-112864143D01*
X149924468Y-112907328D01*
X149923505Y-112907498D01*
X149647630Y-112955064D01*
X149639690Y-112956174D01*
X149405029Y-112981403D01*
X149404445Y-112981464D01*
X149118757Y-113010833D01*
X149110369Y-113011414D01*
X148911969Y-113018500D01*
X148911774Y-113018507D01*
X148592137Y-113029427D01*
X148587835Y-113029500D01*
X72392165Y-113029500D01*
X72387863Y-113029427D01*
X72068224Y-113018507D01*
X72068029Y-113018500D01*
X71869629Y-113011414D01*
X71861241Y-113010833D01*
X71575553Y-112981464D01*
X71574969Y-112981403D01*
X71340308Y-112956174D01*
X71332368Y-112955064D01*
X71056493Y-112907498D01*
X71055530Y-112907328D01*
X70816171Y-112864143D01*
X70808710Y-112862562D01*
X70539754Y-112797018D01*
X70538427Y-112796687D01*
X70299757Y-112735771D01*
X70292800Y-112733781D01*
X70030568Y-112650553D01*
X70028894Y-112650009D01*
X69793593Y-112571693D01*
X69787160Y-112569356D01*
X69532191Y-112468809D01*
X69530197Y-112468003D01*
X69300119Y-112372702D01*
X69294222Y-112370080D01*
X69047385Y-112252689D01*
X69045100Y-112251574D01*
X68821776Y-112139786D01*
X68816422Y-112136943D01*
X68578556Y-112003198D01*
X68576016Y-112001731D01*
X68360886Y-111874089D01*
X68356075Y-111871086D01*
X68128141Y-111721584D01*
X68125385Y-111719724D01*
X67919674Y-111576896D01*
X67915401Y-111573794D01*
X67698371Y-111409215D01*
X67695444Y-111406927D01*
X67500323Y-111249689D01*
X67496576Y-111246548D01*
X67291350Y-111067599D01*
X67288300Y-111064850D01*
X67104807Y-110894013D01*
X67101570Y-110890889D01*
X66909109Y-110698428D01*
X66905985Y-110695191D01*
X66735148Y-110511698D01*
X66732399Y-110508648D01*
X66632579Y-110394170D01*
X66553434Y-110303402D01*
X66550327Y-110299696D01*
X66393054Y-110104533D01*
X66390801Y-110101650D01*
X66226192Y-109884581D01*
X66223114Y-109880341D01*
X66080247Y-109674573D01*
X66078442Y-109671899D01*
X65928897Y-109443900D01*
X65925924Y-109439136D01*
X65798256Y-109223963D01*
X65796800Y-109221442D01*
X65663055Y-108983576D01*
X65660212Y-108978222D01*
X65548424Y-108754898D01*
X65547309Y-108752613D01*
X65429918Y-108505776D01*
X65427296Y-108499879D01*
X65331995Y-108269801D01*
X65331189Y-108267807D01*
X65250621Y-108063500D01*
X65230634Y-108012816D01*
X65228313Y-108006429D01*
X65149934Y-107770936D01*
X65149503Y-107769611D01*
X65066209Y-107507173D01*
X65064232Y-107500260D01*
X65003311Y-107261571D01*
X65002980Y-107260244D01*
X64974413Y-107143020D01*
X64937429Y-106991259D01*
X64935861Y-106983857D01*
X64892623Y-106744205D01*
X64892554Y-106743815D01*
X64844929Y-106467599D01*
X64843828Y-106459723D01*
X64818590Y-106224985D01*
X64789162Y-105938726D01*
X64788586Y-105930402D01*
X64781509Y-105732262D01*
X64772814Y-105477766D01*
X70535787Y-105477766D01*
X70565413Y-105747015D01*
X70565414Y-105747018D01*
X70633928Y-106009088D01*
X70739870Y-106258390D01*
X70880982Y-106489610D01*
X71054255Y-106697820D01*
X71054256Y-106697821D01*
X71054258Y-106697823D01*
X71255993Y-106878578D01*
X71255995Y-106878579D01*
X71255998Y-106878582D01*
X71481910Y-107028044D01*
X71614104Y-107090014D01*
X71727171Y-107143018D01*
X71727173Y-107143018D01*
X71727176Y-107143020D01*
X71986569Y-107221060D01*
X71986572Y-107221060D01*
X71986574Y-107221061D01*
X72254558Y-107260500D01*
X72254561Y-107260500D01*
X72457630Y-107260500D01*
X72457631Y-107260500D01*
X72660156Y-107245677D01*
X72924553Y-107186780D01*
X73177558Y-107090014D01*
X73413777Y-106957441D01*
X73444134Y-106934000D01*
X77302001Y-106934000D01*
X77302001Y-107355503D01*
X77312606Y-107459323D01*
X77368344Y-107627529D01*
X77461365Y-107778339D01*
X77586660Y-107903634D01*
X77737470Y-107996655D01*
X77905676Y-108052393D01*
X78009498Y-108063000D01*
X78268500Y-108063000D01*
X78268500Y-106934000D01*
X78776500Y-106934000D01*
X78776500Y-108062999D01*
X79035503Y-108062999D01*
X79139323Y-108052393D01*
X79307529Y-107996655D01*
X79458339Y-107903634D01*
X79583634Y-107778339D01*
X79676655Y-107627529D01*
X79732393Y-107459323D01*
X79742996Y-107355540D01*
X80276500Y-107355540D01*
X80287113Y-107459426D01*
X80300638Y-107500241D01*
X80342885Y-107627738D01*
X80431211Y-107770936D01*
X80435972Y-107778654D01*
X80561345Y-107904027D01*
X80561347Y-107904028D01*
X80561349Y-107904030D01*
X80712262Y-107997115D01*
X80880575Y-108052887D01*
X80984456Y-108063500D01*
X82010540Y-108063500D01*
X82010544Y-108063500D01*
X82114425Y-108052887D01*
X82282738Y-107997115D01*
X82433651Y-107904030D01*
X82559030Y-107778651D01*
X82652115Y-107627738D01*
X82707887Y-107459425D01*
X82718500Y-107355544D01*
X82718500Y-106004456D01*
X82707887Y-105900575D01*
X82652115Y-105732262D01*
X82559030Y-105581349D01*
X82559028Y-105581347D01*
X82559027Y-105581345D01*
X82455448Y-105477766D01*
X146735787Y-105477766D01*
X146765413Y-105747015D01*
X146765414Y-105747018D01*
X146833928Y-106009088D01*
X146939870Y-106258390D01*
X147080982Y-106489610D01*
X147254255Y-106697820D01*
X147254256Y-106697821D01*
X147254258Y-106697823D01*
X147455993Y-106878578D01*
X147455995Y-106878579D01*
X147455998Y-106878582D01*
X147681910Y-107028044D01*
X147814104Y-107090014D01*
X147927171Y-107143018D01*
X147927173Y-107143018D01*
X147927176Y-107143020D01*
X148186569Y-107221060D01*
X148186572Y-107221060D01*
X148186574Y-107221061D01*
X148454558Y-107260500D01*
X148454561Y-107260500D01*
X148657630Y-107260500D01*
X148657631Y-107260500D01*
X148860156Y-107245677D01*
X149124553Y-107186780D01*
X149377558Y-107090014D01*
X149613777Y-106957441D01*
X149828177Y-106791888D01*
X150016186Y-106596881D01*
X150173799Y-106376579D01*
X150297656Y-106135675D01*
X150385118Y-105879305D01*
X150434319Y-105612933D01*
X150444212Y-105342235D01*
X150438833Y-105293353D01*
X150414586Y-105072984D01*
X150414586Y-105072982D01*
X150346072Y-104810912D01*
X150240130Y-104561610D01*
X150099018Y-104330390D01*
X149925745Y-104122180D01*
X149820759Y-104028112D01*
X149724006Y-103941421D01*
X149724003Y-103941419D01*
X149724002Y-103941418D01*
X149498090Y-103791956D01*
X149498086Y-103791954D01*
X149252828Y-103676981D01*
X148993425Y-103598938D01*
X148725442Y-103559500D01*
X148725439Y-103559500D01*
X148522369Y-103559500D01*
X148488614Y-103561970D01*
X148319839Y-103574323D01*
X148055449Y-103633219D01*
X147802441Y-103729985D01*
X147566225Y-103862557D01*
X147351820Y-104028114D01*
X147163815Y-104223117D01*
X147006200Y-104443422D01*
X146882342Y-104684328D01*
X146794882Y-104940693D01*
X146745681Y-105207065D01*
X146735787Y-105477766D01*
X82455448Y-105477766D01*
X82433654Y-105455972D01*
X82359122Y-105410000D01*
X82282738Y-105362885D01*
X82282737Y-105362884D01*
X82282733Y-105362882D01*
X82279864Y-105361932D01*
X82234825Y-105335636D01*
X82204294Y-105293353D01*
X82193500Y-105242329D01*
X82193500Y-103037671D01*
X82204294Y-102986647D01*
X82234825Y-102944364D01*
X82279864Y-102918068D01*
X82282733Y-102917117D01*
X82282734Y-102917116D01*
X82282738Y-102917115D01*
X82433652Y-102824030D01*
X82559030Y-102698652D01*
X82652115Y-102547738D01*
X82707887Y-102379426D01*
X82718500Y-102275545D01*
X82718499Y-100924456D01*
X82707887Y-100820574D01*
X82652115Y-100652262D01*
X82559030Y-100501348D01*
X82559028Y-100501346D01*
X82559027Y-100501344D01*
X82433655Y-100375972D01*
X82433652Y-100375970D01*
X82282738Y-100282885D01*
X82114426Y-100227113D01*
X82010545Y-100216500D01*
X82010540Y-100216500D01*
X81109459Y-100216500D01*
X81005573Y-100227113D01*
X80837262Y-100282885D01*
X80686344Y-100375972D01*
X80560972Y-100501344D01*
X80560970Y-100501348D01*
X80467885Y-100652262D01*
X80412113Y-100820573D01*
X80412113Y-100820574D01*
X80401500Y-100924459D01*
X80401500Y-102275540D01*
X80401501Y-102275545D01*
X80412113Y-102379426D01*
X80467885Y-102547738D01*
X80560970Y-102698652D01*
X80560972Y-102698655D01*
X80686344Y-102824027D01*
X80686346Y-102824028D01*
X80686348Y-102824030D01*
X80837262Y-102917115D01*
X80837263Y-102917115D01*
X80837266Y-102917117D01*
X80840136Y-102918068D01*
X80885175Y-102944364D01*
X80915706Y-102986647D01*
X80926500Y-103037671D01*
X80926500Y-105200909D01*
X80915706Y-105251934D01*
X80885173Y-105294218D01*
X80840133Y-105320513D01*
X80712262Y-105362885D01*
X80711518Y-105363344D01*
X80561345Y-105455972D01*
X80435972Y-105581345D01*
X80342885Y-105732262D01*
X80287113Y-105900573D01*
X80276500Y-106004460D01*
X80276500Y-107355540D01*
X79742996Y-107355540D01*
X79743000Y-107355502D01*
X79743000Y-106934000D01*
X78776500Y-106934000D01*
X78268500Y-106934000D01*
X77302001Y-106934000D01*
X73444134Y-106934000D01*
X73628177Y-106791888D01*
X73816186Y-106596881D01*
X73938441Y-106426000D01*
X77302000Y-106426000D01*
X78268500Y-106426000D01*
X78268500Y-105297001D01*
X78009497Y-105297001D01*
X77905676Y-105307606D01*
X77737470Y-105363344D01*
X77586660Y-105456365D01*
X77461365Y-105581660D01*
X77368344Y-105732470D01*
X77312606Y-105900676D01*
X77302000Y-106004498D01*
X77302000Y-106426000D01*
X73938441Y-106426000D01*
X73973799Y-106376579D01*
X74097656Y-106135675D01*
X74185118Y-105879305D01*
X74234319Y-105612933D01*
X74244212Y-105342235D01*
X74239234Y-105297000D01*
X78776500Y-105297000D01*
X78776500Y-106426000D01*
X79742999Y-106426000D01*
X79742999Y-106004497D01*
X79732393Y-105900676D01*
X79676655Y-105732470D01*
X79583634Y-105581660D01*
X79458339Y-105456365D01*
X79307529Y-105363344D01*
X79139323Y-105307606D01*
X79035502Y-105297000D01*
X78776500Y-105297000D01*
X74239234Y-105297000D01*
X74238833Y-105293353D01*
X74214586Y-105072984D01*
X74214586Y-105072982D01*
X74146072Y-104810912D01*
X74040130Y-104561610D01*
X73899018Y-104330390D01*
X73725745Y-104122180D01*
X73620759Y-104028112D01*
X73524006Y-103941421D01*
X73524003Y-103941419D01*
X73524002Y-103941418D01*
X73298090Y-103791956D01*
X73298086Y-103791954D01*
X73052828Y-103676981D01*
X72793425Y-103598938D01*
X72525442Y-103559500D01*
X72525439Y-103559500D01*
X72322369Y-103559500D01*
X72288614Y-103561970D01*
X72119839Y-103574323D01*
X71855449Y-103633219D01*
X71602441Y-103729985D01*
X71366225Y-103862557D01*
X71151820Y-104028114D01*
X70963815Y-104223117D01*
X70806200Y-104443422D01*
X70682342Y-104684328D01*
X70594882Y-104940693D01*
X70545681Y-105207065D01*
X70535787Y-105477766D01*
X64772814Y-105477766D01*
X64770572Y-105412136D01*
X64770500Y-105407835D01*
X64770500Y-102275540D01*
X77301500Y-102275540D01*
X77301501Y-102275545D01*
X77312113Y-102379426D01*
X77367885Y-102547738D01*
X77460970Y-102698652D01*
X77460972Y-102698655D01*
X77586344Y-102824027D01*
X77586346Y-102824028D01*
X77586348Y-102824030D01*
X77737262Y-102917115D01*
X77905574Y-102972887D01*
X78009455Y-102983500D01*
X78910544Y-102983499D01*
X79014426Y-102972887D01*
X79182738Y-102917115D01*
X79333652Y-102824030D01*
X79459030Y-102698652D01*
X79552115Y-102547738D01*
X79607887Y-102379426D01*
X79618500Y-102275545D01*
X79618499Y-100924456D01*
X79607887Y-100820574D01*
X79552115Y-100652262D01*
X79459030Y-100501348D01*
X79459028Y-100501346D01*
X79459027Y-100501344D01*
X79333655Y-100375972D01*
X79218853Y-100305161D01*
X79174976Y-100259326D01*
X79159000Y-100197920D01*
X79159000Y-97262250D01*
X79174132Y-97202381D01*
X79215895Y-97156891D01*
X79274256Y-97136709D01*
X79327311Y-97145390D01*
X79327525Y-97144627D01*
X79334376Y-97146546D01*
X79335196Y-97146680D01*
X79335823Y-97146953D01*
X79600404Y-97221085D01*
X79600410Y-97221085D01*
X79600411Y-97221086D01*
X79872612Y-97258500D01*
X79872615Y-97258500D01*
X80147385Y-97258500D01*
X80147388Y-97258500D01*
X80366636Y-97228364D01*
X80419596Y-97221085D01*
X80684177Y-97146953D01*
X80936200Y-97037484D01*
X81170969Y-96894718D01*
X81384111Y-96721314D01*
X81571657Y-96520502D01*
X81730111Y-96296023D01*
X81856523Y-96052058D01*
X81948538Y-95793153D01*
X81954795Y-95763044D01*
X91326500Y-95763044D01*
X91334990Y-95846148D01*
X91337113Y-95866926D01*
X91356537Y-95925544D01*
X91392885Y-96035238D01*
X91463429Y-96149607D01*
X91485972Y-96186154D01*
X91611345Y-96311527D01*
X91611347Y-96311528D01*
X91611349Y-96311530D01*
X91762262Y-96404615D01*
X91930575Y-96460387D01*
X92034456Y-96471000D01*
X93385540Y-96471000D01*
X93385544Y-96471000D01*
X93489425Y-96460387D01*
X93657738Y-96404615D01*
X93808651Y-96311530D01*
X93934030Y-96186151D01*
X94027115Y-96035238D01*
X94027116Y-96035234D01*
X94027727Y-96034244D01*
X94053366Y-95990329D01*
X94095650Y-95959795D01*
X94146676Y-95949000D01*
X94625519Y-95949000D01*
X94664455Y-95955167D01*
X94699580Y-95973064D01*
X94793248Y-96041118D01*
X94967712Y-96118794D01*
X95154513Y-96158500D01*
X95345485Y-96158500D01*
X95345487Y-96158500D01*
X95532288Y-96118794D01*
X95706752Y-96041118D01*
X95800419Y-95973064D01*
X95835545Y-95955167D01*
X95874481Y-95949000D01*
X96353324Y-95949000D01*
X96404350Y-95959795D01*
X96446634Y-95990329D01*
X96472272Y-96034244D01*
X96472884Y-96035237D01*
X96472885Y-96035238D01*
X96524423Y-96118794D01*
X96565972Y-96186154D01*
X96691345Y-96311527D01*
X96691347Y-96311528D01*
X96691349Y-96311530D01*
X96842262Y-96404615D01*
X97010575Y-96460387D01*
X97114456Y-96471000D01*
X98465540Y-96471000D01*
X98465544Y-96471000D01*
X98569425Y-96460387D01*
X98737738Y-96404615D01*
X98888651Y-96311530D01*
X99014030Y-96186151D01*
X99107115Y-96035238D01*
X99107116Y-96035234D01*
X99107727Y-96034244D01*
X99133366Y-95990329D01*
X99175650Y-95959795D01*
X99226676Y-95949000D01*
X101433324Y-95949000D01*
X101484350Y-95959795D01*
X101526634Y-95990329D01*
X101552272Y-96034244D01*
X101552884Y-96035237D01*
X101552885Y-96035238D01*
X101604423Y-96118794D01*
X101645972Y-96186154D01*
X101771345Y-96311527D01*
X101771347Y-96311528D01*
X101771349Y-96311530D01*
X101922262Y-96404615D01*
X102090575Y-96460387D01*
X102194456Y-96471000D01*
X103545540Y-96471000D01*
X103545544Y-96471000D01*
X103649425Y-96460387D01*
X103817738Y-96404615D01*
X103968651Y-96311530D01*
X104094030Y-96186151D01*
X104187115Y-96035238D01*
X104187116Y-96035234D01*
X104187727Y-96034244D01*
X104213366Y-95990329D01*
X104255650Y-95959795D01*
X104306676Y-95949000D01*
X106513324Y-95949000D01*
X106564350Y-95959795D01*
X106606634Y-95990329D01*
X106632272Y-96034244D01*
X106632884Y-96035237D01*
X106632885Y-96035238D01*
X106684423Y-96118794D01*
X106725972Y-96186154D01*
X106851345Y-96311527D01*
X106851347Y-96311528D01*
X106851349Y-96311530D01*
X107002262Y-96404615D01*
X107170575Y-96460387D01*
X107274456Y-96471000D01*
X108625540Y-96471000D01*
X108625544Y-96471000D01*
X108729425Y-96460387D01*
X108897738Y-96404615D01*
X109048651Y-96311530D01*
X109174030Y-96186151D01*
X109267115Y-96035238D01*
X109267116Y-96035234D01*
X109267727Y-96034244D01*
X109293366Y-95990329D01*
X109335650Y-95959795D01*
X109386676Y-95949000D01*
X111593324Y-95949000D01*
X111644350Y-95959795D01*
X111686634Y-95990329D01*
X111712272Y-96034244D01*
X111712884Y-96035237D01*
X111712885Y-96035238D01*
X111764423Y-96118794D01*
X111805972Y-96186154D01*
X111931345Y-96311527D01*
X111931347Y-96311528D01*
X111931349Y-96311530D01*
X112082262Y-96404615D01*
X112250575Y-96460387D01*
X112354456Y-96471000D01*
X113705540Y-96471000D01*
X113705544Y-96471000D01*
X113809425Y-96460387D01*
X113977738Y-96404615D01*
X114128651Y-96311530D01*
X114254030Y-96186151D01*
X114347115Y-96035238D01*
X114347116Y-96035234D01*
X114347727Y-96034244D01*
X114373366Y-95990329D01*
X114415650Y-95959795D01*
X114466676Y-95949000D01*
X116673324Y-95949000D01*
X116724350Y-95959795D01*
X116766634Y-95990329D01*
X116792272Y-96034244D01*
X116792884Y-96035237D01*
X116792885Y-96035238D01*
X116844423Y-96118794D01*
X116885972Y-96186154D01*
X117011345Y-96311527D01*
X117011347Y-96311528D01*
X117011349Y-96311530D01*
X117162262Y-96404615D01*
X117330575Y-96460387D01*
X117434456Y-96471000D01*
X118785540Y-96471000D01*
X118785544Y-96471000D01*
X118889425Y-96460387D01*
X119057738Y-96404615D01*
X119208651Y-96311530D01*
X119334030Y-96186151D01*
X119427115Y-96035238D01*
X119427116Y-96035234D01*
X119427727Y-96034244D01*
X119453366Y-95990329D01*
X119495650Y-95959795D01*
X119546676Y-95949000D01*
X121753324Y-95949000D01*
X121804350Y-95959795D01*
X121846634Y-95990329D01*
X121872272Y-96034244D01*
X121872884Y-96035237D01*
X121872885Y-96035238D01*
X121924423Y-96118794D01*
X121965972Y-96186154D01*
X122091345Y-96311527D01*
X122091347Y-96311528D01*
X122091349Y-96311530D01*
X122242262Y-96404615D01*
X122410575Y-96460387D01*
X122514456Y-96471000D01*
X123865540Y-96471000D01*
X123865544Y-96471000D01*
X123969425Y-96460387D01*
X124137738Y-96404615D01*
X124288651Y-96311530D01*
X124414030Y-96186151D01*
X124507115Y-96035238D01*
X124507116Y-96035234D01*
X124507727Y-96034244D01*
X124533366Y-95990329D01*
X124575650Y-95959795D01*
X124626676Y-95949000D01*
X126833324Y-95949000D01*
X126884350Y-95959795D01*
X126926634Y-95990329D01*
X126952272Y-96034244D01*
X126952884Y-96035237D01*
X126952885Y-96035238D01*
X127004423Y-96118794D01*
X127045972Y-96186154D01*
X127171345Y-96311527D01*
X127171347Y-96311528D01*
X127171349Y-96311530D01*
X127322262Y-96404615D01*
X127490575Y-96460387D01*
X127594456Y-96471000D01*
X128945540Y-96471000D01*
X128945544Y-96471000D01*
X129049425Y-96460387D01*
X129217738Y-96404615D01*
X129368651Y-96311530D01*
X129494030Y-96186151D01*
X129587115Y-96035238D01*
X129642887Y-95866925D01*
X129653500Y-95763044D01*
X129653500Y-94736956D01*
X129642887Y-94633075D01*
X129587115Y-94464762D01*
X129494030Y-94313849D01*
X129494028Y-94313847D01*
X129494027Y-94313845D01*
X129368654Y-94188472D01*
X129340613Y-94171176D01*
X129217738Y-94095385D01*
X129133581Y-94067498D01*
X129049426Y-94039613D01*
X129028648Y-94037490D01*
X128945544Y-94029000D01*
X127594456Y-94029000D01*
X127525202Y-94036075D01*
X127490573Y-94039613D01*
X127322262Y-94095385D01*
X127171345Y-94188472D01*
X127045972Y-94313845D01*
X126952272Y-94465755D01*
X126926634Y-94509671D01*
X126884350Y-94540205D01*
X126833324Y-94551000D01*
X124626676Y-94551000D01*
X124575650Y-94540205D01*
X124533366Y-94509671D01*
X124507727Y-94465755D01*
X124507035Y-94464633D01*
X124414030Y-94313849D01*
X124414028Y-94313847D01*
X124414027Y-94313845D01*
X124288654Y-94188472D01*
X124260613Y-94171176D01*
X124137738Y-94095385D01*
X124053581Y-94067498D01*
X123969426Y-94039613D01*
X123948648Y-94037490D01*
X123865544Y-94029000D01*
X122514456Y-94029000D01*
X122445202Y-94036075D01*
X122410573Y-94039613D01*
X122242262Y-94095385D01*
X122091345Y-94188472D01*
X121965972Y-94313845D01*
X121872272Y-94465755D01*
X121846634Y-94509671D01*
X121804350Y-94540205D01*
X121753324Y-94551000D01*
X119546676Y-94551000D01*
X119495650Y-94540205D01*
X119453366Y-94509671D01*
X119427727Y-94465755D01*
X119427035Y-94464633D01*
X119334030Y-94313849D01*
X119334028Y-94313847D01*
X119334027Y-94313845D01*
X119208654Y-94188472D01*
X119180613Y-94171176D01*
X119057738Y-94095385D01*
X118973581Y-94067498D01*
X118889426Y-94039613D01*
X118868648Y-94037490D01*
X118785544Y-94029000D01*
X117434456Y-94029000D01*
X117365202Y-94036075D01*
X117330573Y-94039613D01*
X117162262Y-94095385D01*
X117011345Y-94188472D01*
X116885972Y-94313845D01*
X116792272Y-94465755D01*
X116766634Y-94509671D01*
X116724350Y-94540205D01*
X116673324Y-94551000D01*
X114466676Y-94551000D01*
X114415650Y-94540205D01*
X114373366Y-94509671D01*
X114347727Y-94465755D01*
X114347035Y-94464633D01*
X114254030Y-94313849D01*
X114254028Y-94313847D01*
X114254027Y-94313845D01*
X114128654Y-94188472D01*
X114100613Y-94171176D01*
X113977738Y-94095385D01*
X113893581Y-94067498D01*
X113809426Y-94039613D01*
X113788648Y-94037490D01*
X113705544Y-94029000D01*
X112354456Y-94029000D01*
X112285202Y-94036075D01*
X112250573Y-94039613D01*
X112082262Y-94095385D01*
X111931345Y-94188472D01*
X111805972Y-94313845D01*
X111712272Y-94465755D01*
X111686634Y-94509671D01*
X111644350Y-94540205D01*
X111593324Y-94551000D01*
X109386676Y-94551000D01*
X109335650Y-94540205D01*
X109293366Y-94509671D01*
X109267727Y-94465755D01*
X109267035Y-94464633D01*
X109174030Y-94313849D01*
X109174028Y-94313847D01*
X109174027Y-94313845D01*
X109048654Y-94188472D01*
X109020613Y-94171176D01*
X108897738Y-94095385D01*
X108813581Y-94067498D01*
X108729426Y-94039613D01*
X108708648Y-94037490D01*
X108625544Y-94029000D01*
X107274456Y-94029000D01*
X107205202Y-94036075D01*
X107170573Y-94039613D01*
X107002262Y-94095385D01*
X106851345Y-94188472D01*
X106725972Y-94313845D01*
X106632272Y-94465755D01*
X106606634Y-94509671D01*
X106564350Y-94540205D01*
X106513324Y-94551000D01*
X104306676Y-94551000D01*
X104255650Y-94540205D01*
X104213366Y-94509671D01*
X104187727Y-94465755D01*
X104187035Y-94464633D01*
X104094030Y-94313849D01*
X104094028Y-94313847D01*
X104094027Y-94313845D01*
X103968654Y-94188472D01*
X103940613Y-94171176D01*
X103817738Y-94095385D01*
X103733581Y-94067498D01*
X103649426Y-94039613D01*
X103628648Y-94037490D01*
X103545544Y-94029000D01*
X102194456Y-94029000D01*
X102125202Y-94036075D01*
X102090573Y-94039613D01*
X101922262Y-94095385D01*
X101771345Y-94188472D01*
X101645972Y-94313845D01*
X101552272Y-94465755D01*
X101526634Y-94509671D01*
X101484350Y-94540205D01*
X101433324Y-94551000D01*
X99226676Y-94551000D01*
X99175650Y-94540205D01*
X99133366Y-94509671D01*
X99107727Y-94465755D01*
X99107035Y-94464633D01*
X99014030Y-94313849D01*
X99014028Y-94313847D01*
X99014027Y-94313845D01*
X98888654Y-94188472D01*
X98860613Y-94171176D01*
X98737738Y-94095385D01*
X98653581Y-94067498D01*
X98569426Y-94039613D01*
X98548648Y-94037490D01*
X98465544Y-94029000D01*
X97114456Y-94029000D01*
X97045202Y-94036075D01*
X97010573Y-94039613D01*
X96842262Y-94095385D01*
X96691345Y-94188472D01*
X96565972Y-94313845D01*
X96472272Y-94465755D01*
X96446634Y-94509671D01*
X96404350Y-94540205D01*
X96353324Y-94551000D01*
X95874481Y-94551000D01*
X95835545Y-94544833D01*
X95800420Y-94526936D01*
X95779098Y-94511445D01*
X95706752Y-94458882D01*
X95532288Y-94381206D01*
X95345487Y-94341500D01*
X95154513Y-94341500D01*
X95034894Y-94366926D01*
X94967711Y-94381206D01*
X94793246Y-94458883D01*
X94699580Y-94526936D01*
X94664455Y-94544833D01*
X94625519Y-94551000D01*
X94146676Y-94551000D01*
X94095650Y-94540205D01*
X94053366Y-94509671D01*
X94027727Y-94465755D01*
X94027035Y-94464633D01*
X93934030Y-94313849D01*
X93934028Y-94313847D01*
X93934027Y-94313845D01*
X93808654Y-94188472D01*
X93780613Y-94171176D01*
X93657738Y-94095385D01*
X93573581Y-94067498D01*
X93489426Y-94039613D01*
X93468648Y-94037490D01*
X93385544Y-94029000D01*
X92034456Y-94029000D01*
X91965202Y-94036075D01*
X91930573Y-94039613D01*
X91762262Y-94095385D01*
X91611345Y-94188472D01*
X91485972Y-94313845D01*
X91392885Y-94464762D01*
X91337113Y-94633073D01*
X91337112Y-94633075D01*
X91337113Y-94633075D01*
X91326500Y-94736956D01*
X91326500Y-95763044D01*
X81954795Y-95763044D01*
X82004442Y-95524130D01*
X82023193Y-95250000D01*
X82004442Y-94975870D01*
X81948538Y-94706847D01*
X81868512Y-94481678D01*
X81864329Y-94411748D01*
X81898141Y-94350393D01*
X83460490Y-92788044D01*
X91326500Y-92788044D01*
X91337113Y-92891925D01*
X91392885Y-93060238D01*
X91485970Y-93211151D01*
X91485972Y-93211154D01*
X91611345Y-93336527D01*
X91611347Y-93336528D01*
X91611349Y-93336530D01*
X91762262Y-93429615D01*
X91930575Y-93485387D01*
X92034456Y-93496000D01*
X93385540Y-93496000D01*
X93385544Y-93496000D01*
X93489425Y-93485387D01*
X93657738Y-93429615D01*
X93808651Y-93336530D01*
X93934030Y-93211151D01*
X94027115Y-93060238D01*
X94082887Y-92891925D01*
X94093500Y-92788044D01*
X94093500Y-91761956D01*
X94082887Y-91658075D01*
X94027115Y-91489762D01*
X93934030Y-91338849D01*
X93934028Y-91338847D01*
X93934027Y-91338845D01*
X93808654Y-91213472D01*
X93808651Y-91213470D01*
X93657738Y-91120385D01*
X93495366Y-91066581D01*
X93450327Y-91040286D01*
X93419794Y-90998003D01*
X93409000Y-90946977D01*
X93409000Y-82891726D01*
X93418591Y-82843508D01*
X93445905Y-82802631D01*
X94454621Y-81793915D01*
X99536643Y-76711890D01*
X99542169Y-76706689D01*
X99587052Y-76666927D01*
X99621116Y-76617574D01*
X99625606Y-76611471D01*
X99662584Y-76564275D01*
X99666645Y-76555249D01*
X99677855Y-76535375D01*
X99683480Y-76527227D01*
X99704746Y-76471151D01*
X99707648Y-76464147D01*
X99732250Y-76409485D01*
X99732249Y-76409485D01*
X99732251Y-76409483D01*
X99734036Y-76399737D01*
X99740162Y-76377766D01*
X99743673Y-76368510D01*
X99750899Y-76308996D01*
X99752044Y-76301469D01*
X99762849Y-76242513D01*
X99759230Y-76182685D01*
X99759000Y-76175077D01*
X99759000Y-74035155D01*
X99773353Y-73976753D01*
X99813140Y-73931655D01*
X99869299Y-73910137D01*
X99929030Y-73917099D01*
X99940799Y-73921489D01*
X100001362Y-73928000D01*
X100998638Y-73928000D01*
X101059201Y-73921489D01*
X101070969Y-73917099D01*
X101130701Y-73910137D01*
X101186860Y-73931655D01*
X101226647Y-73976753D01*
X101241000Y-74035155D01*
X101241000Y-78058275D01*
X101231409Y-78106493D01*
X101204095Y-78147370D01*
X97313361Y-82038101D01*
X97307821Y-82043317D01*
X97262947Y-82083073D01*
X97228900Y-82132398D01*
X97224393Y-82138524D01*
X97187415Y-82185725D01*
X97183350Y-82194758D01*
X97172152Y-82214612D01*
X97166519Y-82222772D01*
X97145257Y-82278834D01*
X97142346Y-82285861D01*
X97117748Y-82340517D01*
X97115962Y-82350262D01*
X97109843Y-82372216D01*
X97106327Y-82381488D01*
X97099101Y-82440998D01*
X97097956Y-82448521D01*
X97087150Y-82507484D01*
X97090770Y-82567316D01*
X97091000Y-82574924D01*
X97091000Y-90946977D01*
X97080206Y-90998003D01*
X97049673Y-91040286D01*
X97004633Y-91066581D01*
X96842262Y-91120385D01*
X96774261Y-91162328D01*
X96691345Y-91213472D01*
X96565972Y-91338845D01*
X96472885Y-91489762D01*
X96417113Y-91658073D01*
X96417112Y-91658075D01*
X96417113Y-91658075D01*
X96406500Y-91761956D01*
X96406500Y-92788044D01*
X96417113Y-92891925D01*
X96472885Y-93060238D01*
X96565970Y-93211151D01*
X96565972Y-93211154D01*
X96691345Y-93336527D01*
X96691347Y-93336528D01*
X96691349Y-93336530D01*
X96842262Y-93429615D01*
X97010575Y-93485387D01*
X97114456Y-93496000D01*
X98465540Y-93496000D01*
X98465544Y-93496000D01*
X98569425Y-93485387D01*
X98737738Y-93429615D01*
X98888651Y-93336530D01*
X99014030Y-93211151D01*
X99107115Y-93060238D01*
X99162887Y-92891925D01*
X99173500Y-92788044D01*
X99173500Y-91761956D01*
X99162887Y-91658075D01*
X99107115Y-91489762D01*
X99014030Y-91338849D01*
X99014028Y-91338847D01*
X99014027Y-91338845D01*
X98888654Y-91213472D01*
X98888651Y-91213470D01*
X98737738Y-91120385D01*
X98575366Y-91066581D01*
X98530327Y-91040286D01*
X98499794Y-90998003D01*
X98489000Y-90946977D01*
X98489000Y-82891726D01*
X98498591Y-82843508D01*
X98525905Y-82802631D01*
X99075019Y-82253517D01*
X101830601Y-79497933D01*
X101888358Y-79464989D01*
X101954846Y-79466033D01*
X102011543Y-79500777D01*
X102042658Y-79559543D01*
X102039526Y-79625965D01*
X101986038Y-79790587D01*
X101976458Y-79820072D01*
X101969645Y-79884898D01*
X101956496Y-80010000D01*
X101976458Y-80199929D01*
X102035472Y-80381556D01*
X102130958Y-80546942D01*
X102138636Y-80555469D01*
X102162631Y-80594625D01*
X102171000Y-80639780D01*
X102171000Y-90946977D01*
X102160206Y-90998003D01*
X102129673Y-91040286D01*
X102084633Y-91066581D01*
X101922262Y-91120385D01*
X101854261Y-91162328D01*
X101771345Y-91213472D01*
X101645972Y-91338845D01*
X101552885Y-91489762D01*
X101497113Y-91658073D01*
X101497112Y-91658075D01*
X101497113Y-91658075D01*
X101486500Y-91761956D01*
X101486500Y-92788044D01*
X101497113Y-92891925D01*
X101552885Y-93060238D01*
X101645970Y-93211151D01*
X101645972Y-93211154D01*
X101771345Y-93336527D01*
X101771347Y-93336528D01*
X101771349Y-93336530D01*
X101922262Y-93429615D01*
X102090575Y-93485387D01*
X102194456Y-93496000D01*
X103545540Y-93496000D01*
X103545544Y-93496000D01*
X103649425Y-93485387D01*
X103817738Y-93429615D01*
X103968651Y-93336530D01*
X104094030Y-93211151D01*
X104187115Y-93060238D01*
X104242887Y-92891925D01*
X104253500Y-92788044D01*
X104253500Y-91761956D01*
X104242887Y-91658075D01*
X104187115Y-91489762D01*
X104094030Y-91338849D01*
X104094028Y-91338847D01*
X104094027Y-91338845D01*
X103968654Y-91213472D01*
X103968651Y-91213470D01*
X103817738Y-91120385D01*
X103655366Y-91066581D01*
X103610327Y-91040286D01*
X103579794Y-90998003D01*
X103569000Y-90946977D01*
X103569000Y-80639780D01*
X103577369Y-80594625D01*
X103601364Y-80555469D01*
X103609040Y-80546944D01*
X103704527Y-80381556D01*
X103763542Y-80199928D01*
X103783504Y-80010000D01*
X103763542Y-79820072D01*
X103710497Y-79656817D01*
X103704527Y-79638443D01*
X103609041Y-79473057D01*
X103503358Y-79355684D01*
X103481253Y-79331134D01*
X103433162Y-79296194D01*
X103326753Y-79218883D01*
X103326752Y-79218882D01*
X103152288Y-79141206D01*
X102965487Y-79101500D01*
X102774513Y-79101500D01*
X102587712Y-79141206D01*
X102587711Y-79141206D01*
X102587708Y-79141207D01*
X102487060Y-79186018D01*
X102418711Y-79195745D01*
X102355496Y-79167995D01*
X102316393Y-79111099D01*
X102313141Y-79042139D01*
X102346715Y-78981818D01*
X102416643Y-78911890D01*
X102422169Y-78906689D01*
X102467052Y-78866927D01*
X102501116Y-78817574D01*
X102505606Y-78811471D01*
X102542584Y-78764275D01*
X102546645Y-78755249D01*
X102557855Y-78735375D01*
X102563480Y-78727227D01*
X102584746Y-78671151D01*
X102587648Y-78664147D01*
X102612250Y-78609485D01*
X102612249Y-78609485D01*
X102612251Y-78609483D01*
X102614036Y-78599737D01*
X102620162Y-78577766D01*
X102623673Y-78568510D01*
X102630899Y-78508996D01*
X102632044Y-78501469D01*
X102636738Y-78475861D01*
X102642849Y-78442515D01*
X102639230Y-78382685D01*
X102639000Y-78375077D01*
X102639000Y-73931367D01*
X102652328Y-73874967D01*
X102689491Y-73830499D01*
X102753261Y-73782761D01*
X102769132Y-73761561D01*
X102813600Y-73724398D01*
X102870000Y-73711070D01*
X102926400Y-73724398D01*
X102970868Y-73761561D01*
X102986738Y-73782761D01*
X103103794Y-73870388D01*
X103103795Y-73870388D01*
X103103796Y-73870389D01*
X103240799Y-73921489D01*
X103301362Y-73928000D01*
X104298638Y-73928000D01*
X104359201Y-73921489D01*
X104475967Y-73877936D01*
X104520000Y-73869992D01*
X104564032Y-73877936D01*
X104680799Y-73921489D01*
X104741362Y-73928000D01*
X105738638Y-73928000D01*
X105799201Y-73921489D01*
X105915967Y-73877936D01*
X105960000Y-73869992D01*
X106004032Y-73877936D01*
X106120799Y-73921489D01*
X106181362Y-73928000D01*
X107178638Y-73928000D01*
X107239201Y-73921489D01*
X107355967Y-73877936D01*
X107400000Y-73869992D01*
X107444032Y-73877936D01*
X107560799Y-73921489D01*
X107621362Y-73928000D01*
X108618638Y-73928000D01*
X108679201Y-73921489D01*
X108795967Y-73877936D01*
X108840000Y-73869992D01*
X108884032Y-73877936D01*
X109000799Y-73921489D01*
X109061362Y-73928000D01*
X110058638Y-73928000D01*
X110119201Y-73921489D01*
X110256204Y-73870389D01*
X110323764Y-73819814D01*
X110373259Y-73782763D01*
X110373259Y-73782761D01*
X110373261Y-73782761D01*
X110389880Y-73760559D01*
X110434346Y-73723398D01*
X110490747Y-73710069D01*
X110547147Y-73723396D01*
X110591616Y-73760560D01*
X110606738Y-73780761D01*
X110670509Y-73828499D01*
X110707672Y-73872967D01*
X110721000Y-73929367D01*
X110721000Y-74928275D01*
X110711409Y-74976493D01*
X110684095Y-75017370D01*
X107473361Y-78228101D01*
X107467821Y-78233317D01*
X107422947Y-78273073D01*
X107388900Y-78322398D01*
X107384393Y-78328524D01*
X107347415Y-78375725D01*
X107343350Y-78384758D01*
X107332152Y-78404612D01*
X107326519Y-78412772D01*
X107305257Y-78468834D01*
X107302346Y-78475861D01*
X107277748Y-78530517D01*
X107275962Y-78540262D01*
X107269843Y-78562216D01*
X107266327Y-78571488D01*
X107259101Y-78630998D01*
X107257956Y-78638521D01*
X107247150Y-78697484D01*
X107250770Y-78757316D01*
X107251000Y-78764924D01*
X107251000Y-90946977D01*
X107240206Y-90998003D01*
X107209673Y-91040286D01*
X107164633Y-91066581D01*
X107002262Y-91120385D01*
X106934261Y-91162328D01*
X106851345Y-91213472D01*
X106725972Y-91338845D01*
X106632885Y-91489762D01*
X106577113Y-91658073D01*
X106577112Y-91658075D01*
X106577113Y-91658075D01*
X106566500Y-91761956D01*
X106566500Y-92788044D01*
X106577113Y-92891925D01*
X106632885Y-93060238D01*
X106725970Y-93211151D01*
X106725972Y-93211154D01*
X106851345Y-93336527D01*
X106851347Y-93336528D01*
X106851349Y-93336530D01*
X107002262Y-93429615D01*
X107170575Y-93485387D01*
X107274456Y-93496000D01*
X108625540Y-93496000D01*
X108625544Y-93496000D01*
X108729425Y-93485387D01*
X108897738Y-93429615D01*
X109048651Y-93336530D01*
X109174030Y-93211151D01*
X109267115Y-93060238D01*
X109322887Y-92891925D01*
X109333500Y-92788044D01*
X109333500Y-91761956D01*
X109322887Y-91658075D01*
X109267115Y-91489762D01*
X109174030Y-91338849D01*
X109174028Y-91338847D01*
X109174027Y-91338845D01*
X109048654Y-91213472D01*
X109048651Y-91213470D01*
X108897738Y-91120385D01*
X108735366Y-91066581D01*
X108690327Y-91040286D01*
X108659794Y-90998003D01*
X108649000Y-90946977D01*
X108649000Y-79081726D01*
X108658591Y-79033508D01*
X108685905Y-78992631D01*
X109209702Y-78468834D01*
X111896643Y-75781890D01*
X111902148Y-75776707D01*
X111947052Y-75736927D01*
X111947053Y-75736925D01*
X111951448Y-75733032D01*
X112001900Y-75705771D01*
X112059209Y-75703694D01*
X112111503Y-75727230D01*
X112147950Y-75771504D01*
X112161000Y-75827346D01*
X112161000Y-91003308D01*
X112150207Y-91054331D01*
X112119677Y-91096612D01*
X112094109Y-91111541D01*
X112094796Y-91112654D01*
X112082262Y-91120384D01*
X112082262Y-91120385D01*
X112060121Y-91134041D01*
X111931345Y-91213472D01*
X111805972Y-91338845D01*
X111712885Y-91489762D01*
X111657113Y-91658073D01*
X111657112Y-91658075D01*
X111657113Y-91658075D01*
X111646500Y-91761956D01*
X111646500Y-92788044D01*
X111657113Y-92891925D01*
X111712885Y-93060238D01*
X111805970Y-93211151D01*
X111805972Y-93211154D01*
X111931345Y-93336527D01*
X111931347Y-93336528D01*
X111931349Y-93336530D01*
X112082262Y-93429615D01*
X112250575Y-93485387D01*
X112354456Y-93496000D01*
X113705540Y-93496000D01*
X113705544Y-93496000D01*
X113809425Y-93485387D01*
X113977738Y-93429615D01*
X114128651Y-93336530D01*
X114254030Y-93211151D01*
X114347115Y-93060238D01*
X114402887Y-92891925D01*
X114413500Y-92788044D01*
X114413500Y-91761956D01*
X114402887Y-91658075D01*
X114347115Y-91489762D01*
X114254030Y-91338849D01*
X114254028Y-91338847D01*
X114254027Y-91338845D01*
X114128654Y-91213472D01*
X114128651Y-91213470D01*
X113977738Y-91120385D01*
X113893581Y-91092498D01*
X113809426Y-91064613D01*
X113788648Y-91062490D01*
X113705544Y-91054000D01*
X113705540Y-91054000D01*
X113685000Y-91054000D01*
X113622000Y-91037119D01*
X113575881Y-90991000D01*
X113559000Y-90928000D01*
X113559000Y-74033156D01*
X113573352Y-73974755D01*
X113613139Y-73929657D01*
X113669296Y-73908138D01*
X113729031Y-73915100D01*
X113734394Y-73917100D01*
X113740799Y-73919489D01*
X113801362Y-73926000D01*
X114798638Y-73926000D01*
X114859201Y-73919489D01*
X114867318Y-73916461D01*
X114870969Y-73915100D01*
X114930704Y-73908138D01*
X114986861Y-73929657D01*
X115026648Y-73974755D01*
X115041000Y-74033156D01*
X115041000Y-75075076D01*
X115040770Y-75082684D01*
X115037150Y-75142515D01*
X115047956Y-75201477D01*
X115049101Y-75209001D01*
X115056326Y-75268508D01*
X115059840Y-75277773D01*
X115065961Y-75299732D01*
X115067748Y-75309483D01*
X115092350Y-75364148D01*
X115095261Y-75371176D01*
X115116518Y-75427224D01*
X115122148Y-75435380D01*
X115133352Y-75455246D01*
X115137415Y-75464274D01*
X115174382Y-75511461D01*
X115178890Y-75517587D01*
X115212947Y-75566926D01*
X115257821Y-75606681D01*
X115263362Y-75611898D01*
X117374095Y-77722630D01*
X117401409Y-77763507D01*
X117411000Y-77811725D01*
X117411000Y-90946977D01*
X117400206Y-90998003D01*
X117369673Y-91040286D01*
X117324633Y-91066581D01*
X117162262Y-91120385D01*
X117094261Y-91162328D01*
X117011345Y-91213472D01*
X116885972Y-91338845D01*
X116792885Y-91489762D01*
X116737113Y-91658073D01*
X116737112Y-91658075D01*
X116737113Y-91658075D01*
X116726500Y-91761956D01*
X116726500Y-92788044D01*
X116737113Y-92891925D01*
X116792885Y-93060238D01*
X116885970Y-93211151D01*
X116885972Y-93211154D01*
X117011345Y-93336527D01*
X117011347Y-93336528D01*
X117011349Y-93336530D01*
X117162262Y-93429615D01*
X117330575Y-93485387D01*
X117434456Y-93496000D01*
X118785540Y-93496000D01*
X118785544Y-93496000D01*
X118889425Y-93485387D01*
X119057738Y-93429615D01*
X119208651Y-93336530D01*
X119334030Y-93211151D01*
X119427115Y-93060238D01*
X119482887Y-92891925D01*
X119493500Y-92788044D01*
X119493500Y-91761956D01*
X119482887Y-91658075D01*
X119427115Y-91489762D01*
X119334030Y-91338849D01*
X119334028Y-91338847D01*
X119334027Y-91338845D01*
X119208654Y-91213472D01*
X119208651Y-91213470D01*
X119057738Y-91120385D01*
X118895366Y-91066581D01*
X118850327Y-91040286D01*
X118819794Y-90998003D01*
X118809000Y-90946977D01*
X118809000Y-77556726D01*
X118822733Y-77499523D01*
X118860939Y-77454790D01*
X118915289Y-77432277D01*
X118973936Y-77436893D01*
X119024095Y-77467631D01*
X122454095Y-80897630D01*
X122481409Y-80938507D01*
X122491000Y-80986725D01*
X122491000Y-90946977D01*
X122480206Y-90998003D01*
X122449673Y-91040286D01*
X122404633Y-91066581D01*
X122242262Y-91120385D01*
X122174261Y-91162328D01*
X122091345Y-91213472D01*
X121965972Y-91338845D01*
X121872885Y-91489762D01*
X121817113Y-91658073D01*
X121817112Y-91658075D01*
X121817113Y-91658075D01*
X121806500Y-91761956D01*
X121806500Y-92788044D01*
X121817113Y-92891925D01*
X121872885Y-93060238D01*
X121965970Y-93211151D01*
X121965972Y-93211154D01*
X122091345Y-93336527D01*
X122091347Y-93336528D01*
X122091349Y-93336530D01*
X122242262Y-93429615D01*
X122410575Y-93485387D01*
X122514456Y-93496000D01*
X123865540Y-93496000D01*
X123865544Y-93496000D01*
X123969425Y-93485387D01*
X124137738Y-93429615D01*
X124288651Y-93336530D01*
X124414030Y-93211151D01*
X124507115Y-93060238D01*
X124562887Y-92891925D01*
X124573500Y-92788044D01*
X124573500Y-91761956D01*
X124562887Y-91658075D01*
X124507115Y-91489762D01*
X124414030Y-91338849D01*
X124414028Y-91338847D01*
X124414027Y-91338845D01*
X124288654Y-91213472D01*
X124288651Y-91213470D01*
X124137738Y-91120385D01*
X123975366Y-91066581D01*
X123930327Y-91040286D01*
X123899794Y-90998003D01*
X123889000Y-90946977D01*
X123889000Y-80669923D01*
X123889230Y-80662315D01*
X123892849Y-80602487D01*
X123892849Y-80602485D01*
X123882035Y-80543483D01*
X123880902Y-80536039D01*
X123873673Y-80476490D01*
X123870159Y-80467224D01*
X123864037Y-80445265D01*
X123862251Y-80435517D01*
X123837645Y-80380846D01*
X123834736Y-80373821D01*
X123813481Y-80317776D01*
X123813480Y-80317773D01*
X123807848Y-80309614D01*
X123796646Y-80289751D01*
X123792584Y-80280725D01*
X123792582Y-80280722D01*
X123792581Y-80280720D01*
X123755612Y-80233533D01*
X123751118Y-80227427D01*
X123717052Y-80178073D01*
X123672168Y-80138309D01*
X123666627Y-80133092D01*
X119480905Y-75947369D01*
X119453591Y-75906492D01*
X119444000Y-75858274D01*
X119444000Y-75173500D01*
X120537000Y-75173500D01*
X120537000Y-75370003D01*
X120547606Y-75473828D01*
X120603340Y-75642022D01*
X120696367Y-75792842D01*
X120821657Y-75918132D01*
X120972477Y-76011159D01*
X121140671Y-76066893D01*
X121244497Y-76077500D01*
X121666000Y-76077500D01*
X121666000Y-75173500D01*
X122174000Y-75173500D01*
X122174000Y-76077500D01*
X122595503Y-76077500D01*
X122699328Y-76066893D01*
X122867522Y-76011159D01*
X123018342Y-75918132D01*
X123143632Y-75792842D01*
X123236659Y-75642022D01*
X123292393Y-75473828D01*
X123303000Y-75370003D01*
X123303000Y-75173500D01*
X122174000Y-75173500D01*
X121666000Y-75173500D01*
X120537000Y-75173500D01*
X119444000Y-75173500D01*
X119444000Y-74665500D01*
X120537000Y-74665500D01*
X121666000Y-74665500D01*
X121666000Y-73761500D01*
X122174000Y-73761500D01*
X122174000Y-74665500D01*
X123303000Y-74665500D01*
X123303000Y-74468997D01*
X123292393Y-74365171D01*
X123236659Y-74196977D01*
X123143632Y-74046157D01*
X123018342Y-73920867D01*
X122867522Y-73827840D01*
X122699328Y-73772106D01*
X122595503Y-73761500D01*
X122174000Y-73761500D01*
X121666000Y-73761500D01*
X121244497Y-73761500D01*
X121140671Y-73772106D01*
X120972477Y-73827840D01*
X120821657Y-73920867D01*
X120696367Y-74046157D01*
X120603340Y-74196977D01*
X120547606Y-74365171D01*
X120537000Y-74468997D01*
X120537000Y-74665500D01*
X119444000Y-74665500D01*
X119444000Y-69767357D01*
X119459269Y-69707235D01*
X119501376Y-69661684D01*
X119560114Y-69641745D01*
X119621246Y-69652249D01*
X119756346Y-69712400D01*
X119926184Y-69748500D01*
X120099814Y-69748500D01*
X120099816Y-69748500D01*
X120269654Y-69712400D01*
X120402916Y-69653067D01*
X120457960Y-69642231D01*
X120512254Y-69656364D01*
X120555031Y-69692665D01*
X120642795Y-69809904D01*
X120759737Y-69897445D01*
X120896606Y-69948494D01*
X120957111Y-69955000D01*
X121600700Y-69955000D01*
X121600700Y-69446500D01*
X121617581Y-69383500D01*
X121663700Y-69337381D01*
X121726700Y-69320500D01*
X121884700Y-69320500D01*
X121947700Y-69337381D01*
X121993819Y-69383500D01*
X122010700Y-69446500D01*
X122010700Y-69955000D01*
X122363000Y-69955000D01*
X122426000Y-69971881D01*
X122472119Y-70018000D01*
X122489000Y-70081000D01*
X122489000Y-70231773D01*
X122479409Y-70279991D01*
X122452095Y-70320869D01*
X122148867Y-70624096D01*
X122107990Y-70651409D01*
X122059772Y-70661000D01*
X121244459Y-70661000D01*
X121140573Y-70671613D01*
X120972262Y-70727385D01*
X120821344Y-70820472D01*
X120695972Y-70945844D01*
X120668059Y-70991098D01*
X120602885Y-71096762D01*
X120547113Y-71265074D01*
X120538424Y-71350130D01*
X120536500Y-71368959D01*
X120536500Y-72270040D01*
X120536501Y-72270045D01*
X120547113Y-72373926D01*
X120602885Y-72542238D01*
X120695970Y-72693152D01*
X120695972Y-72693155D01*
X120821344Y-72818527D01*
X120821346Y-72818528D01*
X120821348Y-72818530D01*
X120972262Y-72911615D01*
X121140574Y-72967387D01*
X121244455Y-72978000D01*
X122595544Y-72977999D01*
X122699426Y-72967387D01*
X122867738Y-72911615D01*
X123018652Y-72818530D01*
X123144030Y-72693152D01*
X123237115Y-72542238D01*
X123292887Y-72373926D01*
X123303500Y-72270045D01*
X123303499Y-71498724D01*
X123313090Y-71450507D01*
X123340401Y-71409633D01*
X123664652Y-71085382D01*
X123670178Y-71080181D01*
X123679681Y-71071762D01*
X123715052Y-71040427D01*
X123749112Y-70991080D01*
X123753603Y-70984977D01*
X123790585Y-70937775D01*
X123794651Y-70928738D01*
X123805854Y-70908876D01*
X123811480Y-70900727D01*
X123832742Y-70844662D01*
X123835632Y-70837684D01*
X123860252Y-70782982D01*
X123862038Y-70773233D01*
X123868160Y-70751272D01*
X123871673Y-70742010D01*
X123878903Y-70682464D01*
X123880034Y-70675032D01*
X123890850Y-70616015D01*
X123887230Y-70556168D01*
X123887000Y-70548560D01*
X123887000Y-70490382D01*
X123899752Y-70435147D01*
X123935427Y-70391092D01*
X123986800Y-70367136D01*
X124079654Y-70347400D01*
X124216751Y-70286359D01*
X124277886Y-70275855D01*
X124336624Y-70295794D01*
X124378731Y-70341345D01*
X124394000Y-70401467D01*
X124394000Y-79348076D01*
X124393770Y-79355684D01*
X124390150Y-79415515D01*
X124400956Y-79474477D01*
X124402101Y-79482001D01*
X124409326Y-79541508D01*
X124412840Y-79550773D01*
X124418961Y-79572732D01*
X124420748Y-79582483D01*
X124445350Y-79637148D01*
X124448261Y-79644176D01*
X124469518Y-79700224D01*
X124475148Y-79708380D01*
X124486352Y-79728246D01*
X124490415Y-79737274D01*
X124527382Y-79784461D01*
X124531890Y-79790587D01*
X124565947Y-79839926D01*
X124610821Y-79879681D01*
X124616362Y-79884898D01*
X127534095Y-82802630D01*
X127561409Y-82843507D01*
X127571000Y-82891725D01*
X127571000Y-90946977D01*
X127560206Y-90998003D01*
X127529673Y-91040286D01*
X127484633Y-91066581D01*
X127322262Y-91120385D01*
X127254261Y-91162328D01*
X127171345Y-91213472D01*
X127045972Y-91338845D01*
X126952885Y-91489762D01*
X126897113Y-91658073D01*
X126897112Y-91658075D01*
X126897113Y-91658075D01*
X126886500Y-91761956D01*
X126886500Y-92788044D01*
X126897113Y-92891925D01*
X126952885Y-93060238D01*
X127045970Y-93211151D01*
X127045972Y-93211154D01*
X127171345Y-93336527D01*
X127171347Y-93336528D01*
X127171349Y-93336530D01*
X127322262Y-93429615D01*
X127490575Y-93485387D01*
X127594456Y-93496000D01*
X128945540Y-93496000D01*
X128945544Y-93496000D01*
X129049425Y-93485387D01*
X129217738Y-93429615D01*
X129368651Y-93336530D01*
X129494030Y-93211151D01*
X129587115Y-93060238D01*
X129642887Y-92891925D01*
X129653500Y-92788044D01*
X129653500Y-91761956D01*
X129642887Y-91658075D01*
X129587115Y-91489762D01*
X129494030Y-91338849D01*
X129494028Y-91338847D01*
X129494027Y-91338845D01*
X129368654Y-91213472D01*
X129368651Y-91213470D01*
X129217738Y-91120385D01*
X129055366Y-91066581D01*
X129010327Y-91040286D01*
X128979794Y-90998003D01*
X128969000Y-90946977D01*
X128969000Y-88319814D01*
X138999395Y-88319814D01*
X139062573Y-88364052D01*
X139263975Y-88457968D01*
X139478623Y-88515482D01*
X139700000Y-88534850D01*
X139921376Y-88515482D01*
X140136024Y-88457968D01*
X140337427Y-88364052D01*
X140400603Y-88319814D01*
X140400603Y-88319812D01*
X139700001Y-87619210D01*
X139700000Y-87619210D01*
X138999395Y-88319813D01*
X138999395Y-88319814D01*
X128969000Y-88319814D01*
X128969000Y-87259999D01*
X138425149Y-87259999D01*
X138444517Y-87481376D01*
X138502031Y-87696024D01*
X138595947Y-87897426D01*
X138640184Y-87960603D01*
X138640185Y-87960603D01*
X139340789Y-87260001D01*
X140059210Y-87260001D01*
X140759812Y-87960603D01*
X140759814Y-87960603D01*
X140804052Y-87897427D01*
X140897968Y-87696024D01*
X140955482Y-87481376D01*
X140974850Y-87260000D01*
X143424647Y-87260000D01*
X143444022Y-87481467D01*
X143480931Y-87619210D01*
X143501560Y-87696196D01*
X143562609Y-87827117D01*
X143595512Y-87897678D01*
X143723025Y-88079784D01*
X143880217Y-88236976D01*
X143947270Y-88283927D01*
X143986763Y-88328960D01*
X144001000Y-88387140D01*
X144001000Y-93875076D01*
X144000770Y-93882684D01*
X143997150Y-93942515D01*
X144007956Y-94001477D01*
X144009101Y-94009001D01*
X144016326Y-94068508D01*
X144019840Y-94077773D01*
X144025961Y-94099732D01*
X144027748Y-94109483D01*
X144052350Y-94164148D01*
X144055261Y-94171176D01*
X144076518Y-94227224D01*
X144082148Y-94235380D01*
X144093352Y-94255246D01*
X144097415Y-94264274D01*
X144134382Y-94311461D01*
X144138890Y-94317587D01*
X144172947Y-94366926D01*
X144217812Y-94406673D01*
X144223353Y-94411889D01*
X144548424Y-94736960D01*
X144854595Y-95043130D01*
X144881909Y-95084008D01*
X144891500Y-95132226D01*
X144891500Y-95925540D01*
X144896355Y-95973064D01*
X144902113Y-96029426D01*
X144957885Y-96197738D01*
X145013622Y-96288101D01*
X145050972Y-96348655D01*
X145176344Y-96474027D01*
X145176346Y-96474028D01*
X145176348Y-96474030D01*
X145327262Y-96567115D01*
X145495574Y-96622887D01*
X145599455Y-96633500D01*
X146500544Y-96633499D01*
X146604426Y-96622887D01*
X146772738Y-96567115D01*
X146923652Y-96474030D01*
X147049030Y-96348652D01*
X147142115Y-96197738D01*
X147197887Y-96029426D01*
X147208500Y-95925545D01*
X147208500Y-95925540D01*
X147991500Y-95925540D01*
X147996355Y-95973064D01*
X148002113Y-96029426D01*
X148057885Y-96197738D01*
X148113622Y-96288101D01*
X148150972Y-96348655D01*
X148276344Y-96474027D01*
X148276346Y-96474028D01*
X148276348Y-96474030D01*
X148427262Y-96567115D01*
X148595574Y-96622887D01*
X148699455Y-96633500D01*
X149600544Y-96633499D01*
X149704426Y-96622887D01*
X149872738Y-96567115D01*
X150023652Y-96474030D01*
X150149030Y-96348652D01*
X150242115Y-96197738D01*
X150295918Y-96035365D01*
X150322214Y-95990327D01*
X150364497Y-95959794D01*
X150415523Y-95949000D01*
X151775519Y-95949000D01*
X151814455Y-95955167D01*
X151849580Y-95973064D01*
X151943248Y-96041118D01*
X152117712Y-96118794D01*
X152304513Y-96158500D01*
X152495485Y-96158500D01*
X152495487Y-96158500D01*
X152682288Y-96118794D01*
X152856752Y-96041118D01*
X153011253Y-95928866D01*
X153139040Y-95786944D01*
X153234527Y-95621556D01*
X153293542Y-95439928D01*
X153313504Y-95250000D01*
X153293542Y-95060072D01*
X153234527Y-94878444D01*
X153234527Y-94878443D01*
X153139041Y-94713057D01*
X153011252Y-94571133D01*
X152934002Y-94515007D01*
X152856752Y-94458882D01*
X152682288Y-94381206D01*
X152495487Y-94341500D01*
X152304513Y-94341500D01*
X152184894Y-94366926D01*
X152117711Y-94381206D01*
X151943246Y-94458883D01*
X151849580Y-94526936D01*
X151814455Y-94544833D01*
X151775519Y-94551000D01*
X150415523Y-94551000D01*
X150364497Y-94540206D01*
X150322214Y-94509673D01*
X150295918Y-94464633D01*
X150294013Y-94458883D01*
X150242115Y-94302262D01*
X150149030Y-94151348D01*
X150149028Y-94151346D01*
X150149027Y-94151344D01*
X150023655Y-94025972D01*
X149990011Y-94005220D01*
X149872738Y-93932885D01*
X149704426Y-93877113D01*
X149600545Y-93866500D01*
X149600540Y-93866500D01*
X148699459Y-93866500D01*
X148595573Y-93877113D01*
X148427262Y-93932885D01*
X148276344Y-94025972D01*
X148150972Y-94151344D01*
X148118509Y-94203975D01*
X148057885Y-94302262D01*
X148002113Y-94470574D01*
X147991840Y-94571134D01*
X147991500Y-94574459D01*
X147991500Y-95925540D01*
X147208500Y-95925540D01*
X147208499Y-94574456D01*
X147197887Y-94470574D01*
X147142115Y-94302262D01*
X147049030Y-94151348D01*
X147049028Y-94151346D01*
X147049027Y-94151344D01*
X146923655Y-94025972D01*
X146890011Y-94005220D01*
X146772738Y-93932885D01*
X146604426Y-93877113D01*
X146500545Y-93866500D01*
X146500541Y-93866500D01*
X145707226Y-93866500D01*
X145659008Y-93856909D01*
X145618131Y-93829595D01*
X145435905Y-93647369D01*
X145408591Y-93606492D01*
X145399000Y-93558274D01*
X145399000Y-88387140D01*
X145413237Y-88328960D01*
X145452730Y-88283927D01*
X145519782Y-88236976D01*
X145676974Y-88079784D01*
X145676977Y-88079781D01*
X145804488Y-87897677D01*
X145898440Y-87696196D01*
X145955978Y-87481463D01*
X145975353Y-87260000D01*
X145955978Y-87038537D01*
X145898440Y-86823804D01*
X145804488Y-86622324D01*
X145676977Y-86440219D01*
X145676976Y-86440218D01*
X145676974Y-86440215D01*
X145519784Y-86283025D01*
X145337678Y-86155512D01*
X145267117Y-86122609D01*
X145136196Y-86061560D01*
X145122709Y-86057946D01*
X144921467Y-86004022D01*
X144700000Y-85984647D01*
X144478532Y-86004022D01*
X144263807Y-86061559D01*
X144263806Y-86061559D01*
X144263804Y-86061560D01*
X144203442Y-86089707D01*
X144062322Y-86155512D01*
X143880215Y-86283025D01*
X143723025Y-86440215D01*
X143595512Y-86622322D01*
X143501559Y-86823807D01*
X143444022Y-87038532D01*
X143424647Y-87260000D01*
X140974850Y-87260000D01*
X140974850Y-87259999D01*
X140955482Y-87038623D01*
X140897968Y-86823975D01*
X140804051Y-86622571D01*
X140759815Y-86559395D01*
X140759813Y-86559395D01*
X140059210Y-87260000D01*
X140059210Y-87260001D01*
X139340789Y-87260001D01*
X139340790Y-87260000D01*
X139340790Y-87259999D01*
X138640185Y-86559394D01*
X138595948Y-86622572D01*
X138502031Y-86823975D01*
X138444517Y-87038623D01*
X138425149Y-87259999D01*
X128969000Y-87259999D01*
X128969000Y-86200185D01*
X138999394Y-86200185D01*
X139699999Y-86900790D01*
X139700000Y-86900790D01*
X140400603Y-86200185D01*
X140400603Y-86200184D01*
X140337426Y-86155947D01*
X140136024Y-86062031D01*
X139921376Y-86004517D01*
X139700000Y-85985149D01*
X139478623Y-86004517D01*
X139263975Y-86062031D01*
X139062572Y-86155948D01*
X138999394Y-86200185D01*
X128969000Y-86200185D01*
X128969000Y-82574923D01*
X128969230Y-82567315D01*
X128972849Y-82507487D01*
X128972849Y-82507485D01*
X128962035Y-82448483D01*
X128960902Y-82441039D01*
X128953673Y-82381490D01*
X128950159Y-82372224D01*
X128944037Y-82350265D01*
X128942251Y-82340517D01*
X128917633Y-82285819D01*
X128914737Y-82278824D01*
X128893480Y-82222772D01*
X128887852Y-82214619D01*
X128876651Y-82194761D01*
X128876294Y-82193967D01*
X128872584Y-82185724D01*
X128835616Y-82138539D01*
X128831106Y-82132409D01*
X128797053Y-82083074D01*
X128752169Y-82043310D01*
X128746627Y-82038092D01*
X127088485Y-80379949D01*
X133641500Y-80379949D01*
X133656482Y-80589433D01*
X133684579Y-80718591D01*
X133716033Y-80863183D01*
X133813935Y-81125669D01*
X133925556Y-81330087D01*
X133948197Y-81371552D01*
X134116084Y-81595823D01*
X134314176Y-81793915D01*
X134314179Y-81793917D01*
X134538450Y-81961804D01*
X134784331Y-82096065D01*
X135046817Y-82193967D01*
X135320564Y-82253517D01*
X135600000Y-82273503D01*
X135879436Y-82253517D01*
X136153183Y-82193967D01*
X136415669Y-82096065D01*
X136661550Y-81961804D01*
X136885821Y-81793917D01*
X137083917Y-81595821D01*
X137251804Y-81371550D01*
X137386065Y-81125669D01*
X137483967Y-80863183D01*
X137543517Y-80589436D01*
X137558500Y-80379950D01*
X137558500Y-80379949D01*
X146841500Y-80379949D01*
X146856482Y-80589433D01*
X146884579Y-80718591D01*
X146916033Y-80863183D01*
X147013935Y-81125669D01*
X147125556Y-81330087D01*
X147148197Y-81371552D01*
X147316084Y-81595823D01*
X147514176Y-81793915D01*
X147514179Y-81793917D01*
X147738450Y-81961804D01*
X147984331Y-82096065D01*
X148246817Y-82193967D01*
X148520564Y-82253517D01*
X148800000Y-82273503D01*
X149079436Y-82253517D01*
X149353183Y-82193967D01*
X149615669Y-82096065D01*
X149861550Y-81961804D01*
X150085821Y-81793917D01*
X150283917Y-81595821D01*
X150451804Y-81371550D01*
X150586065Y-81125669D01*
X150683967Y-80863183D01*
X150743517Y-80589436D01*
X150758500Y-80379950D01*
X150758500Y-80140050D01*
X150743517Y-79930564D01*
X150683967Y-79656817D01*
X150586065Y-79394331D01*
X150451804Y-79148450D01*
X150423843Y-79111099D01*
X150283915Y-78924176D01*
X150085823Y-78726084D01*
X149861552Y-78558197D01*
X149771447Y-78508996D01*
X149615669Y-78423935D01*
X149353183Y-78326033D01*
X149247769Y-78303101D01*
X149079433Y-78266482D01*
X148800000Y-78246496D01*
X148520566Y-78266482D01*
X148263527Y-78322398D01*
X148246817Y-78326033D01*
X147984331Y-78423935D01*
X147984329Y-78423935D01*
X147984329Y-78423936D01*
X147738447Y-78558197D01*
X147514176Y-78726084D01*
X147316084Y-78924176D01*
X147148197Y-79148447D01*
X147013936Y-79394329D01*
X146916033Y-79656817D01*
X146856482Y-79930566D01*
X146842654Y-80123913D01*
X146841805Y-80135793D01*
X146841500Y-80140051D01*
X146841500Y-80379949D01*
X137558500Y-80379949D01*
X137558500Y-80140050D01*
X137543517Y-79930564D01*
X137483967Y-79656817D01*
X137386065Y-79394331D01*
X137251804Y-79148450D01*
X137223843Y-79111099D01*
X137083915Y-78924176D01*
X136885823Y-78726084D01*
X136661552Y-78558197D01*
X136571447Y-78508996D01*
X136415669Y-78423935D01*
X136153183Y-78326033D01*
X136047769Y-78303101D01*
X135879433Y-78266482D01*
X135600000Y-78246496D01*
X135320566Y-78266482D01*
X135063527Y-78322398D01*
X135046817Y-78326033D01*
X134784331Y-78423935D01*
X134784329Y-78423935D01*
X134784329Y-78423936D01*
X134538447Y-78558197D01*
X134314176Y-78726084D01*
X134116084Y-78924176D01*
X133948197Y-79148447D01*
X133813936Y-79394329D01*
X133716033Y-79656817D01*
X133656482Y-79930566D01*
X133642654Y-80123913D01*
X133641805Y-80135793D01*
X133641500Y-80140051D01*
X133641500Y-80379949D01*
X127088485Y-80379949D01*
X125828905Y-79120369D01*
X125801591Y-79079492D01*
X125792000Y-79031274D01*
X125792000Y-75186000D01*
X126862000Y-75186000D01*
X126862000Y-75395003D01*
X126872606Y-75498828D01*
X126928340Y-75667022D01*
X127021367Y-75817842D01*
X127146657Y-75943132D01*
X127297477Y-76036159D01*
X127465671Y-76091893D01*
X127569497Y-76102500D01*
X128016000Y-76102500D01*
X128016000Y-75186000D01*
X128524000Y-75186000D01*
X128524000Y-76102500D01*
X128970503Y-76102500D01*
X129074328Y-76091893D01*
X129242522Y-76036159D01*
X129393342Y-75943132D01*
X129518632Y-75817842D01*
X129611659Y-75667022D01*
X129667393Y-75498828D01*
X129678000Y-75395003D01*
X129678000Y-75186000D01*
X128524000Y-75186000D01*
X128016000Y-75186000D01*
X126862000Y-75186000D01*
X125792000Y-75186000D01*
X125792000Y-74678000D01*
X126862000Y-74678000D01*
X128016000Y-74678000D01*
X128016000Y-73761500D01*
X128524000Y-73761500D01*
X128524000Y-74678000D01*
X129678000Y-74678000D01*
X129678000Y-74468997D01*
X129667393Y-74365171D01*
X129611659Y-74196977D01*
X129518632Y-74046157D01*
X129393342Y-73920867D01*
X129242522Y-73827840D01*
X129074328Y-73772106D01*
X128970503Y-73761500D01*
X128524000Y-73761500D01*
X128016000Y-73761500D01*
X127569497Y-73761500D01*
X127465671Y-73772106D01*
X127297477Y-73827840D01*
X127146657Y-73920867D01*
X127021367Y-74046157D01*
X126928340Y-74196977D01*
X126872606Y-74365171D01*
X126862000Y-74468997D01*
X126862000Y-74678000D01*
X125792000Y-74678000D01*
X125792000Y-69942923D01*
X125810803Y-69876705D01*
X125861600Y-69830251D01*
X125929230Y-69817424D01*
X125993509Y-69842055D01*
X126068094Y-69897888D01*
X126068095Y-69897888D01*
X126068096Y-69897889D01*
X126205099Y-69948989D01*
X126265662Y-69955500D01*
X126289300Y-69955500D01*
X126352300Y-69972381D01*
X126398419Y-70018500D01*
X126415300Y-70081500D01*
X126415300Y-70626376D01*
X126415070Y-70633984D01*
X126411450Y-70693815D01*
X126422256Y-70752777D01*
X126423401Y-70760301D01*
X126430626Y-70819808D01*
X126434140Y-70829073D01*
X126440261Y-70851032D01*
X126442048Y-70860783D01*
X126466650Y-70915448D01*
X126469561Y-70922476D01*
X126490818Y-70978524D01*
X126496448Y-70986680D01*
X126507652Y-71006546D01*
X126511715Y-71015574D01*
X126548681Y-71062759D01*
X126553191Y-71068888D01*
X126587248Y-71118228D01*
X126632122Y-71157982D01*
X126637665Y-71163200D01*
X126824595Y-71350130D01*
X126851909Y-71391007D01*
X126861500Y-71439225D01*
X126861500Y-72270040D01*
X126861501Y-72270045D01*
X126872113Y-72373926D01*
X126927885Y-72542238D01*
X127020970Y-72693152D01*
X127020972Y-72693155D01*
X127146344Y-72818527D01*
X127146346Y-72818528D01*
X127146348Y-72818530D01*
X127297262Y-72911615D01*
X127465574Y-72967387D01*
X127569455Y-72978000D01*
X128970544Y-72977999D01*
X129074426Y-72967387D01*
X129242738Y-72911615D01*
X129393652Y-72818530D01*
X129452182Y-72760000D01*
X138424647Y-72760000D01*
X138444022Y-72981467D01*
X138480931Y-73119210D01*
X138501560Y-73196196D01*
X138529995Y-73257175D01*
X138595512Y-73397678D01*
X138723025Y-73579784D01*
X138880215Y-73736974D01*
X138880218Y-73736976D01*
X138880219Y-73736977D01*
X138930388Y-73772106D01*
X139062321Y-73864487D01*
X139062322Y-73864487D01*
X139062323Y-73864488D01*
X139263804Y-73958440D01*
X139414739Y-73998883D01*
X139478532Y-74015977D01*
X139478533Y-74015977D01*
X139478537Y-74015978D01*
X139700000Y-74035353D01*
X139921463Y-74015978D01*
X140136196Y-73958440D01*
X140337677Y-73864488D01*
X140401478Y-73819814D01*
X141499395Y-73819814D01*
X141562573Y-73864052D01*
X141763975Y-73957968D01*
X141978623Y-74015482D01*
X142200000Y-74034850D01*
X142421376Y-74015482D01*
X142636024Y-73957968D01*
X142837427Y-73864052D01*
X142900603Y-73819814D01*
X142900603Y-73819812D01*
X142200001Y-73119210D01*
X142200000Y-73119210D01*
X141499395Y-73819813D01*
X141499395Y-73819814D01*
X140401478Y-73819814D01*
X140519781Y-73736977D01*
X140676977Y-73579781D01*
X140804488Y-73397677D01*
X140836081Y-73329924D01*
X140882574Y-73276908D01*
X140950274Y-73257175D01*
X141017974Y-73276907D01*
X141064469Y-73329924D01*
X141095945Y-73397424D01*
X141140184Y-73460603D01*
X141140185Y-73460603D01*
X141840789Y-72760001D01*
X142559210Y-72760001D01*
X143259812Y-73460603D01*
X143259814Y-73460603D01*
X143304052Y-73397427D01*
X143335529Y-73329925D01*
X143382024Y-73276908D01*
X143449724Y-73257175D01*
X143517424Y-73276908D01*
X143563919Y-73329925D01*
X143595512Y-73397678D01*
X143723025Y-73579784D01*
X143880215Y-73736974D01*
X143880218Y-73736976D01*
X143880219Y-73736977D01*
X143930388Y-73772106D01*
X144062321Y-73864487D01*
X144062322Y-73864487D01*
X144062323Y-73864488D01*
X144263804Y-73958440D01*
X144414739Y-73998883D01*
X144478532Y-74015977D01*
X144478533Y-74015977D01*
X144478537Y-74015978D01*
X144700000Y-74035353D01*
X144921463Y-74015978D01*
X145136196Y-73958440D01*
X145337677Y-73864488D01*
X145519781Y-73736977D01*
X145676977Y-73579781D01*
X145804488Y-73397677D01*
X145898440Y-73196196D01*
X145955978Y-72981463D01*
X145975353Y-72760000D01*
X145955978Y-72538537D01*
X145898440Y-72323804D01*
X145804488Y-72122324D01*
X145676977Y-71940219D01*
X145676976Y-71940218D01*
X145676974Y-71940215D01*
X145519782Y-71783023D01*
X145452730Y-71736073D01*
X145413237Y-71691040D01*
X145399000Y-71632860D01*
X145399000Y-68654780D01*
X145407369Y-68609625D01*
X145431364Y-68570469D01*
X145439040Y-68561944D01*
X145534527Y-68396556D01*
X145593542Y-68214928D01*
X145598123Y-68171330D01*
X145618975Y-68114042D01*
X145664280Y-68073248D01*
X145723434Y-68058499D01*
X146500540Y-68058499D01*
X146500544Y-68058499D01*
X146604426Y-68047887D01*
X146772738Y-67992115D01*
X146923652Y-67899030D01*
X147049030Y-67773652D01*
X147142115Y-67622738D01*
X147197887Y-67454426D01*
X147208500Y-67350545D01*
X147208500Y-67350540D01*
X147991500Y-67350540D01*
X147993224Y-67367414D01*
X148002113Y-67454426D01*
X148057885Y-67622738D01*
X148139510Y-67755072D01*
X148150972Y-67773655D01*
X148276344Y-67899027D01*
X148276346Y-67899028D01*
X148276348Y-67899030D01*
X148427262Y-67992115D01*
X148595574Y-68047887D01*
X148699455Y-68058500D01*
X149600544Y-68058499D01*
X149704426Y-68047887D01*
X149872738Y-67992115D01*
X150023652Y-67899030D01*
X150149030Y-67773652D01*
X150242115Y-67622738D01*
X150297887Y-67454426D01*
X150308500Y-67350545D01*
X150308499Y-65999456D01*
X150297887Y-65895574D01*
X150242115Y-65727262D01*
X150149030Y-65576348D01*
X150149028Y-65576346D01*
X150149027Y-65576344D01*
X150023655Y-65450972D01*
X150013859Y-65444930D01*
X149908853Y-65380161D01*
X149864976Y-65334326D01*
X149849000Y-65272920D01*
X149849000Y-64960000D01*
X149865881Y-64897000D01*
X149912000Y-64850881D01*
X149975000Y-64834000D01*
X151775519Y-64834000D01*
X151814455Y-64840167D01*
X151849580Y-64858064D01*
X151943248Y-64926118D01*
X152117712Y-65003794D01*
X152304513Y-65043500D01*
X152495485Y-65043500D01*
X152495487Y-65043500D01*
X152682288Y-65003794D01*
X152856752Y-64926118D01*
X153011253Y-64813866D01*
X153139040Y-64671944D01*
X153234527Y-64506556D01*
X153293542Y-64324928D01*
X153313504Y-64135000D01*
X153293542Y-63945072D01*
X153234527Y-63763444D01*
X153234527Y-63763443D01*
X153139041Y-63598057D01*
X153011252Y-63456133D01*
X152870199Y-63353652D01*
X152856752Y-63343882D01*
X152682288Y-63266206D01*
X152495487Y-63226500D01*
X152304513Y-63226500D01*
X152179979Y-63252970D01*
X152117711Y-63266206D01*
X151977696Y-63328544D01*
X151962724Y-63335211D01*
X151943246Y-63343883D01*
X151849580Y-63411936D01*
X151814455Y-63429833D01*
X151775519Y-63436000D01*
X149975000Y-63436000D01*
X149912000Y-63419119D01*
X149865881Y-63373000D01*
X149849000Y-63310000D01*
X149849000Y-62997080D01*
X149864976Y-62935674D01*
X149908853Y-62889839D01*
X149911762Y-62888044D01*
X150023652Y-62819030D01*
X150149030Y-62693652D01*
X150242115Y-62542738D01*
X150297887Y-62374426D01*
X150308500Y-62270545D01*
X150308499Y-60919456D01*
X150297887Y-60815574D01*
X150242115Y-60647262D01*
X150149030Y-60496348D01*
X150149028Y-60496346D01*
X150149027Y-60496344D01*
X150023655Y-60370972D01*
X149953873Y-60327930D01*
X149872738Y-60277885D01*
X149704426Y-60222113D01*
X149600545Y-60211500D01*
X149600540Y-60211500D01*
X148699459Y-60211500D01*
X148595573Y-60222113D01*
X148427262Y-60277885D01*
X148276344Y-60370972D01*
X148150972Y-60496344D01*
X148142365Y-60510299D01*
X148057885Y-60647262D01*
X148002113Y-60815574D01*
X147994726Y-60887885D01*
X147991500Y-60919459D01*
X147991500Y-62270540D01*
X148001570Y-62369107D01*
X148002113Y-62374426D01*
X148057885Y-62542738D01*
X148150970Y-62693652D01*
X148150972Y-62693655D01*
X148276344Y-62819027D01*
X148276346Y-62819028D01*
X148276348Y-62819030D01*
X148342414Y-62859780D01*
X148391147Y-62889839D01*
X148435024Y-62935674D01*
X148451000Y-62997080D01*
X148451000Y-65272920D01*
X148435024Y-65334326D01*
X148391147Y-65380161D01*
X148276344Y-65450972D01*
X148150972Y-65576344D01*
X148118941Y-65628275D01*
X148057885Y-65727262D01*
X148002113Y-65895574D01*
X147992514Y-65989537D01*
X147991500Y-65999459D01*
X147991500Y-67350540D01*
X147208500Y-67350540D01*
X147208499Y-65999456D01*
X147197887Y-65895574D01*
X147142115Y-65727262D01*
X147049030Y-65576348D01*
X147049028Y-65576346D01*
X147049027Y-65576344D01*
X146923655Y-65450972D01*
X146922590Y-65450315D01*
X146772738Y-65357885D01*
X146604426Y-65302113D01*
X146500545Y-65291500D01*
X146500540Y-65291500D01*
X145599459Y-65291500D01*
X145495573Y-65302113D01*
X145327262Y-65357885D01*
X145176344Y-65450972D01*
X145050972Y-65576344D01*
X145018941Y-65628275D01*
X144957885Y-65727262D01*
X144902113Y-65895574D01*
X144892514Y-65989537D01*
X144891500Y-65999459D01*
X144891500Y-66792772D01*
X144881909Y-66840990D01*
X144854595Y-66881867D01*
X144650525Y-67085937D01*
X144621552Y-67107573D01*
X144587628Y-67120088D01*
X144417714Y-67156205D01*
X144243246Y-67233883D01*
X144088747Y-67346133D01*
X143960958Y-67488057D01*
X143865472Y-67653443D01*
X143806458Y-67835070D01*
X143789952Y-67992114D01*
X143786496Y-68025000D01*
X143790017Y-68058499D01*
X143806458Y-68214929D01*
X143865472Y-68396556D01*
X143960958Y-68561942D01*
X143968636Y-68570469D01*
X143992631Y-68609625D01*
X144001000Y-68654780D01*
X144001000Y-71632860D01*
X143986763Y-71691040D01*
X143947270Y-71736073D01*
X143880217Y-71783023D01*
X143723025Y-71940215D01*
X143595512Y-72122323D01*
X143563919Y-72190075D01*
X143517424Y-72243092D01*
X143449724Y-72262825D01*
X143382024Y-72243092D01*
X143335529Y-72190075D01*
X143304051Y-72122571D01*
X143259815Y-72059395D01*
X143259813Y-72059395D01*
X142559210Y-72760000D01*
X142559210Y-72760001D01*
X141840789Y-72760001D01*
X141840790Y-72760000D01*
X141840790Y-72759999D01*
X141140185Y-72059394D01*
X141095948Y-72122572D01*
X141064471Y-72190076D01*
X141017975Y-72243094D01*
X140950276Y-72262826D01*
X140882576Y-72243093D01*
X140836081Y-72190076D01*
X140804487Y-72122322D01*
X140676974Y-71940215D01*
X140519782Y-71783023D01*
X140452730Y-71736073D01*
X140421257Y-71700185D01*
X141499394Y-71700185D01*
X142199999Y-72400790D01*
X142200000Y-72400790D01*
X142900603Y-71700185D01*
X142900603Y-71700184D01*
X142837426Y-71655947D01*
X142636024Y-71562031D01*
X142421376Y-71504517D01*
X142200000Y-71485149D01*
X141978623Y-71504517D01*
X141763975Y-71562031D01*
X141562572Y-71655948D01*
X141499394Y-71700185D01*
X140421257Y-71700185D01*
X140413237Y-71691040D01*
X140399000Y-71632860D01*
X140399000Y-68574780D01*
X140407369Y-68529625D01*
X140431364Y-68490469D01*
X140432807Y-68488866D01*
X140439040Y-68481944D01*
X140534527Y-68316556D01*
X140593542Y-68134928D01*
X140600027Y-68073216D01*
X140611611Y-68032144D01*
X140636239Y-67997295D01*
X145618130Y-63015403D01*
X145659007Y-62988090D01*
X145707225Y-62978499D01*
X146500540Y-62978499D01*
X146500544Y-62978499D01*
X146604426Y-62967887D01*
X146772738Y-62912115D01*
X146923652Y-62819030D01*
X147049030Y-62693652D01*
X147142115Y-62542738D01*
X147197887Y-62374426D01*
X147208500Y-62270545D01*
X147208499Y-60919456D01*
X147197887Y-60815574D01*
X147142115Y-60647262D01*
X147049030Y-60496348D01*
X147049028Y-60496346D01*
X147049027Y-60496344D01*
X146923655Y-60370972D01*
X146853873Y-60327930D01*
X146772738Y-60277885D01*
X146604426Y-60222113D01*
X146500545Y-60211500D01*
X146500540Y-60211500D01*
X145599459Y-60211500D01*
X145495573Y-60222113D01*
X145327262Y-60277885D01*
X145176344Y-60370972D01*
X145050972Y-60496344D01*
X145042365Y-60510299D01*
X144957885Y-60647262D01*
X144902113Y-60815574D01*
X144894726Y-60887885D01*
X144891500Y-60919459D01*
X144891500Y-61712774D01*
X144881909Y-61760992D01*
X144854595Y-61801869D01*
X139650526Y-67005937D01*
X139621553Y-67027573D01*
X139587628Y-67040088D01*
X139417715Y-67076204D01*
X139243246Y-67153883D01*
X139088747Y-67266133D01*
X138960958Y-67408057D01*
X138865472Y-67573443D01*
X138806458Y-67755070D01*
X138790089Y-67910813D01*
X138786496Y-67945000D01*
X138787477Y-67954337D01*
X138806458Y-68134929D01*
X138865472Y-68316556D01*
X138960958Y-68481942D01*
X138968636Y-68490469D01*
X138992631Y-68529625D01*
X139001000Y-68574780D01*
X139001000Y-71632860D01*
X138986763Y-71691040D01*
X138947270Y-71736073D01*
X138880217Y-71783023D01*
X138723025Y-71940215D01*
X138595512Y-72122322D01*
X138501559Y-72323807D01*
X138444022Y-72538532D01*
X138424647Y-72760000D01*
X129452182Y-72760000D01*
X129519030Y-72693152D01*
X129612115Y-72542238D01*
X129667887Y-72373926D01*
X129678500Y-72270045D01*
X129678499Y-71343956D01*
X129667887Y-71240074D01*
X129612115Y-71071762D01*
X129519030Y-70920848D01*
X129519028Y-70920846D01*
X129519027Y-70920844D01*
X129393655Y-70795472D01*
X129393652Y-70795470D01*
X129242738Y-70702385D01*
X129074426Y-70646613D01*
X128970545Y-70636000D01*
X128970541Y-70636000D01*
X128139726Y-70636000D01*
X128091508Y-70626409D01*
X128050631Y-70599095D01*
X127850205Y-70398669D01*
X127822891Y-70357792D01*
X127813300Y-70309574D01*
X127813300Y-70081500D01*
X127830181Y-70018500D01*
X127876300Y-69972381D01*
X127939300Y-69955500D01*
X127962938Y-69955500D01*
X128023501Y-69948989D01*
X128160504Y-69897889D01*
X128277561Y-69810261D01*
X128365189Y-69693204D01*
X128416289Y-69556201D01*
X128422800Y-69495638D01*
X128422800Y-68988362D01*
X128417382Y-68937966D01*
X128417382Y-68911031D01*
X128417424Y-68910648D01*
X128422800Y-68860638D01*
X128422800Y-68795000D01*
X128439681Y-68732000D01*
X128485800Y-68685881D01*
X128548800Y-68669000D01*
X128560576Y-68669000D01*
X128568184Y-68669230D01*
X128628013Y-68672849D01*
X128628013Y-68672848D01*
X128628015Y-68672849D01*
X128686983Y-68662041D01*
X128694496Y-68660899D01*
X128727116Y-68656938D01*
X128754010Y-68653673D01*
X128763270Y-68650160D01*
X128785237Y-68644036D01*
X128794983Y-68642251D01*
X128849646Y-68617648D01*
X128856651Y-68614746D01*
X128912727Y-68593480D01*
X128920876Y-68587854D01*
X128940748Y-68576645D01*
X128949775Y-68572584D01*
X128996986Y-68535596D01*
X129003074Y-68531116D01*
X129052427Y-68497052D01*
X129059682Y-68488862D01*
X129090552Y-68463554D01*
X129127791Y-68449172D01*
X129159654Y-68442400D01*
X129318275Y-68371777D01*
X129458746Y-68269719D01*
X129574929Y-68140685D01*
X129661745Y-67990315D01*
X129715400Y-67825181D01*
X129733550Y-67652500D01*
X129715400Y-67479819D01*
X129676030Y-67358650D01*
X129661745Y-67314684D01*
X129574930Y-67164316D01*
X129518649Y-67101809D01*
X129490029Y-67047980D01*
X129490029Y-66987016D01*
X129518651Y-66933188D01*
X129574928Y-66870686D01*
X129578745Y-66864076D01*
X129661745Y-66720315D01*
X129715400Y-66555181D01*
X129733550Y-66382500D01*
X129715400Y-66209819D01*
X129685426Y-66117568D01*
X129682294Y-66051146D01*
X129713409Y-65992379D01*
X129770106Y-65957635D01*
X129836594Y-65956591D01*
X129894354Y-65989537D01*
X129923844Y-66019027D01*
X129923846Y-66019028D01*
X129923848Y-66019030D01*
X130074762Y-66112115D01*
X130243074Y-66167887D01*
X130346955Y-66178500D01*
X131273044Y-66178499D01*
X131376926Y-66167887D01*
X131545238Y-66112115D01*
X131696152Y-66019030D01*
X131821530Y-65893652D01*
X131914615Y-65742738D01*
X131970387Y-65574426D01*
X131981000Y-65470545D01*
X131981000Y-65024000D01*
X132764500Y-65024000D01*
X132764500Y-65470503D01*
X132775106Y-65574328D01*
X132830840Y-65742522D01*
X132923867Y-65893342D01*
X133049157Y-66018632D01*
X133199977Y-66111659D01*
X133368171Y-66167393D01*
X133471997Y-66178000D01*
X133681000Y-66178000D01*
X133681000Y-65024000D01*
X134189000Y-65024000D01*
X134189000Y-66178000D01*
X134398003Y-66178000D01*
X134501828Y-66167393D01*
X134670022Y-66111659D01*
X134820842Y-66018632D01*
X134946132Y-65893342D01*
X135039159Y-65742522D01*
X135094893Y-65574328D01*
X135105500Y-65470503D01*
X135105500Y-65024000D01*
X134189000Y-65024000D01*
X133681000Y-65024000D01*
X132764500Y-65024000D01*
X131981000Y-65024000D01*
X131980999Y-64516000D01*
X132764500Y-64516000D01*
X133681000Y-64516000D01*
X133681000Y-63362000D01*
X134189000Y-63362000D01*
X134189000Y-64516000D01*
X135105500Y-64516000D01*
X135105500Y-64069497D01*
X135094893Y-63965671D01*
X135039159Y-63797477D01*
X134946132Y-63646657D01*
X134820842Y-63521367D01*
X134670022Y-63428340D01*
X134501828Y-63372606D01*
X134398003Y-63362000D01*
X134189000Y-63362000D01*
X133681000Y-63362000D01*
X133471997Y-63362000D01*
X133368171Y-63372606D01*
X133199977Y-63428340D01*
X133049157Y-63521367D01*
X132923867Y-63646657D01*
X132830840Y-63797477D01*
X132775106Y-63965671D01*
X132764500Y-64069497D01*
X132764500Y-64516000D01*
X131980999Y-64516000D01*
X131980999Y-64069456D01*
X131970387Y-63965574D01*
X131914615Y-63797262D01*
X131821530Y-63646348D01*
X131821528Y-63646346D01*
X131821527Y-63646344D01*
X131696155Y-63520972D01*
X131651003Y-63493122D01*
X131568850Y-63442449D01*
X131524976Y-63396618D01*
X131509000Y-63335211D01*
X131509000Y-62859780D01*
X131517369Y-62814625D01*
X131541364Y-62775469D01*
X131549040Y-62766944D01*
X131644527Y-62601556D01*
X131703542Y-62419928D01*
X131723504Y-62230000D01*
X131703542Y-62040072D01*
X131644527Y-61858444D01*
X131644527Y-61858443D01*
X131549041Y-61693057D01*
X131421252Y-61551133D01*
X131266753Y-61438883D01*
X131266752Y-61438882D01*
X131092288Y-61361206D01*
X130905487Y-61321500D01*
X130714513Y-61321500D01*
X130589979Y-61347970D01*
X130527711Y-61361206D01*
X130353246Y-61438883D01*
X130198747Y-61551133D01*
X130070958Y-61693057D01*
X129975472Y-61858443D01*
X129916458Y-62040070D01*
X129896496Y-62229999D01*
X129916458Y-62419929D01*
X129975472Y-62601556D01*
X130070958Y-62766942D01*
X130078636Y-62775469D01*
X130102631Y-62814625D01*
X130111000Y-62859780D01*
X130111000Y-63335211D01*
X130095024Y-63396618D01*
X130051149Y-63442449D01*
X129968997Y-63493122D01*
X129923844Y-63520972D01*
X129798472Y-63646344D01*
X129787764Y-63663705D01*
X129705385Y-63797262D01*
X129649613Y-63965574D01*
X129649612Y-63965576D01*
X129645273Y-63978673D01*
X129643125Y-63977961D01*
X129629653Y-64015257D01*
X129584320Y-64056194D01*
X129525059Y-64071000D01*
X127166229Y-64071000D01*
X127158622Y-64070770D01*
X127098784Y-64067150D01*
X127039806Y-64077957D01*
X127032292Y-64079101D01*
X127020841Y-64080491D01*
X127003635Y-64082581D01*
X126988449Y-64083500D01*
X126265662Y-64083500D01*
X126205099Y-64090011D01*
X126068094Y-64141111D01*
X125951038Y-64228738D01*
X125863411Y-64345794D01*
X125812311Y-64482799D01*
X125805800Y-64543362D01*
X125805800Y-65050640D01*
X125811470Y-65103383D01*
X125811470Y-65130319D01*
X125806300Y-65178408D01*
X125806300Y-65240000D01*
X125789419Y-65303000D01*
X125743300Y-65349119D01*
X125680300Y-65366000D01*
X125264270Y-65366000D01*
X125201270Y-65349119D01*
X125155151Y-65303000D01*
X125129930Y-65259316D01*
X125013745Y-65130280D01*
X124904129Y-65050640D01*
X124873275Y-65028223D01*
X124714654Y-64957600D01*
X124714652Y-64957599D01*
X124714651Y-64957599D01*
X124706879Y-64955947D01*
X124648767Y-64926336D01*
X124613246Y-64871636D01*
X124601017Y-64834000D01*
X124581745Y-64774685D01*
X124551978Y-64723127D01*
X124494930Y-64624316D01*
X124421387Y-64542638D01*
X124378746Y-64495281D01*
X124238275Y-64393223D01*
X124079654Y-64322600D01*
X123909816Y-64286500D01*
X123746201Y-64286500D01*
X123683201Y-64269619D01*
X123637082Y-64223500D01*
X123620201Y-64160500D01*
X123620201Y-59268638D01*
X130771500Y-59268638D01*
X130778011Y-59329201D01*
X130790533Y-59362773D01*
X130829111Y-59466205D01*
X130916738Y-59583261D01*
X131033794Y-59670888D01*
X131033795Y-59670888D01*
X131033796Y-59670889D01*
X131170799Y-59721989D01*
X131231362Y-59728500D01*
X132928638Y-59728500D01*
X132989201Y-59721989D01*
X133126204Y-59670889D01*
X133243261Y-59583261D01*
X133330889Y-59466204D01*
X133381989Y-59329201D01*
X133382999Y-59319800D01*
X133403706Y-59262978D01*
X133448506Y-59222348D01*
X133507077Y-59207275D01*
X133565924Y-59221230D01*
X133611490Y-59260998D01*
X133613804Y-59264303D01*
X133775696Y-59426195D01*
X133775699Y-59426197D01*
X133775700Y-59426198D01*
X133832834Y-59466204D01*
X133963249Y-59557522D01*
X134170756Y-59654284D01*
X134230015Y-59670162D01*
X134391913Y-59713543D01*
X134620000Y-59733498D01*
X134848087Y-59713543D01*
X135069243Y-59654284D01*
X135276749Y-59557523D01*
X135464300Y-59426198D01*
X135626198Y-59264300D01*
X135757523Y-59076749D01*
X135775804Y-59037543D01*
X135822300Y-58984525D01*
X135890000Y-58964792D01*
X135957700Y-58984525D01*
X136004195Y-59037543D01*
X136022476Y-59076748D01*
X136153804Y-59264303D01*
X136315696Y-59426195D01*
X136315699Y-59426197D01*
X136315700Y-59426198D01*
X136372834Y-59466204D01*
X136503249Y-59557522D01*
X136710756Y-59654284D01*
X136770015Y-59670162D01*
X136931913Y-59713543D01*
X137160000Y-59733498D01*
X137388087Y-59713543D01*
X137609243Y-59654284D01*
X137816749Y-59557523D01*
X138004300Y-59426198D01*
X138166198Y-59264300D01*
X138297523Y-59076749D01*
X138316080Y-59036951D01*
X138362576Y-58983933D01*
X138430276Y-58964200D01*
X138497976Y-58983933D01*
X138544471Y-59036951D01*
X138562911Y-59076497D01*
X138694189Y-59263981D01*
X138856018Y-59425810D01*
X139043501Y-59557087D01*
X139250929Y-59653813D01*
X139446000Y-59706082D01*
X139446000Y-58674000D01*
X139954000Y-58674000D01*
X139954000Y-59706082D01*
X140149070Y-59653813D01*
X140356498Y-59557087D01*
X140543981Y-59425810D01*
X140705810Y-59263981D01*
X140837087Y-59076498D01*
X140933813Y-58869070D01*
X140986082Y-58674000D01*
X139954000Y-58674000D01*
X139446000Y-58674000D01*
X139446000Y-57133917D01*
X139953999Y-57133917D01*
X139954000Y-57133918D01*
X139954000Y-58166000D01*
X140986082Y-58166000D01*
X140933813Y-57970929D01*
X140837087Y-57763501D01*
X140705810Y-57576018D01*
X140543981Y-57414189D01*
X140356498Y-57282912D01*
X140149070Y-57186186D01*
X139953999Y-57133917D01*
X139446000Y-57133917D01*
X139250929Y-57186186D01*
X139043501Y-57282912D01*
X138856018Y-57414189D01*
X138694189Y-57576018D01*
X138562911Y-57763502D01*
X138544469Y-57803051D01*
X138497973Y-57856067D01*
X138430273Y-57875799D01*
X138362573Y-57856065D01*
X138316081Y-57803049D01*
X138297523Y-57763251D01*
X138166198Y-57575700D01*
X138166196Y-57575698D01*
X138166195Y-57575696D01*
X138004303Y-57413804D01*
X137816750Y-57282477D01*
X137609243Y-57185715D01*
X137388087Y-57126457D01*
X137160000Y-57106502D01*
X136931912Y-57126457D01*
X136710756Y-57185715D01*
X136503249Y-57282477D01*
X136315696Y-57413804D01*
X136153804Y-57575696D01*
X136022477Y-57763250D01*
X136004195Y-57802457D01*
X135957700Y-57855474D01*
X135890000Y-57875207D01*
X135822300Y-57855474D01*
X135775805Y-57802457D01*
X135757640Y-57763502D01*
X135757523Y-57763251D01*
X135626198Y-57575700D01*
X135626196Y-57575698D01*
X135626195Y-57575696D01*
X135464303Y-57413804D01*
X135276750Y-57282477D01*
X135069243Y-57185715D01*
X134848087Y-57126457D01*
X134620000Y-57106502D01*
X134391912Y-57126457D01*
X134170756Y-57185715D01*
X133963249Y-57282477D01*
X133775696Y-57413804D01*
X133613802Y-57575698D01*
X133611487Y-57579005D01*
X133565921Y-57618771D01*
X133507074Y-57632724D01*
X133448504Y-57617650D01*
X133403705Y-57577021D01*
X133382999Y-57520197D01*
X133381989Y-57510799D01*
X133330889Y-57373796D01*
X133330888Y-57373794D01*
X133243261Y-57256738D01*
X133126205Y-57169111D01*
X133011845Y-57126457D01*
X132989201Y-57118011D01*
X132928638Y-57111500D01*
X131231362Y-57111500D01*
X131170799Y-57118011D01*
X131033794Y-57169111D01*
X130916738Y-57256738D01*
X130829111Y-57373794D01*
X130814045Y-57414189D01*
X130778011Y-57510799D01*
X130771500Y-57571362D01*
X130771500Y-59268638D01*
X123620201Y-59268638D01*
X123620201Y-59030525D01*
X123629792Y-58982307D01*
X123657106Y-58941430D01*
X127252631Y-55345905D01*
X127293508Y-55318591D01*
X127341726Y-55309000D01*
X133325076Y-55309000D01*
X133332684Y-55309230D01*
X133392513Y-55312849D01*
X133392513Y-55312848D01*
X133392515Y-55312849D01*
X133451483Y-55302041D01*
X133458996Y-55300899D01*
X133491616Y-55296938D01*
X133518510Y-55293673D01*
X133527770Y-55290160D01*
X133549737Y-55284036D01*
X133559483Y-55282251D01*
X133614146Y-55257648D01*
X133621151Y-55254746D01*
X133677227Y-55233480D01*
X133685376Y-55227854D01*
X133705248Y-55216645D01*
X133714275Y-55212584D01*
X133761486Y-55175596D01*
X133767574Y-55171116D01*
X133816927Y-55137052D01*
X133856682Y-55092176D01*
X133861883Y-55086651D01*
X134270768Y-54677766D01*
X146735787Y-54677766D01*
X146765413Y-54947015D01*
X146788870Y-55036738D01*
X146833928Y-55209088D01*
X146939870Y-55458390D01*
X147080982Y-55689610D01*
X147254255Y-55897820D01*
X147254256Y-55897821D01*
X147254258Y-55897823D01*
X147455993Y-56078578D01*
X147455995Y-56078579D01*
X147455998Y-56078582D01*
X147681910Y-56228044D01*
X147770807Y-56269717D01*
X147927171Y-56343018D01*
X147927173Y-56343018D01*
X147927176Y-56343020D01*
X148186569Y-56421060D01*
X148186572Y-56421060D01*
X148186574Y-56421061D01*
X148454558Y-56460500D01*
X148454561Y-56460500D01*
X148657630Y-56460500D01*
X148657631Y-56460500D01*
X148860156Y-56445677D01*
X149124553Y-56386780D01*
X149377558Y-56290014D01*
X149613777Y-56157441D01*
X149828177Y-55991888D01*
X150016186Y-55796881D01*
X150173799Y-55576579D01*
X150297656Y-55335675D01*
X150385118Y-55079305D01*
X150434319Y-54812933D01*
X150444212Y-54542235D01*
X150443475Y-54535541D01*
X150422605Y-54345861D01*
X150414586Y-54272982D01*
X150346072Y-54010912D01*
X150240130Y-53761610D01*
X150099018Y-53530390D01*
X149925745Y-53322180D01*
X149925741Y-53322176D01*
X149724006Y-53141421D01*
X149724003Y-53141419D01*
X149724002Y-53141418D01*
X149498090Y-52991956D01*
X149493410Y-52989762D01*
X149252828Y-52876981D01*
X148993425Y-52798938D01*
X148725442Y-52759500D01*
X148725439Y-52759500D01*
X148522369Y-52759500D01*
X148488614Y-52761970D01*
X148319839Y-52774323D01*
X148055449Y-52833219D01*
X147802441Y-52929985D01*
X147566225Y-53062557D01*
X147351820Y-53228114D01*
X147163815Y-53423117D01*
X147006200Y-53643422D01*
X146882342Y-53884328D01*
X146794882Y-54140693D01*
X146745681Y-54407065D01*
X146735787Y-54677766D01*
X134270768Y-54677766D01*
X135096643Y-53851890D01*
X135102169Y-53846689D01*
X135120735Y-53830241D01*
X135147052Y-53806927D01*
X135181116Y-53757574D01*
X135185606Y-53751471D01*
X135222584Y-53704275D01*
X135226645Y-53695249D01*
X135237855Y-53675375D01*
X135237860Y-53675368D01*
X135243480Y-53667227D01*
X135264746Y-53611151D01*
X135267648Y-53604147D01*
X135287397Y-53560268D01*
X135292251Y-53549483D01*
X135294036Y-53539737D01*
X135300162Y-53517766D01*
X135303673Y-53508510D01*
X135310899Y-53448996D01*
X135312044Y-53441469D01*
X135315408Y-53423117D01*
X135322849Y-53382515D01*
X135319229Y-53322667D01*
X135319000Y-53315077D01*
X135319000Y-51973530D01*
X135333237Y-51915350D01*
X135372729Y-51870317D01*
X135400595Y-51850804D01*
X135464300Y-51806198D01*
X135626198Y-51644300D01*
X135757523Y-51456749D01*
X135775804Y-51417543D01*
X135822300Y-51364525D01*
X135890000Y-51344792D01*
X135957700Y-51364525D01*
X136004195Y-51417543D01*
X136022476Y-51456748D01*
X136153804Y-51644303D01*
X136315696Y-51806195D01*
X136503249Y-51937522D01*
X136710756Y-52034284D01*
X136770015Y-52050162D01*
X136931913Y-52093543D01*
X137160000Y-52113498D01*
X137388087Y-52093543D01*
X137609243Y-52034284D01*
X137816749Y-51937523D01*
X138004300Y-51806198D01*
X138166198Y-51644300D01*
X138297523Y-51456749D01*
X138315804Y-51417543D01*
X138362300Y-51364525D01*
X138430000Y-51344792D01*
X138497700Y-51364525D01*
X138544195Y-51417543D01*
X138562476Y-51456748D01*
X138693804Y-51644303D01*
X138855696Y-51806195D01*
X139043249Y-51937522D01*
X139250756Y-52034284D01*
X139310015Y-52050162D01*
X139471913Y-52093543D01*
X139700000Y-52113498D01*
X139928087Y-52093543D01*
X140149243Y-52034284D01*
X140356749Y-51937523D01*
X140544300Y-51806198D01*
X140706198Y-51644300D01*
X140837523Y-51456749D01*
X140934284Y-51249243D01*
X140993543Y-51028087D01*
X141013498Y-50800000D01*
X140993543Y-50571913D01*
X140944404Y-50388524D01*
X140934284Y-50350756D01*
X140837522Y-50143249D01*
X140706195Y-49955696D01*
X140544303Y-49793804D01*
X140452729Y-49729683D01*
X140413237Y-49684650D01*
X140399000Y-49626470D01*
X140399000Y-49554940D01*
X140399230Y-49547332D01*
X140402850Y-49487486D01*
X140402850Y-49487485D01*
X140392035Y-49428472D01*
X140390899Y-49421002D01*
X140383673Y-49361490D01*
X140380161Y-49352229D01*
X140374038Y-49330265D01*
X140373038Y-49324807D01*
X140372252Y-49320518D01*
X140347648Y-49265850D01*
X140344735Y-49258819D01*
X140323480Y-49202773D01*
X140317850Y-49194617D01*
X140306654Y-49174767D01*
X140302585Y-49165725D01*
X140265613Y-49118534D01*
X140261114Y-49112419D01*
X140248334Y-49093906D01*
X140227052Y-49063073D01*
X140182178Y-49023318D01*
X140176636Y-49018101D01*
X139576890Y-48418354D01*
X139571674Y-48412813D01*
X139531926Y-48367947D01*
X139482587Y-48333890D01*
X139476461Y-48329382D01*
X139429274Y-48292415D01*
X139420246Y-48288352D01*
X139400380Y-48277148D01*
X139392224Y-48271518D01*
X139336176Y-48250261D01*
X139329148Y-48247350D01*
X139274483Y-48222748D01*
X139264732Y-48220961D01*
X139242775Y-48214840D01*
X139238232Y-48213117D01*
X139233508Y-48211326D01*
X139174001Y-48204101D01*
X139166477Y-48202956D01*
X139107515Y-48192150D01*
X139047684Y-48195770D01*
X139040076Y-48196000D01*
X128929929Y-48196000D01*
X128922322Y-48195770D01*
X128862484Y-48192150D01*
X128803522Y-48202956D01*
X128795997Y-48204101D01*
X128736491Y-48211326D01*
X128727222Y-48214841D01*
X128705267Y-48220962D01*
X128695517Y-48222749D01*
X128640854Y-48247350D01*
X128633827Y-48250260D01*
X128577773Y-48271519D01*
X128569612Y-48277152D01*
X128549758Y-48288350D01*
X128540725Y-48292415D01*
X128493524Y-48329393D01*
X128487398Y-48333900D01*
X128438073Y-48367947D01*
X128398317Y-48412821D01*
X128393101Y-48418361D01*
X126523361Y-50288101D01*
X126517821Y-50293317D01*
X126472947Y-50333073D01*
X126438900Y-50382398D01*
X126434393Y-50388524D01*
X126397415Y-50435725D01*
X126393350Y-50444758D01*
X126382152Y-50464612D01*
X126376519Y-50472772D01*
X126355257Y-50528834D01*
X126352346Y-50535861D01*
X126327748Y-50590517D01*
X126325962Y-50600262D01*
X126319843Y-50622216D01*
X126316327Y-50631488D01*
X126309101Y-50690998D01*
X126307956Y-50698521D01*
X126297150Y-50757484D01*
X126300770Y-50817316D01*
X126301000Y-50824924D01*
X126301000Y-52998275D01*
X126291409Y-53046493D01*
X126264095Y-53087370D01*
X124742236Y-54609228D01*
X124684334Y-54642211D01*
X124617707Y-54641048D01*
X124560990Y-54606065D01*
X124530049Y-54547047D01*
X124533535Y-54480503D01*
X124562887Y-54391925D01*
X124573500Y-54288044D01*
X124573500Y-53261956D01*
X124562887Y-53158075D01*
X124507115Y-52989762D01*
X124414030Y-52838849D01*
X124414028Y-52838847D01*
X124414027Y-52838845D01*
X124288654Y-52713472D01*
X124288651Y-52713470D01*
X124137738Y-52620385D01*
X124053581Y-52592499D01*
X123969426Y-52564613D01*
X123948648Y-52562490D01*
X123865544Y-52554000D01*
X122514456Y-52554000D01*
X122445202Y-52561075D01*
X122410573Y-52564613D01*
X122242262Y-52620385D01*
X122091345Y-52713472D01*
X121965972Y-52838845D01*
X121872272Y-52990755D01*
X121846634Y-53034671D01*
X121804350Y-53065205D01*
X121753324Y-53076000D01*
X120239923Y-53076000D01*
X120232315Y-53075770D01*
X120172484Y-53072150D01*
X120113521Y-53082956D01*
X120105998Y-53084101D01*
X120046488Y-53091327D01*
X120037216Y-53094843D01*
X120015262Y-53100962D01*
X120005517Y-53102748D01*
X119950861Y-53127346D01*
X119943834Y-53130257D01*
X119887772Y-53151519D01*
X119879612Y-53157152D01*
X119859758Y-53168350D01*
X119850725Y-53172415D01*
X119803541Y-53209380D01*
X119797417Y-53213886D01*
X119748075Y-53247945D01*
X119708309Y-53292831D01*
X119703093Y-53298370D01*
X113823361Y-59178101D01*
X113817821Y-59183317D01*
X113772947Y-59223073D01*
X113738900Y-59272398D01*
X113734393Y-59278524D01*
X113697415Y-59325725D01*
X113693350Y-59334758D01*
X113682152Y-59354612D01*
X113676519Y-59362772D01*
X113655257Y-59418834D01*
X113652346Y-59425861D01*
X113627748Y-59480517D01*
X113625962Y-59490262D01*
X113619843Y-59512216D01*
X113616327Y-59521488D01*
X113609101Y-59580998D01*
X113607956Y-59588521D01*
X113597150Y-59647484D01*
X113600770Y-59707316D01*
X113601000Y-59714924D01*
X113601000Y-60001844D01*
X113586648Y-60060245D01*
X113546861Y-60105343D01*
X113490704Y-60126862D01*
X113430969Y-60119900D01*
X113419202Y-60115511D01*
X113358638Y-60109000D01*
X112361362Y-60109000D01*
X112300797Y-60115511D01*
X112289031Y-60119900D01*
X112229296Y-60126862D01*
X112173139Y-60105343D01*
X112133352Y-60060245D01*
X112119000Y-60001844D01*
X112119000Y-55291726D01*
X112128591Y-55243508D01*
X112155901Y-55202634D01*
X112799790Y-54558745D01*
X112847513Y-54528829D01*
X112903509Y-54522696D01*
X112956581Y-54541577D01*
X112996119Y-54581694D01*
X113060371Y-54685861D01*
X113075972Y-54711154D01*
X113201345Y-54836527D01*
X113201347Y-54836528D01*
X113201349Y-54836530D01*
X113352262Y-54929615D01*
X113520575Y-54985387D01*
X113624456Y-54996000D01*
X114975540Y-54996000D01*
X114975544Y-54996000D01*
X115079425Y-54985387D01*
X115247738Y-54929615D01*
X115398651Y-54836530D01*
X115524030Y-54711151D01*
X115617115Y-54560238D01*
X115672887Y-54391925D01*
X115683500Y-54288044D01*
X115683500Y-53261956D01*
X115672887Y-53158075D01*
X115617115Y-52989762D01*
X115524030Y-52838849D01*
X115524028Y-52838847D01*
X115524027Y-52838845D01*
X115398654Y-52713472D01*
X115398651Y-52713470D01*
X115247738Y-52620385D01*
X115163581Y-52592499D01*
X115079426Y-52564613D01*
X115058648Y-52562490D01*
X114975544Y-52554000D01*
X113624456Y-52554000D01*
X113555202Y-52561075D01*
X113520573Y-52564613D01*
X113352262Y-52620385D01*
X113201345Y-52713472D01*
X113075972Y-52838845D01*
X112982272Y-52990755D01*
X112956634Y-53034671D01*
X112914350Y-53065205D01*
X112863324Y-53076000D01*
X112619929Y-53076000D01*
X112612322Y-53075770D01*
X112552484Y-53072150D01*
X112493522Y-53082956D01*
X112485997Y-53084101D01*
X112426491Y-53091326D01*
X112417222Y-53094841D01*
X112395267Y-53100962D01*
X112385517Y-53102749D01*
X112330854Y-53127350D01*
X112323827Y-53130260D01*
X112267773Y-53151519D01*
X112259612Y-53157152D01*
X112239758Y-53168350D01*
X112230725Y-53172415D01*
X112183524Y-53209393D01*
X112177398Y-53213900D01*
X112128073Y-53247947D01*
X112088317Y-53292821D01*
X112083101Y-53298361D01*
X110943361Y-54438101D01*
X110937821Y-54443317D01*
X110892947Y-54483073D01*
X110858900Y-54532398D01*
X110854393Y-54538524D01*
X110817415Y-54585725D01*
X110813350Y-54594758D01*
X110802152Y-54614612D01*
X110796519Y-54622772D01*
X110775257Y-54678834D01*
X110772346Y-54685861D01*
X110747748Y-54740517D01*
X110745962Y-54750262D01*
X110739843Y-54772216D01*
X110736327Y-54781488D01*
X110729101Y-54840998D01*
X110727956Y-54848521D01*
X110717150Y-54907484D01*
X110720770Y-54967316D01*
X110721000Y-54974924D01*
X110721000Y-60105633D01*
X110707672Y-60162033D01*
X110670509Y-60206501D01*
X110606739Y-60254237D01*
X110590119Y-60276440D01*
X110545650Y-60313603D01*
X110489250Y-60326930D01*
X110432850Y-60313602D01*
X110388382Y-60276438D01*
X110373260Y-60256237D01*
X110256205Y-60168611D01*
X110187702Y-60143061D01*
X110119201Y-60117511D01*
X110058638Y-60111000D01*
X109061362Y-60111000D01*
X109000799Y-60117511D01*
X108884032Y-60161063D01*
X108840000Y-60169007D01*
X108795968Y-60161063D01*
X108745392Y-60142199D01*
X108679201Y-60117511D01*
X108618638Y-60111000D01*
X107621362Y-60111000D01*
X107560799Y-60117511D01*
X107444032Y-60161063D01*
X107400000Y-60169007D01*
X107355968Y-60161063D01*
X107305392Y-60142199D01*
X107239201Y-60117511D01*
X107178638Y-60111000D01*
X106181362Y-60111000D01*
X106120799Y-60117511D01*
X106004032Y-60161063D01*
X105960000Y-60169007D01*
X105915968Y-60161063D01*
X105865392Y-60142199D01*
X105799201Y-60117511D01*
X105738638Y-60111000D01*
X104741362Y-60111000D01*
X104680799Y-60117511D01*
X104564032Y-60161063D01*
X104520000Y-60169007D01*
X104475968Y-60161063D01*
X104425392Y-60142199D01*
X104359201Y-60117511D01*
X104298638Y-60111000D01*
X103301362Y-60111000D01*
X103240799Y-60117511D01*
X103103794Y-60168611D01*
X102986738Y-60256238D01*
X102970868Y-60277439D01*
X102926400Y-60314602D01*
X102870000Y-60327930D01*
X102813600Y-60314602D01*
X102769132Y-60277439D01*
X102753261Y-60256238D01*
X102636205Y-60168611D01*
X102567702Y-60143061D01*
X102499201Y-60117511D01*
X102438638Y-60111000D01*
X101441362Y-60111000D01*
X101380799Y-60117511D01*
X101264032Y-60161063D01*
X101220000Y-60169007D01*
X101175968Y-60161063D01*
X101125392Y-60142199D01*
X101059201Y-60117511D01*
X100998638Y-60111000D01*
X100001362Y-60111000D01*
X99940797Y-60117511D01*
X99929031Y-60121900D01*
X99869296Y-60128862D01*
X99813139Y-60107343D01*
X99773352Y-60062245D01*
X99759000Y-60003844D01*
X99759000Y-56221726D01*
X99768591Y-56173508D01*
X99795905Y-56132631D01*
X101417630Y-54510905D01*
X101458507Y-54483591D01*
X101506725Y-54474000D01*
X105378324Y-54474000D01*
X105429350Y-54484795D01*
X105471634Y-54515329D01*
X105497272Y-54559244D01*
X105497884Y-54560237D01*
X105497885Y-54560238D01*
X105573227Y-54682386D01*
X105590972Y-54711154D01*
X105716345Y-54836527D01*
X105716347Y-54836528D01*
X105716349Y-54836530D01*
X105867262Y-54929615D01*
X106035575Y-54985387D01*
X106139456Y-54996000D01*
X107490540Y-54996000D01*
X107490544Y-54996000D01*
X107594425Y-54985387D01*
X107762738Y-54929615D01*
X107913651Y-54836530D01*
X108039030Y-54711151D01*
X108132115Y-54560238D01*
X108187887Y-54391925D01*
X108198500Y-54288044D01*
X108198500Y-53261956D01*
X108187887Y-53158075D01*
X108132115Y-52989762D01*
X108039030Y-52838849D01*
X108039028Y-52838847D01*
X108039027Y-52838845D01*
X107913654Y-52713472D01*
X107913651Y-52713470D01*
X107762738Y-52620385D01*
X107678581Y-52592499D01*
X107594426Y-52564613D01*
X107573648Y-52562490D01*
X107490544Y-52554000D01*
X106139456Y-52554000D01*
X106070202Y-52561075D01*
X106035573Y-52564613D01*
X105867262Y-52620385D01*
X105716345Y-52713472D01*
X105590972Y-52838845D01*
X105497272Y-52990755D01*
X105471634Y-53034671D01*
X105429350Y-53065205D01*
X105378324Y-53076000D01*
X101189941Y-53076000D01*
X101182333Y-53075770D01*
X101122484Y-53072149D01*
X101063514Y-53082956D01*
X101055993Y-53084101D01*
X100996488Y-53091327D01*
X100987224Y-53094840D01*
X100965270Y-53100960D01*
X100955520Y-53102747D01*
X100900843Y-53127354D01*
X100893816Y-53130264D01*
X100837773Y-53151519D01*
X100829618Y-53157148D01*
X100809762Y-53168347D01*
X100800725Y-53172414D01*
X100753540Y-53209380D01*
X100747415Y-53213887D01*
X100698075Y-53247945D01*
X100658309Y-53292831D01*
X100653093Y-53298370D01*
X98583361Y-55368101D01*
X98577821Y-55373317D01*
X98532947Y-55413073D01*
X98498900Y-55462398D01*
X98494393Y-55468524D01*
X98457415Y-55515725D01*
X98453350Y-55524758D01*
X98442152Y-55544612D01*
X98436519Y-55552772D01*
X98415257Y-55608834D01*
X98412346Y-55615861D01*
X98387748Y-55670517D01*
X98385962Y-55680262D01*
X98379843Y-55702216D01*
X98376327Y-55711488D01*
X98369101Y-55770998D01*
X98367956Y-55778521D01*
X98357150Y-55837484D01*
X98360770Y-55897316D01*
X98361000Y-55904924D01*
X98361000Y-60003844D01*
X98346648Y-60062245D01*
X98306861Y-60107343D01*
X98250704Y-60128862D01*
X98190969Y-60121900D01*
X98179202Y-60117511D01*
X98118638Y-60111000D01*
X97121362Y-60111000D01*
X97060799Y-60117511D01*
X96944032Y-60161063D01*
X96900000Y-60169007D01*
X96855968Y-60161063D01*
X96805392Y-60142199D01*
X96739201Y-60117511D01*
X96678638Y-60111000D01*
X95681362Y-60111000D01*
X95620799Y-60117511D01*
X95483794Y-60168611D01*
X95366738Y-60256238D01*
X95279111Y-60373294D01*
X95228757Y-60508299D01*
X95228011Y-60510299D01*
X95221500Y-60570862D01*
X95221500Y-63468138D01*
X95228011Y-63528701D01*
X95249627Y-63586655D01*
X95279111Y-63665705D01*
X95366738Y-63782761D01*
X95430509Y-63830499D01*
X95467672Y-63874967D01*
X95481000Y-63931367D01*
X95481000Y-64464474D01*
X95467267Y-64521677D01*
X95429061Y-64566410D01*
X95374711Y-64588923D01*
X95316064Y-64584307D01*
X95265905Y-64553569D01*
X94715905Y-64003569D01*
X94688591Y-63962692D01*
X94679000Y-63914474D01*
X94679000Y-54951726D01*
X94688591Y-54903508D01*
X94715905Y-54862631D01*
X98042631Y-51535905D01*
X98083508Y-51508591D01*
X98131726Y-51499000D01*
X105378324Y-51499000D01*
X105429350Y-51509795D01*
X105471634Y-51540329D01*
X105497272Y-51584244D01*
X105590972Y-51736154D01*
X105716345Y-51861527D01*
X105716347Y-51861528D01*
X105716349Y-51861530D01*
X105867262Y-51954615D01*
X106035575Y-52010387D01*
X106139456Y-52021000D01*
X107490540Y-52021000D01*
X107490544Y-52021000D01*
X107594425Y-52010387D01*
X107762738Y-51954615D01*
X107913651Y-51861530D01*
X108039030Y-51736151D01*
X108132115Y-51585238D01*
X108132116Y-51585234D01*
X108132727Y-51584244D01*
X108158366Y-51540329D01*
X108200650Y-51509795D01*
X108251676Y-51499000D01*
X112863324Y-51499000D01*
X112914350Y-51509795D01*
X112956634Y-51540329D01*
X112982272Y-51584244D01*
X113075972Y-51736154D01*
X113201345Y-51861527D01*
X113201347Y-51861528D01*
X113201349Y-51861530D01*
X113352262Y-51954615D01*
X113520575Y-52010387D01*
X113624456Y-52021000D01*
X114975540Y-52021000D01*
X114975544Y-52021000D01*
X115079425Y-52010387D01*
X115247738Y-51954615D01*
X115398651Y-51861530D01*
X115524030Y-51736151D01*
X115617115Y-51585238D01*
X115617116Y-51585234D01*
X115617727Y-51584244D01*
X115643366Y-51540329D01*
X115685650Y-51509795D01*
X115736676Y-51499000D01*
X121753324Y-51499000D01*
X121804350Y-51509795D01*
X121846634Y-51540329D01*
X121872272Y-51584244D01*
X121965972Y-51736154D01*
X122091345Y-51861527D01*
X122091347Y-51861528D01*
X122091349Y-51861530D01*
X122242262Y-51954615D01*
X122410575Y-52010387D01*
X122514456Y-52021000D01*
X123865540Y-52021000D01*
X123865544Y-52021000D01*
X123969425Y-52010387D01*
X124137738Y-51954615D01*
X124288651Y-51861530D01*
X124414030Y-51736151D01*
X124507115Y-51585238D01*
X124562887Y-51416925D01*
X124573500Y-51313044D01*
X124573500Y-50286956D01*
X124562887Y-50183075D01*
X124507115Y-50014762D01*
X124414030Y-49863849D01*
X124414028Y-49863847D01*
X124414027Y-49863845D01*
X124288654Y-49738472D01*
X124259214Y-49720313D01*
X124137738Y-49645385D01*
X124011609Y-49603591D01*
X123969426Y-49589613D01*
X123948648Y-49587490D01*
X123865544Y-49579000D01*
X122514456Y-49579000D01*
X122445201Y-49586075D01*
X122410573Y-49589613D01*
X122242262Y-49645385D01*
X122091345Y-49738472D01*
X121965972Y-49863845D01*
X121872272Y-50015755D01*
X121846634Y-50059671D01*
X121804350Y-50090205D01*
X121753324Y-50101000D01*
X115736676Y-50101000D01*
X115685650Y-50090205D01*
X115643366Y-50059671D01*
X115617727Y-50015755D01*
X115597418Y-49982829D01*
X115524030Y-49863849D01*
X115524028Y-49863847D01*
X115524027Y-49863845D01*
X115398654Y-49738472D01*
X115369214Y-49720313D01*
X115247738Y-49645385D01*
X115121609Y-49603591D01*
X115079426Y-49589613D01*
X115058648Y-49587490D01*
X114975544Y-49579000D01*
X113624456Y-49579000D01*
X113555201Y-49586075D01*
X113520573Y-49589613D01*
X113352262Y-49645385D01*
X113201345Y-49738472D01*
X113075972Y-49863845D01*
X112982272Y-50015755D01*
X112956634Y-50059671D01*
X112914350Y-50090205D01*
X112863324Y-50101000D01*
X108251676Y-50101000D01*
X108200650Y-50090205D01*
X108158366Y-50059671D01*
X108132727Y-50015755D01*
X108112418Y-49982829D01*
X108039030Y-49863849D01*
X108039028Y-49863847D01*
X108039027Y-49863845D01*
X107913654Y-49738472D01*
X107884214Y-49720313D01*
X107762738Y-49645385D01*
X107636609Y-49603591D01*
X107594426Y-49589613D01*
X107573648Y-49587490D01*
X107490544Y-49579000D01*
X106139456Y-49579000D01*
X106070201Y-49586075D01*
X106035573Y-49589613D01*
X105867262Y-49645385D01*
X105716345Y-49738472D01*
X105590972Y-49863845D01*
X105497272Y-50015755D01*
X105471634Y-50059671D01*
X105429350Y-50090205D01*
X105378324Y-50101000D01*
X97814940Y-50101000D01*
X97807332Y-50100770D01*
X97747486Y-50097149D01*
X97688513Y-50107956D01*
X97680995Y-50109100D01*
X97621488Y-50116327D01*
X97612221Y-50119841D01*
X97590273Y-50125959D01*
X97580522Y-50127746D01*
X97580517Y-50127748D01*
X97580518Y-50127748D01*
X97546071Y-50143251D01*
X97525844Y-50152354D01*
X97518816Y-50155264D01*
X97462773Y-50176519D01*
X97454618Y-50182148D01*
X97434762Y-50193347D01*
X97425725Y-50197414D01*
X97378536Y-50234383D01*
X97372411Y-50238890D01*
X97323073Y-50272947D01*
X97283317Y-50317821D01*
X97278101Y-50323361D01*
X93503361Y-54098101D01*
X93497821Y-54103317D01*
X93452947Y-54143073D01*
X93418900Y-54192398D01*
X93414393Y-54198524D01*
X93377415Y-54245725D01*
X93373350Y-54254758D01*
X93362152Y-54274612D01*
X93356519Y-54282772D01*
X93335257Y-54338834D01*
X93332346Y-54345861D01*
X93307748Y-54400517D01*
X93305962Y-54410262D01*
X93299843Y-54432216D01*
X93296327Y-54441488D01*
X93289101Y-54500998D01*
X93287956Y-54508521D01*
X93277150Y-54567484D01*
X93280770Y-54627316D01*
X93281000Y-54634924D01*
X93281000Y-64231276D01*
X93280770Y-64238884D01*
X93277150Y-64298715D01*
X93287956Y-64357677D01*
X93289101Y-64365201D01*
X93296326Y-64424708D01*
X93299840Y-64433973D01*
X93305961Y-64455932D01*
X93307748Y-64465683D01*
X93332350Y-64520348D01*
X93335261Y-64527376D01*
X93356518Y-64583424D01*
X93356519Y-64583426D01*
X93356520Y-64583427D01*
X93359690Y-64588020D01*
X93362148Y-64591580D01*
X93373352Y-64611446D01*
X93377415Y-64620474D01*
X93414382Y-64667661D01*
X93418890Y-64673787D01*
X93441469Y-64706497D01*
X93452948Y-64723127D01*
X93497821Y-64762881D01*
X93503362Y-64768098D01*
X95444095Y-66708831D01*
X95471409Y-66749708D01*
X95481000Y-66797926D01*
X95481000Y-70107633D01*
X95467672Y-70164033D01*
X95430509Y-70208501D01*
X95366738Y-70256238D01*
X95279111Y-70373294D01*
X95228011Y-70510299D01*
X95221500Y-70570862D01*
X95221500Y-73468138D01*
X95228011Y-73528700D01*
X95279111Y-73665705D01*
X95366738Y-73782761D01*
X95483794Y-73870388D01*
X95483795Y-73870388D01*
X95483796Y-73870389D01*
X95620799Y-73921489D01*
X95681362Y-73928000D01*
X96678638Y-73928000D01*
X96739201Y-73921489D01*
X96855967Y-73877936D01*
X96900000Y-73869992D01*
X96944032Y-73877936D01*
X97060799Y-73921489D01*
X97121362Y-73928000D01*
X98118638Y-73928000D01*
X98179201Y-73921489D01*
X98190969Y-73917099D01*
X98250701Y-73910137D01*
X98306860Y-73931655D01*
X98346647Y-73976753D01*
X98361000Y-74035155D01*
X98361000Y-75858275D01*
X98351409Y-75906493D01*
X98324095Y-75947370D01*
X92233361Y-82038101D01*
X92227821Y-82043317D01*
X92182947Y-82083073D01*
X92148900Y-82132398D01*
X92144393Y-82138524D01*
X92107415Y-82185725D01*
X92103350Y-82194758D01*
X92092152Y-82214612D01*
X92086519Y-82222772D01*
X92065257Y-82278834D01*
X92062346Y-82285861D01*
X92037748Y-82340517D01*
X92035962Y-82350262D01*
X92029843Y-82372216D01*
X92026327Y-82381488D01*
X92019101Y-82440998D01*
X92017956Y-82448521D01*
X92007150Y-82507484D01*
X92010770Y-82567316D01*
X92011000Y-82574924D01*
X92011000Y-90946977D01*
X92000206Y-90998003D01*
X91969673Y-91040286D01*
X91924633Y-91066581D01*
X91762262Y-91120385D01*
X91694261Y-91162328D01*
X91611345Y-91213472D01*
X91485972Y-91338845D01*
X91392885Y-91489762D01*
X91337113Y-91658073D01*
X91337112Y-91658075D01*
X91337113Y-91658075D01*
X91326500Y-91761956D01*
X91326500Y-92788044D01*
X83460490Y-92788044D01*
X83866652Y-92381882D01*
X83872178Y-92376681D01*
X83917052Y-92336927D01*
X83951116Y-92287574D01*
X83955596Y-92281486D01*
X83992584Y-92234275D01*
X83996645Y-92225248D01*
X84007855Y-92205375D01*
X84013480Y-92197227D01*
X84034739Y-92141167D01*
X84037650Y-92134141D01*
X84039288Y-92130499D01*
X84062251Y-92079482D01*
X84064037Y-92069734D01*
X84070160Y-92047772D01*
X84073673Y-92038509D01*
X84080899Y-91978995D01*
X84082040Y-91971487D01*
X84092849Y-91912515D01*
X84089229Y-91852678D01*
X84089000Y-91845072D01*
X84089000Y-81894500D01*
X84105881Y-81831500D01*
X84152000Y-81785381D01*
X84215000Y-81768500D01*
X84688638Y-81768500D01*
X84749201Y-81761989D01*
X84886204Y-81710889D01*
X85003261Y-81623261D01*
X85090889Y-81506204D01*
X85141989Y-81369201D01*
X85148500Y-81308638D01*
X85148500Y-80835000D01*
X85165381Y-80772000D01*
X85211500Y-80725881D01*
X85274500Y-80709000D01*
X88173627Y-80709000D01*
X88221845Y-80718591D01*
X88262722Y-80745905D01*
X88284344Y-80767527D01*
X88284346Y-80767528D01*
X88284348Y-80767530D01*
X88435262Y-80860615D01*
X88603574Y-80916387D01*
X88707455Y-80927000D01*
X90108544Y-80926999D01*
X90212426Y-80916387D01*
X90380738Y-80860615D01*
X90531652Y-80767530D01*
X90657030Y-80642152D01*
X90750115Y-80491238D01*
X90805887Y-80322926D01*
X90816500Y-80219045D01*
X90816499Y-79292956D01*
X90805887Y-79189074D01*
X90750115Y-79020762D01*
X90657030Y-78869848D01*
X90657028Y-78869846D01*
X90657027Y-78869844D01*
X90531655Y-78744472D01*
X90531652Y-78744470D01*
X90380738Y-78651385D01*
X90212426Y-78595613D01*
X90108545Y-78585000D01*
X90108540Y-78585000D01*
X88707459Y-78585000D01*
X88603573Y-78595613D01*
X88435262Y-78651385D01*
X88284344Y-78744472D01*
X88158972Y-78869844D01*
X88125460Y-78924176D01*
X88065885Y-79020762D01*
X88058802Y-79042139D01*
X88010111Y-79189078D01*
X88009220Y-79197808D01*
X87988467Y-79255257D01*
X87943134Y-79296194D01*
X87883873Y-79311000D01*
X85274500Y-79311000D01*
X85211500Y-79294119D01*
X85165381Y-79248000D01*
X85148500Y-79185000D01*
X85148500Y-78711362D01*
X85144180Y-78671183D01*
X85141989Y-78650799D01*
X85090889Y-78513796D01*
X85087296Y-78508996D01*
X85003261Y-78396738D01*
X84886205Y-78309111D01*
X84789583Y-78273073D01*
X84749201Y-78258011D01*
X84688638Y-78251500D01*
X82091362Y-78251500D01*
X82030799Y-78258011D01*
X81893794Y-78309111D01*
X81776738Y-78396738D01*
X81689111Y-78513794D01*
X81638010Y-78650799D01*
X81638011Y-78650799D01*
X81631500Y-78711362D01*
X81631500Y-81308638D01*
X81638011Y-81369201D01*
X81638888Y-81371552D01*
X81689111Y-81506205D01*
X81776738Y-81623261D01*
X81893794Y-81710888D01*
X81893795Y-81710888D01*
X81893796Y-81710889D01*
X82030799Y-81761989D01*
X82091362Y-81768500D01*
X82565000Y-81768500D01*
X82628000Y-81785381D01*
X82674119Y-81831500D01*
X82691000Y-81894500D01*
X82691000Y-91528274D01*
X82681409Y-91576492D01*
X82654097Y-91617366D01*
X81211226Y-93060237D01*
X80908121Y-93363342D01*
X80866581Y-93390927D01*
X80817593Y-93400238D01*
X80768829Y-93389815D01*
X80684183Y-93353049D01*
X80684179Y-93353047D01*
X80684177Y-93353047D01*
X80419596Y-93278915D01*
X80419594Y-93278914D01*
X80419588Y-93278913D01*
X80147388Y-93241500D01*
X80147385Y-93241500D01*
X79872615Y-93241500D01*
X79872612Y-93241500D01*
X79600411Y-93278913D01*
X79600403Y-93278915D01*
X79600404Y-93278915D01*
X79335823Y-93353047D01*
X79335821Y-93353047D01*
X79335820Y-93353048D01*
X79083801Y-93462515D01*
X78849030Y-93605282D01*
X78635887Y-93778687D01*
X78448343Y-93979497D01*
X78289889Y-94203975D01*
X78163476Y-94447942D01*
X78071463Y-94706844D01*
X78071462Y-94706847D01*
X78015558Y-94975870D01*
X78015557Y-94975875D01*
X77996807Y-95250000D01*
X78015557Y-95524124D01*
X78015557Y-95524128D01*
X78015558Y-95524130D01*
X78071462Y-95793153D01*
X78071463Y-95793155D01*
X78151485Y-96018317D01*
X78155669Y-96088250D01*
X78121855Y-96149607D01*
X77983361Y-96288101D01*
X77977821Y-96293317D01*
X77932947Y-96333073D01*
X77898900Y-96382398D01*
X77894393Y-96388524D01*
X77857415Y-96435725D01*
X77853350Y-96444758D01*
X77842152Y-96464612D01*
X77836519Y-96472772D01*
X77815257Y-96528834D01*
X77812346Y-96535861D01*
X77787748Y-96590517D01*
X77785962Y-96600262D01*
X77779843Y-96622216D01*
X77776327Y-96631488D01*
X77769101Y-96690998D01*
X77767956Y-96698521D01*
X77757150Y-96757484D01*
X77760770Y-96817316D01*
X77761000Y-96824924D01*
X77761000Y-100197920D01*
X77745024Y-100259326D01*
X77701147Y-100305161D01*
X77586344Y-100375972D01*
X77460972Y-100501344D01*
X77460970Y-100501348D01*
X77367885Y-100652262D01*
X77312113Y-100820573D01*
X77312113Y-100820574D01*
X77301500Y-100924459D01*
X77301500Y-102275540D01*
X64770500Y-102275540D01*
X64770500Y-90488494D01*
X78780715Y-90488494D01*
X78849321Y-90544310D01*
X79084026Y-90687036D01*
X79335989Y-90796480D01*
X79600513Y-90870596D01*
X79872645Y-90908000D01*
X80147355Y-90908000D01*
X80419486Y-90870596D01*
X80684010Y-90796480D01*
X80935970Y-90687038D01*
X81170681Y-90544307D01*
X81239283Y-90488493D01*
X81239283Y-90488492D01*
X80010001Y-89259210D01*
X80009999Y-89259210D01*
X78780715Y-90488492D01*
X78780715Y-90488494D01*
X64770500Y-90488494D01*
X64770500Y-88900000D01*
X77997308Y-88900000D01*
X78016053Y-89174056D01*
X78071945Y-89443020D01*
X78163936Y-89701860D01*
X78290318Y-89945765D01*
X78420540Y-90130248D01*
X78420541Y-90130248D01*
X79650790Y-88900001D01*
X80369210Y-88900001D01*
X81599457Y-90130247D01*
X81729683Y-89945761D01*
X81856063Y-89701860D01*
X81948054Y-89443020D01*
X82003946Y-89174056D01*
X82022691Y-88900000D01*
X82003946Y-88625943D01*
X81948054Y-88356979D01*
X81856063Y-88098139D01*
X81729683Y-87854238D01*
X81599457Y-87669750D01*
X80369210Y-88899999D01*
X80369210Y-88900001D01*
X79650790Y-88900001D01*
X79650790Y-88899999D01*
X78420541Y-87669750D01*
X78290316Y-87854240D01*
X78163936Y-88098139D01*
X78071945Y-88356979D01*
X78016053Y-88625943D01*
X77997308Y-88900000D01*
X64770500Y-88900000D01*
X64770500Y-87311505D01*
X78780714Y-87311505D01*
X80009999Y-88540790D01*
X80010000Y-88540790D01*
X81239283Y-87311504D01*
X81170678Y-87255689D01*
X80935973Y-87112963D01*
X80684010Y-87003519D01*
X80419486Y-86929403D01*
X80147355Y-86892000D01*
X79872645Y-86892000D01*
X79600513Y-86929403D01*
X79335989Y-87003519D01*
X79084026Y-87112963D01*
X78849322Y-87255689D01*
X78780715Y-87311505D01*
X78780714Y-87311505D01*
X64770500Y-87311505D01*
X64770500Y-81308638D01*
X70631500Y-81308638D01*
X70638011Y-81369201D01*
X70638888Y-81371552D01*
X70689111Y-81506205D01*
X70776738Y-81623261D01*
X70893794Y-81710888D01*
X70893795Y-81710888D01*
X70893796Y-81710889D01*
X71030799Y-81761989D01*
X71091362Y-81768500D01*
X73688638Y-81768500D01*
X73749201Y-81761989D01*
X73886204Y-81710889D01*
X74003261Y-81623261D01*
X74090889Y-81506204D01*
X74141989Y-81369201D01*
X74148500Y-81308638D01*
X74148500Y-78711362D01*
X74141989Y-78650799D01*
X74090889Y-78513796D01*
X74087296Y-78508996D01*
X74003261Y-78396738D01*
X73886205Y-78309111D01*
X73789583Y-78273073D01*
X73749201Y-78258011D01*
X73688638Y-78251500D01*
X71091362Y-78251500D01*
X71030799Y-78258011D01*
X70893794Y-78309111D01*
X70776738Y-78396738D01*
X70689111Y-78513794D01*
X70638010Y-78650799D01*
X70638011Y-78650799D01*
X70631500Y-78711362D01*
X70631500Y-81308638D01*
X64770500Y-81308638D01*
X64770500Y-76885000D01*
X88000000Y-76885000D01*
X88000000Y-77094003D01*
X88010606Y-77197828D01*
X88066340Y-77366022D01*
X88159367Y-77516842D01*
X88284657Y-77642132D01*
X88435477Y-77735159D01*
X88603671Y-77790893D01*
X88707497Y-77801500D01*
X89154000Y-77801500D01*
X89154000Y-76885000D01*
X89662000Y-76885000D01*
X89662000Y-77801500D01*
X90108503Y-77801500D01*
X90212328Y-77790893D01*
X90380522Y-77735159D01*
X90531342Y-77642132D01*
X90656632Y-77516842D01*
X90749659Y-77366022D01*
X90805393Y-77197828D01*
X90816000Y-77094003D01*
X90816000Y-76885000D01*
X89662000Y-76885000D01*
X89154000Y-76885000D01*
X88000000Y-76885000D01*
X64770500Y-76885000D01*
X64770500Y-76377000D01*
X88000000Y-76377000D01*
X89154000Y-76377000D01*
X89154000Y-75460500D01*
X89662000Y-75460500D01*
X89662000Y-76377000D01*
X90816000Y-76377000D01*
X90816000Y-76167997D01*
X90805393Y-76064171D01*
X90749659Y-75895977D01*
X90656632Y-75745157D01*
X90531342Y-75619867D01*
X90380522Y-75526840D01*
X90212328Y-75471106D01*
X90108503Y-75460500D01*
X89662000Y-75460500D01*
X89154000Y-75460500D01*
X88707497Y-75460500D01*
X88603671Y-75471106D01*
X88435477Y-75526840D01*
X88284657Y-75619867D01*
X88159367Y-75745157D01*
X88066340Y-75895977D01*
X88010606Y-76064171D01*
X88000000Y-76167997D01*
X88000000Y-76377000D01*
X64770500Y-76377000D01*
X64770500Y-69308638D01*
X70631500Y-69308638D01*
X70638011Y-69369201D01*
X70643379Y-69383593D01*
X70689111Y-69506205D01*
X70776738Y-69623261D01*
X70893794Y-69710888D01*
X70893795Y-69710888D01*
X70893796Y-69710889D01*
X71030799Y-69761989D01*
X71091362Y-69768500D01*
X73688638Y-69768500D01*
X73749201Y-69761989D01*
X73886204Y-69710889D01*
X74003261Y-69623261D01*
X74090889Y-69506204D01*
X74141989Y-69369201D01*
X74148500Y-69308638D01*
X74148500Y-68264000D01*
X81632000Y-68264000D01*
X81632000Y-69308589D01*
X81638505Y-69369093D01*
X81689554Y-69505962D01*
X81777095Y-69622904D01*
X81894037Y-69710445D01*
X82030906Y-69761494D01*
X82091411Y-69768000D01*
X83136000Y-69768000D01*
X83136000Y-68264000D01*
X83644000Y-68264000D01*
X83644000Y-69768000D01*
X84688589Y-69768000D01*
X84749093Y-69761494D01*
X84885962Y-69710445D01*
X85002904Y-69622904D01*
X85090445Y-69505962D01*
X85141494Y-69369093D01*
X85148000Y-69308589D01*
X85148000Y-68264000D01*
X83644000Y-68264000D01*
X83136000Y-68264000D01*
X81632000Y-68264000D01*
X74148500Y-68264000D01*
X74148500Y-67756000D01*
X81632000Y-67756000D01*
X83136000Y-67756000D01*
X83136000Y-66252000D01*
X83644000Y-66252000D01*
X83644000Y-67756000D01*
X85148000Y-67756000D01*
X85148000Y-66711411D01*
X85141494Y-66650906D01*
X85090445Y-66514037D01*
X85002904Y-66397095D01*
X84885962Y-66309554D01*
X84749093Y-66258505D01*
X84688589Y-66252000D01*
X83644000Y-66252000D01*
X83136000Y-66252000D01*
X82091411Y-66252000D01*
X82030906Y-66258505D01*
X81894037Y-66309554D01*
X81777095Y-66397095D01*
X81689554Y-66514037D01*
X81638505Y-66650906D01*
X81632000Y-66711411D01*
X81632000Y-67756000D01*
X74148500Y-67756000D01*
X74148500Y-66711362D01*
X74141989Y-66650799D01*
X74090889Y-66513796D01*
X74086466Y-66507887D01*
X74003261Y-66396738D01*
X73886205Y-66309111D01*
X73803195Y-66278150D01*
X73749201Y-66258011D01*
X73688638Y-66251500D01*
X73469000Y-66251500D01*
X73406000Y-66234619D01*
X73359881Y-66188500D01*
X73343000Y-66125500D01*
X73343000Y-65916961D01*
X88172110Y-65916961D01*
X88243497Y-65966946D01*
X88450929Y-66063674D01*
X88672000Y-66122909D01*
X88900000Y-66142856D01*
X89127999Y-66122909D01*
X89349070Y-66063674D01*
X89556498Y-65966948D01*
X89627888Y-65916960D01*
X89627888Y-65916958D01*
X88900001Y-65189071D01*
X88900000Y-65189071D01*
X88172110Y-65916959D01*
X88172110Y-65916961D01*
X73343000Y-65916961D01*
X73343000Y-64829860D01*
X87587004Y-64829860D01*
X87606951Y-65057860D01*
X87666186Y-65278931D01*
X87762912Y-65486358D01*
X87812900Y-65557748D01*
X88540789Y-64829862D01*
X89259210Y-64829862D01*
X89987097Y-65557749D01*
X89987099Y-65557749D01*
X90037087Y-65486359D01*
X90133813Y-65278931D01*
X90193048Y-65057860D01*
X90212995Y-64829860D01*
X90193048Y-64601861D01*
X90133813Y-64380790D01*
X90037085Y-64173358D01*
X89987100Y-64101971D01*
X89987098Y-64101971D01*
X89259210Y-64829861D01*
X89259210Y-64829862D01*
X88540789Y-64829862D01*
X88540790Y-64829861D01*
X88540790Y-64829860D01*
X87812900Y-64101970D01*
X87762913Y-64173360D01*
X87666186Y-64380790D01*
X87606951Y-64601861D01*
X87587004Y-64829860D01*
X73343000Y-64829860D01*
X73343000Y-63464373D01*
X73352591Y-63416155D01*
X73379905Y-63375278D01*
X73401527Y-63353655D01*
X73401527Y-63353654D01*
X73401530Y-63353652D01*
X73494615Y-63202738D01*
X73550387Y-63034426D01*
X73561000Y-62930545D01*
X73560999Y-62484000D01*
X74344500Y-62484000D01*
X74344500Y-62930503D01*
X74355106Y-63034328D01*
X74410840Y-63202522D01*
X74503867Y-63353342D01*
X74629157Y-63478632D01*
X74779977Y-63571659D01*
X74948171Y-63627393D01*
X75051997Y-63638000D01*
X75261000Y-63638000D01*
X75261000Y-62484000D01*
X75769000Y-62484000D01*
X75769000Y-63638000D01*
X75978003Y-63638000D01*
X76081828Y-63627393D01*
X76250022Y-63571659D01*
X76400842Y-63478632D01*
X76526132Y-63353342D01*
X76619159Y-63202522D01*
X76674893Y-63034328D01*
X76685500Y-62930503D01*
X76685500Y-62484000D01*
X75769000Y-62484000D01*
X75261000Y-62484000D01*
X74344500Y-62484000D01*
X73560999Y-62484000D01*
X73560999Y-62458933D01*
X73570590Y-62410716D01*
X73597899Y-62369844D01*
X74129408Y-61838335D01*
X74179564Y-61807601D01*
X74238211Y-61802985D01*
X74292561Y-61825498D01*
X74330767Y-61870231D01*
X74344500Y-61927434D01*
X74344500Y-61976000D01*
X75261000Y-61976000D01*
X75261000Y-60822000D01*
X75769000Y-60822000D01*
X75769000Y-61976000D01*
X76685500Y-61976000D01*
X76685500Y-61529497D01*
X76674893Y-61425671D01*
X76619159Y-61257477D01*
X76526132Y-61106657D01*
X76400842Y-60981367D01*
X76250022Y-60888340D01*
X76081828Y-60832606D01*
X75978003Y-60822000D01*
X75769000Y-60822000D01*
X75261000Y-60822000D01*
X75261000Y-60798964D01*
X75259856Y-60796983D01*
X75259856Y-60731761D01*
X75292468Y-60675277D01*
X77827841Y-58139905D01*
X77868718Y-58112591D01*
X77916936Y-58103000D01*
X82705500Y-58103000D01*
X82768500Y-58119881D01*
X82814619Y-58166000D01*
X82831500Y-58229000D01*
X82831500Y-58948638D01*
X82838011Y-59009201D01*
X82848582Y-59037543D01*
X82889111Y-59146205D01*
X82976738Y-59263261D01*
X83093794Y-59350888D01*
X83093795Y-59350888D01*
X83093796Y-59350889D01*
X83230799Y-59401989D01*
X83291362Y-59408500D01*
X84578704Y-59408500D01*
X84626922Y-59418091D01*
X84667799Y-59445405D01*
X87554595Y-62332202D01*
X87581909Y-62373079D01*
X87591500Y-62421297D01*
X87591500Y-63178499D01*
X87598011Y-63239062D01*
X87623560Y-63307563D01*
X87649111Y-63376066D01*
X87736738Y-63493122D01*
X87853794Y-63580749D01*
X87853795Y-63580749D01*
X87853796Y-63580750D01*
X87990799Y-63631850D01*
X88051362Y-63638361D01*
X88051365Y-63638361D01*
X88057215Y-63638990D01*
X88117374Y-63662019D01*
X88158290Y-63711773D01*
X88161879Y-63732531D01*
X88899999Y-64470651D01*
X88900000Y-64470651D01*
X89638117Y-63732531D01*
X89641706Y-63711776D01*
X89682622Y-63662020D01*
X89742783Y-63638990D01*
X89748633Y-63638361D01*
X89748638Y-63638361D01*
X89809201Y-63631850D01*
X89946204Y-63580750D01*
X90063261Y-63493122D01*
X90150889Y-63376065D01*
X90201989Y-63239062D01*
X90208500Y-63178499D01*
X90208500Y-61481223D01*
X90201989Y-61420660D01*
X90150889Y-61283657D01*
X90131130Y-61257262D01*
X90063261Y-61166599D01*
X89946205Y-61078972D01*
X89877702Y-61053422D01*
X89809201Y-61027872D01*
X89748638Y-61021361D01*
X88991435Y-61021361D01*
X88943217Y-61011770D01*
X88902340Y-60984456D01*
X87270995Y-59353110D01*
X87240073Y-59302380D01*
X87235835Y-59243119D01*
X87259223Y-59188505D01*
X87290888Y-59146205D01*
X87290887Y-59146205D01*
X87290889Y-59146204D01*
X87341989Y-59009201D01*
X87348500Y-58948638D01*
X87348500Y-55351362D01*
X87341989Y-55290799D01*
X87290889Y-55153796D01*
X87278354Y-55137051D01*
X87203261Y-55036738D01*
X87086205Y-54949111D01*
X87017702Y-54923561D01*
X86949201Y-54898011D01*
X86888638Y-54891500D01*
X83291362Y-54891500D01*
X83230799Y-54898011D01*
X83093794Y-54949111D01*
X82976738Y-55036738D01*
X82878254Y-55168298D01*
X82876188Y-55166751D01*
X82851429Y-55200314D01*
X82787062Y-55225898D01*
X82718899Y-55213595D01*
X82667537Y-55167123D01*
X82648499Y-55100529D01*
X82648499Y-53180830D01*
X82645689Y-53127908D01*
X82600970Y-52896686D01*
X82517818Y-52676348D01*
X82398625Y-52473232D01*
X82374810Y-52444985D01*
X82246819Y-52293180D01*
X82066768Y-52141375D01*
X81925345Y-52058385D01*
X81863652Y-52022182D01*
X81643314Y-51939030D01*
X81412092Y-51894311D01*
X81359171Y-51891500D01*
X81359164Y-51891500D01*
X79420834Y-51891500D01*
X79374197Y-51893977D01*
X79367908Y-51894311D01*
X79136686Y-51939030D01*
X78916348Y-52022182D01*
X78916346Y-52022182D01*
X78916346Y-52022183D01*
X78713231Y-52141375D01*
X78533180Y-52293180D01*
X78381375Y-52473231D01*
X78295022Y-52620385D01*
X78262182Y-52676348D01*
X78179030Y-52896686D01*
X78134311Y-53127908D01*
X78132413Y-53163653D01*
X78131500Y-53180835D01*
X78131500Y-55119165D01*
X78133810Y-55162657D01*
X78134311Y-55172092D01*
X78179030Y-55403314D01*
X78262182Y-55623652D01*
X78348648Y-55770998D01*
X78381375Y-55826768D01*
X78518815Y-55989781D01*
X78547378Y-56054333D01*
X78536742Y-56124115D01*
X78490247Y-56177227D01*
X78422485Y-56197000D01*
X77483695Y-56197000D01*
X77480504Y-56196960D01*
X77397261Y-56194851D01*
X77397257Y-56194851D01*
X77342242Y-56204710D01*
X77332767Y-56206039D01*
X77277173Y-56211693D01*
X77250009Y-56220216D01*
X77234523Y-56224017D01*
X77206482Y-56229043D01*
X77154565Y-56249781D01*
X77145548Y-56252991D01*
X77092241Y-56269716D01*
X77067340Y-56283537D01*
X77052942Y-56290375D01*
X77026486Y-56300944D01*
X76979828Y-56331693D01*
X76971644Y-56336652D01*
X76922772Y-56363779D01*
X76901154Y-56382336D01*
X76888426Y-56391932D01*
X76864655Y-56407599D01*
X76825151Y-56447103D01*
X76818131Y-56453608D01*
X76775710Y-56490027D01*
X76758271Y-56512555D01*
X76747731Y-56524522D01*
X72487657Y-60784595D01*
X72446780Y-60811909D01*
X72398562Y-60821500D01*
X71926959Y-60821500D01*
X71823073Y-60832113D01*
X71654762Y-60887885D01*
X71503844Y-60980972D01*
X71378472Y-61106344D01*
X71378470Y-61106348D01*
X71285385Y-61257262D01*
X71276639Y-61283657D01*
X71229613Y-61425574D01*
X71219000Y-61529459D01*
X71219000Y-62930540D01*
X71225798Y-62997080D01*
X71229613Y-63034426D01*
X71285385Y-63202738D01*
X71378279Y-63353342D01*
X71378472Y-63353655D01*
X71400095Y-63375278D01*
X71427409Y-63416155D01*
X71437000Y-63464373D01*
X71437000Y-66125500D01*
X71420119Y-66188500D01*
X71374000Y-66234619D01*
X71311000Y-66251500D01*
X71091362Y-66251500D01*
X71030799Y-66258011D01*
X70893794Y-66309111D01*
X70776738Y-66396738D01*
X70689111Y-66513794D01*
X70658084Y-66596981D01*
X70638011Y-66650799D01*
X70631500Y-66711362D01*
X70631500Y-69308638D01*
X64770500Y-69308638D01*
X64770500Y-54677766D01*
X70535787Y-54677766D01*
X70565413Y-54947015D01*
X70588870Y-55036738D01*
X70633928Y-55209088D01*
X70739870Y-55458390D01*
X70880982Y-55689610D01*
X71054255Y-55897820D01*
X71054256Y-55897821D01*
X71054258Y-55897823D01*
X71255993Y-56078578D01*
X71255995Y-56078579D01*
X71255998Y-56078582D01*
X71481910Y-56228044D01*
X71570807Y-56269717D01*
X71727171Y-56343018D01*
X71727173Y-56343018D01*
X71727176Y-56343020D01*
X71986569Y-56421060D01*
X71986572Y-56421060D01*
X71986574Y-56421061D01*
X72254558Y-56460500D01*
X72254561Y-56460500D01*
X72457630Y-56460500D01*
X72457631Y-56460500D01*
X72660156Y-56445677D01*
X72924553Y-56386780D01*
X73177558Y-56290014D01*
X73413777Y-56157441D01*
X73628177Y-55991888D01*
X73816186Y-55796881D01*
X73973799Y-55576579D01*
X74097656Y-55335675D01*
X74185118Y-55079305D01*
X74234319Y-54812933D01*
X74244212Y-54542235D01*
X74243475Y-54535541D01*
X74222605Y-54345861D01*
X74214586Y-54272982D01*
X74146072Y-54010912D01*
X74040130Y-53761610D01*
X73899018Y-53530390D01*
X73725745Y-53322180D01*
X73725741Y-53322176D01*
X73524006Y-53141421D01*
X73524003Y-53141419D01*
X73524002Y-53141418D01*
X73298090Y-52991956D01*
X73293410Y-52989762D01*
X73052828Y-52876981D01*
X72793425Y-52798938D01*
X72525442Y-52759500D01*
X72525439Y-52759500D01*
X72322369Y-52759500D01*
X72288614Y-52761970D01*
X72119839Y-52774323D01*
X71855449Y-52833219D01*
X71602441Y-52929985D01*
X71366225Y-53062557D01*
X71151820Y-53228114D01*
X70963815Y-53423117D01*
X70806200Y-53643422D01*
X70682342Y-53884328D01*
X70594882Y-54140693D01*
X70545681Y-54407065D01*
X70535787Y-54677766D01*
X64770500Y-54677766D01*
X64770500Y-54612165D01*
X64770573Y-54607863D01*
X64776194Y-54443317D01*
X64781492Y-54288225D01*
X64781531Y-54288226D01*
X64781499Y-54288035D01*
X64788586Y-54089593D01*
X64789162Y-54081277D01*
X64818596Y-53794969D01*
X64843829Y-53560268D01*
X64844928Y-53552409D01*
X64892567Y-53276109D01*
X64892607Y-53275885D01*
X64935863Y-53036128D01*
X64937426Y-53028754D01*
X65002991Y-52759707D01*
X65003311Y-52758427D01*
X65014785Y-52713472D01*
X65064237Y-52519720D01*
X65066204Y-52512845D01*
X65149538Y-52250279D01*
X65149906Y-52249146D01*
X65228321Y-52013546D01*
X65230624Y-52007207D01*
X65331226Y-51752098D01*
X65331959Y-51750283D01*
X65427315Y-51520075D01*
X65429897Y-51514267D01*
X65482338Y-51404000D01*
X82832000Y-51404000D01*
X82832000Y-51964605D01*
X82842466Y-52097591D01*
X82897795Y-52317170D01*
X82991444Y-52523344D01*
X83120400Y-52709482D01*
X83280517Y-52869599D01*
X83466655Y-52998555D01*
X83672829Y-53092204D01*
X83892408Y-53147533D01*
X84025395Y-53158000D01*
X84836000Y-53158000D01*
X84836000Y-51404000D01*
X85344000Y-51404000D01*
X85344000Y-53158000D01*
X86154605Y-53158000D01*
X86287591Y-53147533D01*
X86507170Y-53092204D01*
X86713344Y-52998555D01*
X86899482Y-52869599D01*
X87059599Y-52709482D01*
X87188555Y-52523344D01*
X87282204Y-52317170D01*
X87337533Y-52097591D01*
X87348000Y-51964605D01*
X87348000Y-51404000D01*
X85344000Y-51404000D01*
X84836000Y-51404000D01*
X82832000Y-51404000D01*
X65482338Y-51404000D01*
X65547358Y-51267284D01*
X65548424Y-51265100D01*
X65660217Y-51041766D01*
X65663031Y-51036466D01*
X65742011Y-50896000D01*
X82832000Y-50896000D01*
X84836000Y-50896000D01*
X84836000Y-49142000D01*
X85344000Y-49142000D01*
X85344000Y-50896000D01*
X87348000Y-50896000D01*
X87348000Y-50335395D01*
X87337533Y-50202408D01*
X87282204Y-49982829D01*
X87188555Y-49776655D01*
X87059599Y-49590517D01*
X86899482Y-49430400D01*
X86713344Y-49301444D01*
X86507170Y-49207795D01*
X86287591Y-49152466D01*
X86154605Y-49142000D01*
X85344000Y-49142000D01*
X84836000Y-49142000D01*
X84025395Y-49142000D01*
X83892408Y-49152466D01*
X83672829Y-49207795D01*
X83466655Y-49301444D01*
X83280517Y-49430400D01*
X83120400Y-49590517D01*
X82991444Y-49776655D01*
X82897795Y-49982829D01*
X82842466Y-50202408D01*
X82832000Y-50335395D01*
X82832000Y-50896000D01*
X65742011Y-50896000D01*
X65796856Y-50798458D01*
X65798212Y-50796110D01*
X65925948Y-50580822D01*
X65928871Y-50576139D01*
X66078490Y-50348027D01*
X66080199Y-50345495D01*
X66223146Y-50139612D01*
X66226158Y-50135463D01*
X66390852Y-49918281D01*
X66393002Y-49915531D01*
X66550368Y-49720251D01*
X66553389Y-49716647D01*
X66732427Y-49511318D01*
X66735148Y-49508300D01*
X66906012Y-49324778D01*
X66909053Y-49321627D01*
X67101627Y-49129053D01*
X67104778Y-49126012D01*
X67288300Y-48955147D01*
X67291317Y-48952427D01*
X67496647Y-48773389D01*
X67500251Y-48770368D01*
X67695531Y-48613002D01*
X67698281Y-48610852D01*
X67915463Y-48446158D01*
X67919612Y-48443146D01*
X68125495Y-48300199D01*
X68128027Y-48298490D01*
X68356139Y-48148871D01*
X68360822Y-48145948D01*
X68576110Y-48018212D01*
X68578458Y-48016856D01*
X68816466Y-47883031D01*
X68821766Y-47880217D01*
X69045120Y-47768413D01*
X69047279Y-47767360D01*
X69294267Y-47649897D01*
X69300075Y-47647315D01*
X69530283Y-47551959D01*
X69532098Y-47551226D01*
X69787207Y-47450624D01*
X69793546Y-47448321D01*
X70029146Y-47369906D01*
X70030279Y-47369538D01*
X70292845Y-47286204D01*
X70299720Y-47284237D01*
X70538430Y-47223310D01*
X70539706Y-47222991D01*
X70808754Y-47157426D01*
X70816128Y-47155863D01*
X71055885Y-47112607D01*
X71056109Y-47112567D01*
X71332409Y-47064928D01*
X71340268Y-47063829D01*
X71575057Y-47038586D01*
X71861277Y-47009162D01*
X71869593Y-47008586D01*
X72068035Y-47001499D01*
X72068226Y-47001531D01*
X72068225Y-47001492D01*
X72387863Y-46990572D01*
X72392165Y-46990500D01*
X148587835Y-46990500D01*
X148592136Y-46990572D01*
G37*
%TD.AperFunction*%
%TD*%
M02*
