M48
; DRILL file {KiCad 7.0.10} date Tue 16 Jan 2024 10:05:50 AM CST
; FORMAT={-:-/ absolute / inch / decimal}
; #@! TF.CreationDate,2024-01-16T10:05:50-06:00
; #@! TF.GenerationSoftware,Kicad,Pcbnew,7.0.10
; #@! TF.FileFunction,Plated,1,2,PTH
FMAT,2
INCH
; #@! TA.AperFunction,Plated,PTH,ViaDrill
T1C0.0100
; #@! TA.AperFunction,Plated,PTH,ViaDrill
T2C0.0157
; #@! TA.AperFunction,Plated,PTH,ComponentDrill
T3C0.0315
; #@! TA.AperFunction,Plated,PTH,ComponentDrill
T4C0.0394
; #@! TA.AperFunction,Plated,PTH,ComponentDrill
T5C0.0591
; #@! TA.AperFunction,Plated,PTH,ComponentDrill
T6C0.0827
%
G90
G05
T1
X3.79Y-2.564
X3.815Y-2.588
X3.842Y-2.538
X3.845Y-2.614
X3.9Y-2.714
X3.957Y-2.664
X3.99Y-2.689
X4.01Y-2.64
X4.02Y-2.74
X4.086Y-2.564
X4.11Y-2.589
X4.143Y-2.614
X4.144Y-2.538
X4.2Y-2.74
X4.257Y-2.663
X4.285Y-2.689
X4.31Y-2.64
X4.314Y-2.714
X4.35Y-2.74
X4.416Y-2.589
X4.444Y-2.538
X4.444Y-2.614
X4.5Y-2.564
X4.556Y-2.663
X4.585Y-2.688
X4.61Y-2.64
X4.614Y-2.714
T2
X3.75Y-3.75
X4.05Y-3.15
X4.7249Y-2.5635
X4.7249Y-2.7135
X4.8749Y-2.5635
X4.8749Y-2.7385
X4.8999Y-2.5885
X4.9249Y-2.6635
X4.9249Y-2.7135
X5.0749Y-2.6135
X5.0749Y-2.6635
X5.15Y-2.45
X5.5Y-2.675
X5.6969Y-2.6781
X6.0Y-2.525
X6.0Y-3.75
T3
X3.5Y-2.4539
X3.5Y-2.5524
X5.2Y-2.0
X5.2Y-2.3
X5.3Y-2.0
X5.3Y-2.3
X5.4Y-2.0
X5.4Y-2.3
X5.5Y-2.0
X5.5Y-2.3
T4
X5.5Y-2.8646
X5.5Y-3.4354
X5.5984Y-2.8646
X5.6969Y-2.8646
X5.6969Y-3.4354
T5
X3.15Y-3.5
X3.15Y-3.75
T4
G00X3.165Y-2.0925
M15
G01X3.165Y-2.1713
M16
G05
G00X3.3894Y-2.0138
M15
G01X3.3106Y-2.0138
M16
G05
G00X3.3894Y-2.25
M15
G01X3.3106Y-2.25
M16
G05
T6
G00X5.3386Y-3.1618
M15
G01X5.3386Y-3.1579
M16
G05
G00X5.8583Y-3.1618
M15
G01X5.8583Y-3.1579
M16
G05
M30
