%TF.GenerationSoftware,KiCad,Pcbnew,7.0.5*%
%TF.CreationDate,2023-06-05T17:05:26-05:00*%
%TF.ProjectId,byte,62797465-2e6b-4696-9361-645f70636258,B*%
%TF.SameCoordinates,Original*%
%TF.FileFunction,Paste,Top*%
%TF.FilePolarity,Positive*%
%FSLAX46Y46*%
G04 Gerber Fmt 4.6, Leading zero omitted, Abs format (unit mm)*
G04 Created by KiCad (PCBNEW 7.0.5) date 2023-06-05 17:05:26*
%MOMM*%
%LPD*%
G01*
G04 APERTURE LIST*
G04 Aperture macros list*
%AMRoundRect*
0 Rectangle with rounded corners*
0 $1 Rounding radius*
0 $2 $3 $4 $5 $6 $7 $8 $9 X,Y pos of 4 corners*
0 Add a 4 corners polygon primitive as box body*
4,1,4,$2,$3,$4,$5,$6,$7,$8,$9,$2,$3,0*
0 Add four circle primitives for the rounded corners*
1,1,$1+$1,$2,$3*
1,1,$1+$1,$4,$5*
1,1,$1+$1,$6,$7*
1,1,$1+$1,$8,$9*
0 Add four rect primitives between the rounded corners*
20,1,$1+$1,$2,$3,$4,$5,0*
20,1,$1+$1,$4,$5,$6,$7,0*
20,1,$1+$1,$6,$7,$8,$9,0*
20,1,$1+$1,$8,$9,$2,$3,0*%
G04 Aperture macros list end*
%ADD10R,2.500000X2.500000*%
%ADD11RoundRect,0.250000X0.400000X0.625000X-0.400000X0.625000X-0.400000X-0.625000X0.400000X-0.625000X0*%
%ADD12RoundRect,0.250001X0.624999X-0.462499X0.624999X0.462499X-0.624999X0.462499X-0.624999X-0.462499X0*%
%ADD13RoundRect,0.250001X-0.624999X0.462499X-0.624999X-0.462499X0.624999X-0.462499X0.624999X0.462499X0*%
%ADD14RoundRect,0.250000X-0.625000X0.400000X-0.625000X-0.400000X0.625000X-0.400000X0.625000X0.400000X0*%
%ADD15RoundRect,0.250000X-0.412500X-0.650000X0.412500X-0.650000X0.412500X0.650000X-0.412500X0.650000X0*%
%ADD16RoundRect,0.250000X0.650000X-0.412500X0.650000X0.412500X-0.650000X0.412500X-0.650000X-0.412500X0*%
%ADD17R,0.900000X2.800000*%
%ADD18RoundRect,0.250000X-0.400000X-0.625000X0.400000X-0.625000X0.400000X0.625000X-0.400000X0.625000X0*%
%ADD19RoundRect,0.250001X-0.462499X-0.624999X0.462499X-0.624999X0.462499X0.624999X-0.462499X0.624999X0*%
%ADD20RoundRect,0.250000X-0.650000X0.412500X-0.650000X-0.412500X0.650000X-0.412500X0.650000X0.412500X0*%
%ADD21R,1.600000X0.410000*%
G04 APERTURE END LIST*
D10*
%TO.C,PS1*%
X72390000Y-68010000D03*
X83390000Y-68010000D03*
X83390000Y-80010000D03*
X72390000Y-80010000D03*
%TD*%
D11*
%TO.C,R6*%
X138710000Y-95250000D03*
X135610000Y-95250000D03*
%TD*%
%TO.C,R2*%
X149150000Y-61595000D03*
X146050000Y-61595000D03*
%TD*%
D12*
%TO.C,D2*%
X123190000Y-95250000D03*
X123190000Y-92275000D03*
%TD*%
%TO.C,D8*%
X92710000Y-95250000D03*
X92710000Y-92275000D03*
%TD*%
%TO.C,D1*%
X128270000Y-95250000D03*
X128270000Y-92275000D03*
%TD*%
D13*
%TO.C,D13*%
X106815000Y-50800000D03*
X106815000Y-53775000D03*
%TD*%
D11*
%TO.C,R4*%
X149150000Y-66675000D03*
X146050000Y-66675000D03*
%TD*%
%TO.C,R5*%
X149150000Y-95250000D03*
X146050000Y-95250000D03*
%TD*%
D14*
%TO.C,R3*%
X121920000Y-71819500D03*
X121920000Y-74919500D03*
%TD*%
D15*
%TO.C,C2*%
X72390000Y-62230000D03*
X75515000Y-62230000D03*
%TD*%
D16*
%TO.C,C3*%
X89408000Y-79756000D03*
X89408000Y-76631000D03*
%TD*%
D17*
%TO.C,D11*%
X103800000Y-72019500D03*
X105240000Y-72019500D03*
X106680000Y-72019500D03*
X108120000Y-72019500D03*
X109560000Y-72019500D03*
X109560000Y-62019500D03*
X108120000Y-62019500D03*
X106680000Y-62019500D03*
X105240000Y-62019500D03*
X103800000Y-62019500D03*
%TD*%
D13*
%TO.C,D15*%
X123190000Y-50800000D03*
X123190000Y-53775000D03*
%TD*%
D15*
%TO.C,C6*%
X130810000Y-64770000D03*
X133935000Y-64770000D03*
%TD*%
D12*
%TO.C,D3*%
X118110000Y-95250000D03*
X118110000Y-92275000D03*
%TD*%
%TO.C,D6*%
X102870000Y-95250000D03*
X102870000Y-92275000D03*
%TD*%
D17*
%TO.C,D12*%
X111420000Y-72017500D03*
X112860000Y-72017500D03*
X114300000Y-72017500D03*
X115740000Y-72017500D03*
X117180000Y-72017500D03*
X117180000Y-62017500D03*
X115740000Y-62017500D03*
X114300000Y-62017500D03*
X112860000Y-62017500D03*
X111420000Y-62017500D03*
%TD*%
D12*
%TO.C,D5*%
X107950000Y-95250000D03*
X107950000Y-92275000D03*
%TD*%
D13*
%TO.C,D14*%
X114300000Y-50800000D03*
X114300000Y-53775000D03*
%TD*%
D18*
%TO.C,R1*%
X78460000Y-101600000D03*
X81560000Y-101600000D03*
%TD*%
D17*
%TO.C,D10*%
X96180000Y-72019500D03*
X97620000Y-72019500D03*
X99060000Y-72019500D03*
X100500000Y-72019500D03*
X101940000Y-72019500D03*
X101940000Y-62019500D03*
X100500000Y-62019500D03*
X99060000Y-62019500D03*
X97620000Y-62019500D03*
X96180000Y-62019500D03*
%TD*%
D12*
%TO.C,D7*%
X97790000Y-95250000D03*
X97790000Y-92275000D03*
%TD*%
%TO.C,D4*%
X113030000Y-95250000D03*
X113030000Y-92275000D03*
%TD*%
D19*
%TO.C,D9*%
X78522500Y-106680000D03*
X81497500Y-106680000D03*
%TD*%
D20*
%TO.C,C7*%
X128270000Y-71807000D03*
X128270000Y-74932000D03*
%TD*%
D21*
%TO.C,U3*%
X121805700Y-64797000D03*
X121805700Y-65432000D03*
X121805700Y-66067000D03*
X121805700Y-66702000D03*
X121805700Y-67337000D03*
X121805700Y-67972000D03*
X121805700Y-68607000D03*
X121805700Y-69242000D03*
X127114300Y-69242000D03*
X127114300Y-68607000D03*
X127114300Y-67972000D03*
X127114300Y-67337000D03*
X127114300Y-66702000D03*
X127114300Y-66067000D03*
X127114300Y-65432000D03*
X127114300Y-64797000D03*
%TD*%
M02*
