%TF.GenerationSoftware,KiCad,Pcbnew,7.0.5*%
%TF.CreationDate,2023-06-05T17:05:26-05:00*%
%TF.ProjectId,byte,62797465-2e6b-4696-9361-645f70636258,B*%
%TF.SameCoordinates,Original*%
%TF.FileFunction,Copper,L2,Bot*%
%TF.FilePolarity,Positive*%
%FSLAX46Y46*%
G04 Gerber Fmt 4.6, Leading zero omitted, Abs format (unit mm)*
G04 Created by KiCad (PCBNEW 7.0.5) date 2023-06-05 17:05:26*
%MOMM*%
%LPD*%
G01*
G04 APERTURE LIST*
G04 Aperture macros list*
%AMRoundRect*
0 Rectangle with rounded corners*
0 $1 Rounding radius*
0 $2 $3 $4 $5 $6 $7 $8 $9 X,Y pos of 4 corners*
0 Add a 4 corners polygon primitive as box body*
4,1,4,$2,$3,$4,$5,$6,$7,$8,$9,$2,$3,0*
0 Add four circle primitives for the rounded corners*
1,1,$1+$1,$2,$3*
1,1,$1+$1,$4,$5*
1,1,$1+$1,$6,$7*
1,1,$1+$1,$8,$9*
0 Add four rect primitives between the rounded corners*
20,1,$1+$1,$2,$3,$4,$5,0*
20,1,$1+$1,$4,$5,$6,$7,0*
20,1,$1+$1,$6,$7,$8,$9,0*
20,1,$1+$1,$8,$9,$2,$3,0*%
G04 Aperture macros list end*
%TA.AperFunction,ComponentPad*%
%ADD10C,1.524000*%
%TD*%
%TA.AperFunction,ComponentPad*%
%ADD11O,2.900000X3.000000*%
%TD*%
%TA.AperFunction,ComponentPad*%
%ADD12C,3.000000*%
%TD*%
%TA.AperFunction,ComponentPad*%
%ADD13R,3.500000X3.500000*%
%TD*%
%TA.AperFunction,ComponentPad*%
%ADD14RoundRect,0.750000X-1.000000X0.750000X-1.000000X-0.750000X1.000000X-0.750000X1.000000X0.750000X0*%
%TD*%
%TA.AperFunction,ComponentPad*%
%ADD15RoundRect,0.875000X-0.875000X0.875000X-0.875000X-0.875000X0.875000X-0.875000X0.875000X0.875000X0*%
%TD*%
%TA.AperFunction,ComponentPad*%
%ADD16R,1.600000X1.600000*%
%TD*%
%TA.AperFunction,ComponentPad*%
%ADD17C,1.600000*%
%TD*%
%TA.AperFunction,ComponentPad*%
%ADD18O,1.600000X1.600000*%
%TD*%
%TA.AperFunction,ViaPad*%
%ADD19C,0.800000*%
%TD*%
%TA.AperFunction,ViaPad*%
%ADD20C,0.508000*%
%TD*%
%TA.AperFunction,ViaPad*%
%ADD21C,0.635000*%
%TD*%
%TA.AperFunction,Conductor*%
%ADD22C,0.381000*%
%TD*%
G04 APERTURE END LIST*
D10*
%TO.P,SW1,A,A*%
%TO.N,A*%
X144700000Y-72760000D03*
%TO.P,SW1,B,B*%
%TO.N,B*%
X139700000Y-72760000D03*
%TO.P,SW1,C,C*%
%TO.N,GND*%
X142200000Y-72760000D03*
%TO.P,SW1,S1,S1*%
%TO.N,SWITCH*%
X144700000Y-87260000D03*
%TO.P,SW1,S2,S2*%
%TO.N,Net-(R6-Pad1)*%
X139700000Y-87260000D03*
D11*
%TO.P,SW1,SH*%
%TO.N,N/C*%
X148800000Y-80260000D03*
X135600000Y-80260000D03*
%TD*%
D12*
%TO.P,TP1,1,1*%
%TO.N,GND*%
X80010000Y-88900000D03*
%TD*%
D13*
%TO.P,J1,1*%
%TO.N,Net-(PS1-+VIN)*%
X85090000Y-57150000D03*
D14*
%TO.P,J1,2*%
%TO.N,GND*%
X85090000Y-51150000D03*
D15*
%TO.P,J1,3*%
%TO.N,N/C*%
X80390000Y-54150000D03*
%TD*%
D12*
%TO.P,TP2,1,1*%
%TO.N,+3V3*%
X80010000Y-95250000D03*
%TD*%
D16*
%TO.P,C1,1*%
%TO.N,Net-(PS1-+VIN)*%
X88900000Y-62329861D03*
D17*
%TO.P,C1,2*%
%TO.N,GND*%
X88900000Y-64829861D03*
%TD*%
D16*
%TO.P,U1,1,~{RESET}/PB5*%
%TO.N,SWITCH*%
X132080000Y-58420000D03*
D18*
%TO.P,U1,2,XTAL1/PB3*%
%TO.N,A*%
X134620000Y-58420000D03*
%TO.P,U1,3,XTAL2/PB4*%
%TO.N,B*%
X137160000Y-58420000D03*
%TO.P,U1,4,GND*%
%TO.N,GND*%
X139700000Y-58420000D03*
%TO.P,U1,5,AREF/PB0*%
%TO.N,MOSI*%
X139700000Y-50800000D03*
%TO.P,U1,6,PB1*%
%TO.N,CS*%
X137160000Y-50800000D03*
%TO.P,U1,7,PB2*%
%TO.N,CLK*%
X134620000Y-50800000D03*
%TO.P,U1,8,VCC*%
%TO.N,+3V3*%
X132080000Y-50800000D03*
%TD*%
D19*
%TO.N,+3V3*%
X130810000Y-62230000D03*
X152400000Y-95250000D03*
X152400000Y-64135000D03*
D20*
%TO.N,/LED_driver/SEG3*%
X105257600Y-64465200D03*
X97586800Y-64465200D03*
D21*
X123823000Y-65112500D03*
D20*
X112877600Y-64465200D03*
D19*
X95250000Y-95250000D03*
%TO.N,/LED_driver/SEG2*%
X102870000Y-80010000D03*
D20*
X96266000Y-65125600D03*
X114300000Y-65125600D03*
D21*
X120013000Y-65112500D03*
D20*
X103784400Y-65125600D03*
D21*
%TO.N,/LED_driver/SEG1*%
X123823000Y-69557500D03*
D20*
X110490000Y-69596000D03*
X102108000Y-69596000D03*
X106680000Y-69596000D03*
%TO.N,/LED_driver/SEG0*%
X109575600Y-68935600D03*
X117195600Y-68935600D03*
D21*
X120013000Y-68922500D03*
D20*
X99060000Y-68935600D03*
D21*
%TO.N,/LED_driver/SEG8*%
X125093000Y-68922500D03*
D20*
X116459000Y-68275200D03*
X101346000Y-68300600D03*
X108839000Y-68300600D03*
%TO.N,/LED_driver/SEG7*%
X117094000Y-67056000D03*
X109474000Y-67056000D03*
X101854000Y-67056000D03*
D21*
X128903000Y-67652500D03*
%TO.N,/LED_driver/SEG6*%
X125093000Y-67652500D03*
D20*
X100507800Y-67665600D03*
X115722400Y-67640200D03*
X108127800Y-67640200D03*
%TO.N,/LED_driver/SEG5*%
X105232200Y-66395600D03*
X97663000Y-66395600D03*
X112877600Y-66395600D03*
D21*
X128903000Y-66382500D03*
D20*
%TO.N,/LED_driver/SEG4*%
X112166400Y-65760600D03*
D21*
X124458000Y-65747500D03*
D20*
X96901000Y-65735200D03*
X104394000Y-65760600D03*
D19*
%TO.N,B*%
X139700000Y-67945000D03*
%TO.N,A*%
X144700000Y-68025000D03*
%TD*%
D22*
%TO.N,SWITCH*%
X132080000Y-58420000D02*
X132080000Y-71120000D01*
X132080000Y-71120000D02*
X144700000Y-83740000D01*
X144700000Y-83740000D02*
X144700000Y-87260000D01*
%TO.N,/LED_driver/SEG3*%
X95554800Y-64465200D02*
X93345000Y-66675000D01*
X93345000Y-66675000D02*
X93345000Y-93345000D01*
X105154000Y-64477500D02*
X114298000Y-64477500D01*
X97534000Y-64477500D02*
X105154000Y-64477500D01*
X123188000Y-64477500D02*
X123823000Y-65112500D01*
X93345000Y-93345000D02*
X95250000Y-95250000D01*
X97586800Y-64465200D02*
X95554800Y-64465200D01*
X114298000Y-64477500D02*
X123188000Y-64477500D01*
%TO.N,/LED_driver/SEG2*%
X96266000Y-65125600D02*
X96256500Y-65135100D01*
X95250000Y-71120000D02*
X102870000Y-78740000D01*
X120013000Y-65112500D02*
X119378000Y-65112500D01*
X96154900Y-65135100D02*
X95250000Y-66040000D01*
X96256500Y-65135100D02*
X96154900Y-65135100D01*
X95250000Y-66040000D02*
X95250000Y-71120000D01*
X106551000Y-65112500D02*
X112774000Y-65112500D01*
X119378000Y-65112500D02*
X112774000Y-65112500D01*
X102870000Y-78740000D02*
X102870000Y-80010000D01*
X96264000Y-65112500D02*
X106551000Y-65112500D01*
%TO.N,/LED_driver/SEG1*%
X110490000Y-69596000D02*
X102108000Y-69596000D01*
X117448618Y-69557500D02*
X121918000Y-69557500D01*
X110488000Y-69557500D02*
X117448618Y-69557500D01*
X121918000Y-69557500D02*
X123823000Y-69557500D01*
%TO.N,/LED_driver/SEG0*%
X109573600Y-68922500D02*
X117219000Y-68922500D01*
X120013000Y-68922500D02*
X117219000Y-68922500D01*
X99073100Y-68922500D02*
X99060000Y-68935600D01*
X101902800Y-68922500D02*
X109573600Y-68922500D01*
X101902800Y-68922500D02*
X99073100Y-68922500D01*
%TO.N,/LED_driver/SEG8*%
X124458000Y-68287500D02*
X101359100Y-68287500D01*
X101359100Y-68287500D02*
X101346000Y-68300600D01*
X125093000Y-68922500D02*
X124458000Y-68287500D01*
%TO.N,/LED_driver/SEG7*%
X101852000Y-67017500D02*
X109472000Y-67017500D01*
X128268000Y-67017500D02*
X128903000Y-67652500D01*
X109472000Y-67017500D02*
X117092000Y-67017500D01*
X117092000Y-67017500D02*
X128268000Y-67017500D01*
%TO.N,/LED_driver/SEG6*%
X125093000Y-67652500D02*
X100520900Y-67652500D01*
X100520900Y-67652500D02*
X100507800Y-67665600D01*
%TO.N,/LED_driver/SEG5*%
X105154000Y-66382500D02*
X112901000Y-66382500D01*
X128903000Y-66382500D02*
X112901000Y-66382500D01*
X97661000Y-66382500D02*
X105154000Y-66382500D01*
%TO.N,/LED_driver/SEG4*%
X96899000Y-65747500D02*
X112139000Y-65747500D01*
X112139000Y-65747500D02*
X124458000Y-65747500D01*
%TO.N,B*%
X137160000Y-58420000D02*
X137160000Y-65405000D01*
X137160000Y-65405000D02*
X139700000Y-67945000D01*
%TO.N,A*%
X142875000Y-69850000D02*
X144700000Y-68025000D01*
X134620000Y-58420000D02*
X134620000Y-66675000D01*
X137795000Y-69850000D02*
X142875000Y-69850000D01*
X134620000Y-66675000D02*
X137795000Y-69850000D01*
%TD*%
%TA.AperFunction,Conductor*%
%TO.N,+3V3*%
G36*
X148591062Y-46990537D02*
G01*
X148738197Y-46995562D01*
X148911772Y-47001492D01*
X148911772Y-47001537D01*
X148911963Y-47001499D01*
X149112504Y-47008661D01*
X149116634Y-47008947D01*
X149405033Y-47038595D01*
X149641724Y-47064043D01*
X149645614Y-47064587D01*
X149923985Y-47112583D01*
X150165717Y-47156196D01*
X150169392Y-47156975D01*
X150377362Y-47207655D01*
X150440908Y-47223142D01*
X150538977Y-47248172D01*
X150682027Y-47284683D01*
X150685431Y-47285657D01*
X150950290Y-47369719D01*
X151188070Y-47448860D01*
X151191218Y-47450003D01*
X151344297Y-47510370D01*
X151448807Y-47551584D01*
X151681370Y-47647914D01*
X151684302Y-47649217D01*
X151933210Y-47767593D01*
X151934329Y-47768139D01*
X152159577Y-47880890D01*
X152162239Y-47882303D01*
X152402120Y-48017181D01*
X152403351Y-48017893D01*
X152620331Y-48146633D01*
X152622711Y-48148117D01*
X152852587Y-48298893D01*
X152853902Y-48299781D01*
X153061408Y-48443855D01*
X153063522Y-48445389D01*
X153282396Y-48611367D01*
X153283795Y-48612460D01*
X153480653Y-48771098D01*
X153482483Y-48772632D01*
X153562054Y-48842014D01*
X153689422Y-48953074D01*
X153690947Y-48954449D01*
X153876015Y-49126751D01*
X153877604Y-49128285D01*
X154071712Y-49322393D01*
X154073247Y-49323983D01*
X154245549Y-49509051D01*
X154246924Y-49510576D01*
X154427351Y-49717497D01*
X154428909Y-49719356D01*
X154488903Y-49793804D01*
X154587510Y-49916167D01*
X154588646Y-49917621D01*
X154637965Y-49982658D01*
X154754592Y-50136453D01*
X154756143Y-50138590D01*
X154900198Y-50346068D01*
X154901128Y-50347446D01*
X155051864Y-50577261D01*
X155053365Y-50579667D01*
X155182105Y-50796647D01*
X155182839Y-50797917D01*
X155317686Y-51037743D01*
X155319108Y-51040421D01*
X155431859Y-51265669D01*
X155432416Y-51266811D01*
X155550773Y-51515679D01*
X155552084Y-51518628D01*
X155648414Y-51751191D01*
X155749984Y-52008752D01*
X155751153Y-52011969D01*
X155830281Y-52249712D01*
X155844078Y-52293181D01*
X155914329Y-52514525D01*
X155915324Y-52518004D01*
X155976856Y-52759090D01*
X156043014Y-53030563D01*
X156043804Y-53034295D01*
X156087415Y-53276011D01*
X156135405Y-53554344D01*
X156135960Y-53558315D01*
X156161434Y-53795261D01*
X156191048Y-54083332D01*
X156191339Y-54087528D01*
X156198526Y-54288780D01*
X156198540Y-54289179D01*
X156198541Y-54289232D01*
X156209463Y-54608938D01*
X156209500Y-54611089D01*
X156209500Y-105408910D01*
X156209463Y-105411061D01*
X156198510Y-105731677D01*
X156191339Y-105932471D01*
X156191048Y-105936666D01*
X156161434Y-106224737D01*
X156135960Y-106461683D01*
X156135405Y-106465654D01*
X156087415Y-106743987D01*
X156043804Y-106985703D01*
X156043014Y-106989435D01*
X155976856Y-107260908D01*
X155915324Y-107501994D01*
X155914329Y-107505473D01*
X155830287Y-107770269D01*
X155751153Y-108008029D01*
X155749984Y-108011246D01*
X155648414Y-108268807D01*
X155552084Y-108501370D01*
X155550773Y-108504319D01*
X155432416Y-108753187D01*
X155431859Y-108754329D01*
X155319108Y-108979577D01*
X155317686Y-108982255D01*
X155182839Y-109222081D01*
X155182105Y-109223351D01*
X155053365Y-109440331D01*
X155051864Y-109442737D01*
X154901128Y-109672552D01*
X154900198Y-109673930D01*
X154756143Y-109881408D01*
X154754592Y-109883545D01*
X154588654Y-110102367D01*
X154587510Y-110103831D01*
X154428922Y-110300627D01*
X154427351Y-110302501D01*
X154246924Y-110509422D01*
X154245549Y-110510947D01*
X154073247Y-110696015D01*
X154071685Y-110697633D01*
X153877633Y-110891685D01*
X153876015Y-110893247D01*
X153690947Y-111065549D01*
X153689422Y-111066924D01*
X153482501Y-111247351D01*
X153480627Y-111248922D01*
X153283831Y-111407510D01*
X153282367Y-111408654D01*
X153063545Y-111574592D01*
X153061408Y-111576143D01*
X152853930Y-111720198D01*
X152852552Y-111721128D01*
X152622737Y-111871864D01*
X152620331Y-111873365D01*
X152403351Y-112002105D01*
X152402081Y-112002839D01*
X152162255Y-112137686D01*
X152159577Y-112139108D01*
X151934329Y-112251859D01*
X151933187Y-112252416D01*
X151684319Y-112370773D01*
X151681370Y-112372084D01*
X151448807Y-112468414D01*
X151191246Y-112569984D01*
X151188029Y-112571153D01*
X150950269Y-112650287D01*
X150685473Y-112734329D01*
X150681994Y-112735324D01*
X150440908Y-112796856D01*
X150169435Y-112863014D01*
X150165703Y-112863804D01*
X149923987Y-112907415D01*
X149645654Y-112955405D01*
X149641683Y-112955960D01*
X149404737Y-112981434D01*
X149116666Y-113011048D01*
X149112470Y-113011339D01*
X148911872Y-113018503D01*
X148591062Y-113029463D01*
X148588911Y-113029500D01*
X72391089Y-113029500D01*
X72388938Y-113029463D01*
X72069232Y-113018541D01*
X72069179Y-113018540D01*
X72068816Y-113018527D01*
X72068317Y-113018510D01*
X72068225Y-113018507D01*
X72068225Y-113018506D01*
X71867528Y-113011339D01*
X71863332Y-113011048D01*
X71575261Y-112981434D01*
X71338315Y-112955960D01*
X71334344Y-112955405D01*
X71056011Y-112907415D01*
X70814295Y-112863804D01*
X70810563Y-112863014D01*
X70539090Y-112796856D01*
X70298004Y-112735324D01*
X70294525Y-112734329D01*
X70228581Y-112713399D01*
X70029712Y-112650281D01*
X69791969Y-112571153D01*
X69788752Y-112569984D01*
X69531191Y-112468414D01*
X69298628Y-112372084D01*
X69295679Y-112370773D01*
X69046811Y-112252416D01*
X69045669Y-112251859D01*
X68820421Y-112139108D01*
X68817743Y-112137686D01*
X68577917Y-112002839D01*
X68576647Y-112002105D01*
X68359667Y-111873365D01*
X68357261Y-111871864D01*
X68127446Y-111721128D01*
X68126068Y-111720198D01*
X67918590Y-111576143D01*
X67916453Y-111574592D01*
X67697631Y-111408654D01*
X67696186Y-111407525D01*
X67499356Y-111248909D01*
X67497497Y-111247351D01*
X67290576Y-111066924D01*
X67289051Y-111065549D01*
X67103983Y-110893247D01*
X67102393Y-110891712D01*
X66908285Y-110697604D01*
X66906751Y-110696015D01*
X66734449Y-110510947D01*
X66733074Y-110509422D01*
X66622014Y-110382054D01*
X66552632Y-110302483D01*
X66551098Y-110300653D01*
X66392460Y-110103795D01*
X66391367Y-110102396D01*
X66225389Y-109883522D01*
X66223855Y-109881408D01*
X66079781Y-109673902D01*
X66078893Y-109672587D01*
X65928117Y-109442711D01*
X65926633Y-109440331D01*
X65797893Y-109223351D01*
X65797181Y-109222120D01*
X65662303Y-108982239D01*
X65660890Y-108979577D01*
X65548139Y-108754329D01*
X65547582Y-108753187D01*
X65515053Y-108684788D01*
X65429217Y-108504302D01*
X65427914Y-108501370D01*
X65331584Y-108268807D01*
X65290370Y-108164297D01*
X65230003Y-108011218D01*
X65228860Y-108008070D01*
X65149719Y-107770290D01*
X65065657Y-107505431D01*
X65064683Y-107502027D01*
X65028172Y-107358977D01*
X65003142Y-107260908D01*
X64987655Y-107197362D01*
X64936975Y-106989393D01*
X64936194Y-106985703D01*
X64892583Y-106743985D01*
X64844587Y-106465614D01*
X64844043Y-106461724D01*
X64818595Y-106225033D01*
X64788948Y-105936636D01*
X64788661Y-105932504D01*
X64781489Y-105731676D01*
X64772816Y-105477765D01*
X70535788Y-105477765D01*
X70565412Y-105747014D01*
X70633928Y-106009090D01*
X70739869Y-106258389D01*
X70739870Y-106258390D01*
X70880982Y-106489610D01*
X71054255Y-106697820D01*
X71054257Y-106697822D01*
X71054259Y-106697824D01*
X71159236Y-106791883D01*
X71255998Y-106878582D01*
X71481910Y-107028044D01*
X71727176Y-107143020D01*
X71986569Y-107221060D01*
X71986572Y-107221060D01*
X71986574Y-107221061D01*
X72254557Y-107260500D01*
X72254561Y-107260500D01*
X72457631Y-107260500D01*
X72660156Y-107245677D01*
X72660160Y-107245676D01*
X72660161Y-107245676D01*
X72796451Y-107215316D01*
X72924553Y-107186780D01*
X73177558Y-107090014D01*
X73413777Y-106957441D01*
X73628177Y-106791888D01*
X73816186Y-106596881D01*
X73973799Y-106376579D01*
X74097656Y-106135675D01*
X74185118Y-105879305D01*
X74212386Y-105731676D01*
X74234318Y-105612941D01*
X74234319Y-105612930D01*
X74239259Y-105477765D01*
X146735788Y-105477765D01*
X146765412Y-105747014D01*
X146833928Y-106009090D01*
X146939869Y-106258389D01*
X146939870Y-106258390D01*
X147080982Y-106489610D01*
X147254255Y-106697820D01*
X147254257Y-106697822D01*
X147254259Y-106697824D01*
X147359236Y-106791883D01*
X147455998Y-106878582D01*
X147681910Y-107028044D01*
X147927176Y-107143020D01*
X148186569Y-107221060D01*
X148186572Y-107221060D01*
X148186574Y-107221061D01*
X148454557Y-107260500D01*
X148454561Y-107260500D01*
X148657631Y-107260500D01*
X148860156Y-107245677D01*
X148860160Y-107245676D01*
X148860161Y-107245676D01*
X148996451Y-107215316D01*
X149124553Y-107186780D01*
X149377558Y-107090014D01*
X149613777Y-106957441D01*
X149828177Y-106791888D01*
X150016186Y-106596881D01*
X150173799Y-106376579D01*
X150297656Y-106135675D01*
X150385118Y-105879305D01*
X150412386Y-105731676D01*
X150434318Y-105612941D01*
X150434319Y-105612930D01*
X150444212Y-105342235D01*
X150429338Y-105207058D01*
X150414587Y-105072985D01*
X150346071Y-104810909D01*
X150240130Y-104561610D01*
X150240129Y-104561609D01*
X150099018Y-104330390D01*
X149925745Y-104122180D01*
X149925741Y-104122177D01*
X149925740Y-104122175D01*
X149724012Y-103941427D01*
X149724002Y-103941418D01*
X149498090Y-103791956D01*
X149252824Y-103676980D01*
X149095392Y-103629615D01*
X148993425Y-103598938D01*
X148725442Y-103559500D01*
X148725439Y-103559500D01*
X148522369Y-103559500D01*
X148319839Y-103574323D01*
X148319838Y-103574323D01*
X148055456Y-103633217D01*
X148055441Y-103633222D01*
X147802441Y-103729986D01*
X147566229Y-103862555D01*
X147566225Y-103862557D01*
X147351818Y-104028116D01*
X147163815Y-104223117D01*
X147163810Y-104223123D01*
X147006203Y-104443417D01*
X147006196Y-104443427D01*
X146882343Y-104684324D01*
X146882342Y-104684327D01*
X146794883Y-104940689D01*
X146794880Y-104940702D01*
X146745681Y-105207058D01*
X146745680Y-105207069D01*
X146735788Y-105477765D01*
X74239259Y-105477765D01*
X74244212Y-105342235D01*
X74229338Y-105207058D01*
X74214587Y-105072985D01*
X74146071Y-104810909D01*
X74040130Y-104561610D01*
X74040129Y-104561610D01*
X73899018Y-104330390D01*
X73725745Y-104122180D01*
X73725741Y-104122177D01*
X73725740Y-104122175D01*
X73524012Y-103941427D01*
X73524002Y-103941418D01*
X73298090Y-103791956D01*
X73052824Y-103676980D01*
X72895392Y-103629615D01*
X72793425Y-103598938D01*
X72525442Y-103559500D01*
X72525439Y-103559500D01*
X72322369Y-103559500D01*
X72119839Y-103574323D01*
X72119838Y-103574323D01*
X71855456Y-103633217D01*
X71855441Y-103633222D01*
X71602441Y-103729986D01*
X71366229Y-103862555D01*
X71366225Y-103862557D01*
X71151818Y-104028116D01*
X70963815Y-104223117D01*
X70963810Y-104223123D01*
X70806203Y-104443417D01*
X70806196Y-104443427D01*
X70682343Y-104684324D01*
X70682342Y-104684327D01*
X70594883Y-104940689D01*
X70594880Y-104940702D01*
X70545681Y-105207058D01*
X70545680Y-105207069D01*
X70535788Y-105477765D01*
X64772816Y-105477765D01*
X64770537Y-105411061D01*
X64770500Y-105408910D01*
X64770500Y-95250004D01*
X77997308Y-95250004D01*
X78016052Y-95524048D01*
X78016053Y-95524054D01*
X78071942Y-95793011D01*
X78071944Y-95793019D01*
X78163938Y-96051865D01*
X78290314Y-96295756D01*
X78290316Y-96295759D01*
X78420541Y-96480248D01*
X79331099Y-95569690D01*
X79356059Y-95627553D01*
X79460756Y-95768185D01*
X79595062Y-95880882D01*
X79690430Y-95928777D01*
X78780715Y-96838492D01*
X78780715Y-96838494D01*
X78849313Y-96894304D01*
X78849318Y-96894307D01*
X79084030Y-97037038D01*
X79335989Y-97146480D01*
X79600509Y-97220595D01*
X79872635Y-97257999D01*
X79872649Y-97258000D01*
X80147351Y-97258000D01*
X80147364Y-97257999D01*
X80419490Y-97220595D01*
X80684010Y-97146480D01*
X80935969Y-97037038D01*
X81170679Y-96894309D01*
X81239283Y-96838493D01*
X81239283Y-96838492D01*
X80331798Y-95931007D01*
X80348891Y-95924787D01*
X80495373Y-95828445D01*
X80615688Y-95700918D01*
X80690517Y-95571307D01*
X81599457Y-96480247D01*
X81729682Y-96295762D01*
X81729685Y-96295756D01*
X81856061Y-96051865D01*
X81948055Y-95793019D01*
X81948057Y-95793011D01*
X82003946Y-95524054D01*
X82003947Y-95524048D01*
X82022692Y-95250004D01*
X82022692Y-95249995D01*
X82003947Y-94975951D01*
X82003946Y-94975945D01*
X81948057Y-94706988D01*
X81948055Y-94706980D01*
X81856061Y-94448134D01*
X81729685Y-94204243D01*
X81729681Y-94204237D01*
X81599457Y-94019750D01*
X80688899Y-94930307D01*
X80663941Y-94872447D01*
X80559244Y-94731815D01*
X80424938Y-94619118D01*
X80329567Y-94571221D01*
X81239283Y-93661504D01*
X81170680Y-93605691D01*
X80935969Y-93462961D01*
X80762276Y-93387515D01*
X92642151Y-93387515D01*
X92653299Y-93448349D01*
X92653872Y-93452112D01*
X92661325Y-93513504D01*
X92661327Y-93513510D01*
X92664840Y-93522774D01*
X92670961Y-93544732D01*
X92672747Y-93554478D01*
X92672748Y-93554482D01*
X92698131Y-93610882D01*
X92699587Y-93614397D01*
X92721519Y-93672224D01*
X92721523Y-93672233D01*
X92727147Y-93680380D01*
X92738353Y-93700247D01*
X92742416Y-93709275D01*
X92780555Y-93757958D01*
X92782809Y-93761022D01*
X92811053Y-93801939D01*
X92817948Y-93811927D01*
X92864255Y-93852951D01*
X92866999Y-93855535D01*
X93630582Y-94619118D01*
X94313757Y-95302293D01*
X94347783Y-95364605D01*
X94349971Y-95378211D01*
X94356458Y-95439928D01*
X94356458Y-95439930D01*
X94356459Y-95439932D01*
X94375084Y-95497255D01*
X94415473Y-95621556D01*
X94415476Y-95621561D01*
X94510958Y-95786941D01*
X94510965Y-95786951D01*
X94638744Y-95928864D01*
X94699999Y-95973368D01*
X94793248Y-96041118D01*
X94967712Y-96118794D01*
X95154513Y-96158500D01*
X95345487Y-96158500D01*
X95532288Y-96118794D01*
X95706752Y-96041118D01*
X95861253Y-95928866D01*
X95904458Y-95880882D01*
X95989034Y-95786951D01*
X95989035Y-95786949D01*
X95989040Y-95786944D01*
X96084527Y-95621556D01*
X96143542Y-95439928D01*
X96163504Y-95250000D01*
X96143542Y-95060072D01*
X96084527Y-94878444D01*
X95989040Y-94713056D01*
X95989038Y-94713054D01*
X95989034Y-94713048D01*
X95861255Y-94571135D01*
X95706752Y-94458882D01*
X95682611Y-94448134D01*
X95532288Y-94381206D01*
X95532287Y-94381205D01*
X95532283Y-94381204D01*
X95362370Y-94345087D01*
X95299896Y-94311359D01*
X95299472Y-94310936D01*
X94080904Y-93092368D01*
X94046878Y-93030056D01*
X94043999Y-93003273D01*
X94043999Y-87260000D01*
X138424647Y-87260000D01*
X138444022Y-87481463D01*
X138483688Y-87629498D01*
X138501559Y-87696193D01*
X138501561Y-87696199D01*
X138595511Y-87897675D01*
X138595512Y-87897677D01*
X138723016Y-88079772D01*
X138723020Y-88079777D01*
X138723023Y-88079781D01*
X138880219Y-88236977D01*
X138880223Y-88236980D01*
X138880227Y-88236983D01*
X138984124Y-88309732D01*
X139062323Y-88364488D01*
X139263804Y-88458440D01*
X139478537Y-88515978D01*
X139700000Y-88535353D01*
X139921463Y-88515978D01*
X140136196Y-88458440D01*
X140337677Y-88364488D01*
X140519781Y-88236977D01*
X140676977Y-88079781D01*
X140804488Y-87897677D01*
X140898440Y-87696196D01*
X140955978Y-87481463D01*
X140975353Y-87260000D01*
X140955978Y-87038537D01*
X140898440Y-86823804D01*
X140804488Y-86622324D01*
X140676977Y-86440219D01*
X140519781Y-86283023D01*
X140519777Y-86283020D01*
X140519772Y-86283016D01*
X140337677Y-86155512D01*
X140337675Y-86155511D01*
X140136199Y-86061561D01*
X140136193Y-86061559D01*
X140094074Y-86050273D01*
X139921463Y-86004022D01*
X139700000Y-85984647D01*
X139478537Y-86004022D01*
X139363463Y-86034856D01*
X139263806Y-86061559D01*
X139263801Y-86061561D01*
X139062323Y-86155512D01*
X138880222Y-86283020D01*
X138880216Y-86283025D01*
X138723025Y-86440216D01*
X138723020Y-86440222D01*
X138595512Y-86622323D01*
X138595512Y-86622324D01*
X138501560Y-86823804D01*
X138444022Y-87038537D01*
X138424647Y-87260000D01*
X94043999Y-87260000D01*
X94043999Y-80010000D01*
X94043999Y-67016721D01*
X94064001Y-66948604D01*
X94080899Y-66927635D01*
X94335907Y-66672627D01*
X94398217Y-66638603D01*
X94469032Y-66643668D01*
X94525868Y-66686215D01*
X94550679Y-66752735D01*
X94551000Y-66761724D01*
X94551000Y-71096979D01*
X94550885Y-71100784D01*
X94547151Y-71162515D01*
X94558299Y-71223349D01*
X94558872Y-71227112D01*
X94566325Y-71288504D01*
X94566327Y-71288510D01*
X94569840Y-71297774D01*
X94575961Y-71319732D01*
X94577747Y-71329478D01*
X94577748Y-71329482D01*
X94603131Y-71385882D01*
X94604587Y-71389397D01*
X94626519Y-71447224D01*
X94626523Y-71447233D01*
X94632147Y-71455380D01*
X94643353Y-71475247D01*
X94647416Y-71484275D01*
X94685555Y-71532958D01*
X94687809Y-71536022D01*
X94716053Y-71576939D01*
X94722948Y-71586927D01*
X94769255Y-71627951D01*
X94771999Y-71630535D01*
X98461920Y-75320455D01*
X102134094Y-78992630D01*
X102168120Y-79054942D01*
X102170999Y-79081725D01*
X102171000Y-79380220D01*
X102150998Y-79448340D01*
X102138637Y-79464530D01*
X102130961Y-79473054D01*
X102130958Y-79473058D01*
X102035476Y-79638438D01*
X102035473Y-79638445D01*
X101976457Y-79820072D01*
X101956496Y-80010000D01*
X101976457Y-80199927D01*
X102006526Y-80292470D01*
X102035473Y-80381556D01*
X102035476Y-80381561D01*
X102130958Y-80546941D01*
X102130965Y-80546951D01*
X102258744Y-80688864D01*
X102258747Y-80688866D01*
X102413248Y-80801118D01*
X102587712Y-80878794D01*
X102774513Y-80918500D01*
X102965487Y-80918500D01*
X103152288Y-80878794D01*
X103326752Y-80801118D01*
X103481253Y-80688866D01*
X103609040Y-80546944D01*
X103704527Y-80381556D01*
X103705049Y-80379950D01*
X133641500Y-80379950D01*
X133647675Y-80466296D01*
X133656482Y-80589432D01*
X133716033Y-80863183D01*
X133813934Y-81125668D01*
X133813935Y-81125669D01*
X133948196Y-81371550D01*
X134116083Y-81595821D01*
X134116084Y-81595822D01*
X134116092Y-81595831D01*
X134314168Y-81793907D01*
X134314177Y-81793915D01*
X134314179Y-81793917D01*
X134538450Y-81961804D01*
X134784331Y-82096065D01*
X135046817Y-82193967D01*
X135320564Y-82253517D01*
X135600000Y-82273503D01*
X135879436Y-82253517D01*
X136153183Y-82193967D01*
X136415669Y-82096065D01*
X136661550Y-81961804D01*
X136885821Y-81793917D01*
X137083917Y-81595821D01*
X137251804Y-81371550D01*
X137386065Y-81125669D01*
X137483967Y-80863183D01*
X137543517Y-80589436D01*
X137558500Y-80379950D01*
X137558500Y-80140050D01*
X137543517Y-79930564D01*
X137483967Y-79656817D01*
X137386065Y-79394331D01*
X137251804Y-79148450D01*
X137083917Y-78924179D01*
X137083915Y-78924177D01*
X137083907Y-78924168D01*
X136885831Y-78726092D01*
X136885822Y-78726084D01*
X136885821Y-78726083D01*
X136661550Y-78558196D01*
X136415669Y-78423935D01*
X136415668Y-78423934D01*
X136153183Y-78326033D01*
X135879432Y-78266482D01*
X135600000Y-78246497D01*
X135320567Y-78266482D01*
X135046816Y-78326033D01*
X134784331Y-78423934D01*
X134538450Y-78558196D01*
X134314177Y-78726084D01*
X134314168Y-78726092D01*
X134116092Y-78924168D01*
X134116084Y-78924177D01*
X133948196Y-79148450D01*
X133813934Y-79394331D01*
X133716033Y-79656816D01*
X133656482Y-79930567D01*
X133646793Y-80066038D01*
X133641500Y-80140050D01*
X133641500Y-80379950D01*
X103705049Y-80379950D01*
X103763542Y-80199928D01*
X103783504Y-80010000D01*
X103763542Y-79820072D01*
X103704527Y-79638444D01*
X103609040Y-79473056D01*
X103601362Y-79464529D01*
X103570646Y-79400522D01*
X103569000Y-79380220D01*
X103569000Y-78763019D01*
X103569115Y-78759214D01*
X103572849Y-78697485D01*
X103572848Y-78697485D01*
X103561694Y-78636618D01*
X103561130Y-78632916D01*
X103553673Y-78571490D01*
X103550161Y-78562230D01*
X103544035Y-78540253D01*
X103542251Y-78530517D01*
X103516863Y-78474108D01*
X103515411Y-78470602D01*
X103497713Y-78423935D01*
X103493480Y-78412773D01*
X103487850Y-78404617D01*
X103476645Y-78384750D01*
X103472584Y-78375725D01*
X103434437Y-78327034D01*
X103432197Y-78323991D01*
X103409636Y-78291305D01*
X103397054Y-78273075D01*
X103397050Y-78273071D01*
X103350744Y-78232047D01*
X103347989Y-78229454D01*
X95985905Y-70867369D01*
X95951879Y-70805057D01*
X95949000Y-70778274D01*
X95949000Y-66381726D01*
X95969002Y-66313605D01*
X95985905Y-66292631D01*
X96098228Y-66180308D01*
X96160540Y-66146282D01*
X96231355Y-66151347D01*
X96288191Y-66193894D01*
X96294011Y-66202368D01*
X96301081Y-66213620D01*
X96422580Y-66335119D01*
X96422582Y-66335120D01*
X96568066Y-66426534D01*
X96568067Y-66426534D01*
X96568070Y-66426536D01*
X96730254Y-66483287D01*
X96813561Y-66492673D01*
X96879014Y-66520176D01*
X96918384Y-66576266D01*
X96971664Y-66728530D01*
X96971665Y-66728533D01*
X97063079Y-66874017D01*
X97063080Y-66874019D01*
X97184580Y-66995519D01*
X97184582Y-66995520D01*
X97330066Y-67086934D01*
X97330067Y-67086934D01*
X97330070Y-67086936D01*
X97492254Y-67143687D01*
X97492253Y-67143687D01*
X97509543Y-67145634D01*
X97663000Y-67162925D01*
X97833746Y-67143687D01*
X97922947Y-67112473D01*
X97991259Y-67088571D01*
X98032874Y-67081500D01*
X99746304Y-67081500D01*
X99814425Y-67101502D01*
X99860918Y-67155158D01*
X99871022Y-67225432D01*
X99852992Y-67274536D01*
X99816463Y-67332671D01*
X99759712Y-67494855D01*
X99740475Y-67665599D01*
X99759712Y-67836344D01*
X99816464Y-67998530D01*
X99816465Y-67998532D01*
X99836529Y-68030464D01*
X99855835Y-68098785D01*
X99835140Y-68166698D01*
X99781013Y-68212641D01*
X99729842Y-68223500D01*
X99354997Y-68223500D01*
X99313383Y-68216429D01*
X99230746Y-68187513D01*
X99230744Y-68187512D01*
X99230742Y-68187512D01*
X99060000Y-68168275D01*
X98889255Y-68187512D01*
X98727069Y-68244264D01*
X98727066Y-68244265D01*
X98581582Y-68335679D01*
X98581580Y-68335680D01*
X98460080Y-68457180D01*
X98460079Y-68457182D01*
X98368665Y-68602666D01*
X98368664Y-68602669D01*
X98311912Y-68764855D01*
X98292675Y-68935600D01*
X98311912Y-69106344D01*
X98368664Y-69268530D01*
X98368665Y-69268533D01*
X98460079Y-69414017D01*
X98460080Y-69414019D01*
X98581580Y-69535519D01*
X98581582Y-69535520D01*
X98727066Y-69626934D01*
X98727067Y-69626934D01*
X98727070Y-69626936D01*
X98889254Y-69683687D01*
X98889253Y-69683687D01*
X98906543Y-69685634D01*
X99060000Y-69702925D01*
X99230746Y-69683687D01*
X99319947Y-69652473D01*
X99388259Y-69628571D01*
X99429874Y-69621500D01*
X101230947Y-69621500D01*
X101299068Y-69641502D01*
X101345561Y-69695158D01*
X101356155Y-69733393D01*
X101359912Y-69766744D01*
X101416664Y-69928930D01*
X101416665Y-69928933D01*
X101508079Y-70074417D01*
X101508080Y-70074419D01*
X101629580Y-70195919D01*
X101629582Y-70195920D01*
X101775066Y-70287334D01*
X101775067Y-70287334D01*
X101775070Y-70287336D01*
X101937254Y-70344087D01*
X101937253Y-70344087D01*
X101954543Y-70346034D01*
X102108000Y-70363325D01*
X102278746Y-70344087D01*
X102398820Y-70302070D01*
X102440435Y-70295000D01*
X106347565Y-70295000D01*
X106389179Y-70302070D01*
X106509254Y-70344087D01*
X106680000Y-70363325D01*
X106850746Y-70344087D01*
X106970820Y-70302070D01*
X107012435Y-70295000D01*
X110157565Y-70295000D01*
X110199179Y-70302070D01*
X110319254Y-70344087D01*
X110490000Y-70363325D01*
X110660746Y-70344087D01*
X110822930Y-70287336D01*
X110831305Y-70282073D01*
X110841268Y-70275814D01*
X110908305Y-70256500D01*
X117406336Y-70256500D01*
X121875718Y-70256500D01*
X123338875Y-70256500D01*
X123401229Y-70274808D01*
X123402001Y-70273473D01*
X123407719Y-70276774D01*
X123407723Y-70276776D01*
X123407725Y-70276777D01*
X123566346Y-70347400D01*
X123736184Y-70383500D01*
X123909816Y-70383500D01*
X124079654Y-70347400D01*
X124238275Y-70276777D01*
X124378746Y-70174719D01*
X124494929Y-70045685D01*
X124581745Y-69895315D01*
X124622599Y-69769576D01*
X124662673Y-69710970D01*
X124728069Y-69683332D01*
X124793683Y-69693405D01*
X124836343Y-69712399D01*
X124836344Y-69712399D01*
X124836346Y-69712400D01*
X125006184Y-69748500D01*
X125179816Y-69748500D01*
X125349654Y-69712400D01*
X125508275Y-69641777D01*
X125648746Y-69539719D01*
X125764929Y-69410685D01*
X125851745Y-69260315D01*
X125905400Y-69095181D01*
X125923550Y-68922500D01*
X125905400Y-68749819D01*
X125890469Y-68703866D01*
X125851747Y-68584689D01*
X125851743Y-68584682D01*
X125838619Y-68561951D01*
X125769597Y-68442400D01*
X125764931Y-68434318D01*
X125764930Y-68434317D01*
X125764929Y-68434315D01*
X125708647Y-68371808D01*
X125677932Y-68307804D01*
X125686695Y-68237350D01*
X125708646Y-68203192D01*
X125764929Y-68140685D01*
X125851745Y-67990315D01*
X125860803Y-67962439D01*
X125870470Y-67932684D01*
X125905400Y-67825181D01*
X125905401Y-67825170D01*
X125906771Y-67818729D01*
X125909121Y-67819228D01*
X125931968Y-67763683D01*
X125990186Y-67723047D01*
X126030273Y-67716500D01*
X127926274Y-67716500D01*
X127994395Y-67736502D01*
X128015369Y-67753405D01*
X128070871Y-67808907D01*
X128101609Y-67859066D01*
X128144252Y-67990309D01*
X128144256Y-67990317D01*
X128231069Y-68140683D01*
X128231070Y-68140685D01*
X128347251Y-68269717D01*
X128487720Y-68371774D01*
X128487722Y-68371775D01*
X128487725Y-68371777D01*
X128646346Y-68442400D01*
X128816184Y-68478500D01*
X128989816Y-68478500D01*
X129159654Y-68442400D01*
X129318275Y-68371777D01*
X129458746Y-68269719D01*
X129574929Y-68140685D01*
X129661745Y-67990315D01*
X129670803Y-67962439D01*
X129715398Y-67825186D01*
X129715400Y-67825181D01*
X129733550Y-67652500D01*
X129715400Y-67479819D01*
X129692083Y-67408056D01*
X129661747Y-67314689D01*
X129661743Y-67314682D01*
X129574931Y-67164318D01*
X129574930Y-67164317D01*
X129574929Y-67164315D01*
X129518647Y-67101808D01*
X129487932Y-67037804D01*
X129496695Y-66967350D01*
X129518646Y-66933192D01*
X129574929Y-66870685D01*
X129661745Y-66720315D01*
X129668990Y-66698019D01*
X129690283Y-66632485D01*
X129715400Y-66555181D01*
X129733550Y-66382500D01*
X129715400Y-66209819D01*
X129700658Y-66164447D01*
X129661747Y-66044689D01*
X129661743Y-66044682D01*
X129574930Y-65894316D01*
X129574929Y-65894314D01*
X129458748Y-65765282D01*
X129318279Y-65663225D01*
X129208801Y-65614482D01*
X129159654Y-65592600D01*
X128989816Y-65556500D01*
X128816184Y-65556500D01*
X128646345Y-65592600D01*
X128487719Y-65663225D01*
X128482001Y-65666527D01*
X128480484Y-65663900D01*
X128425957Y-65683301D01*
X128418875Y-65683500D01*
X125395273Y-65683500D01*
X125327152Y-65663498D01*
X125280659Y-65609842D01*
X125272799Y-65581052D01*
X125271771Y-65581271D01*
X125270400Y-65574827D01*
X125270400Y-65574819D01*
X125248803Y-65508349D01*
X125216747Y-65409689D01*
X125216743Y-65409682D01*
X125129930Y-65259316D01*
X125129929Y-65259314D01*
X125013748Y-65130282D01*
X124873279Y-65028225D01*
X124873275Y-65028223D01*
X124714654Y-64957600D01*
X124714653Y-64957599D01*
X124714649Y-64957598D01*
X124706880Y-64955947D01*
X124644408Y-64922218D01*
X124613247Y-64871637D01*
X124581747Y-64774690D01*
X124581743Y-64774682D01*
X124494930Y-64624316D01*
X124494929Y-64624314D01*
X124378748Y-64495282D01*
X124238279Y-64393225D01*
X124079650Y-64322598D01*
X124042479Y-64314697D01*
X123980006Y-64280969D01*
X123979581Y-64280546D01*
X123698545Y-63999509D01*
X123695945Y-63996747D01*
X123654927Y-63950448D01*
X123637108Y-63938148D01*
X123604022Y-63915309D01*
X123600958Y-63913055D01*
X123552275Y-63874916D01*
X123543247Y-63870853D01*
X123523380Y-63859647D01*
X123515233Y-63854023D01*
X123515228Y-63854020D01*
X123515227Y-63854020D01*
X123482798Y-63841721D01*
X123457397Y-63832087D01*
X123453882Y-63830631D01*
X123397482Y-63805248D01*
X123397478Y-63805247D01*
X123387732Y-63803461D01*
X123365774Y-63797340D01*
X123356510Y-63793827D01*
X123356504Y-63793825D01*
X123305652Y-63787651D01*
X123295103Y-63786370D01*
X123291349Y-63785799D01*
X123230516Y-63774651D01*
X123230515Y-63774651D01*
X123168781Y-63778385D01*
X123164980Y-63778500D01*
X113245187Y-63778500D01*
X113203572Y-63771429D01*
X113140314Y-63749294D01*
X113048346Y-63717113D01*
X113048344Y-63717112D01*
X113048346Y-63717112D01*
X112894889Y-63699822D01*
X112877600Y-63697875D01*
X112877599Y-63697875D01*
X112706855Y-63717112D01*
X112551628Y-63771429D01*
X112510013Y-63778500D01*
X105625187Y-63778500D01*
X105583572Y-63771429D01*
X105520314Y-63749294D01*
X105428346Y-63717113D01*
X105428344Y-63717112D01*
X105428346Y-63717112D01*
X105274889Y-63699822D01*
X105257600Y-63697875D01*
X105257599Y-63697875D01*
X105086855Y-63717112D01*
X104931628Y-63771429D01*
X104890013Y-63778500D01*
X97954387Y-63778500D01*
X97912772Y-63771429D01*
X97849514Y-63749294D01*
X97757546Y-63717113D01*
X97757544Y-63717112D01*
X97757546Y-63717112D01*
X97604089Y-63699822D01*
X97586800Y-63697875D01*
X97586799Y-63697875D01*
X97416055Y-63717112D01*
X97295980Y-63759129D01*
X97254365Y-63766200D01*
X95577819Y-63766200D01*
X95574017Y-63766085D01*
X95512285Y-63762351D01*
X95512284Y-63762351D01*
X95512282Y-63762351D01*
X95451448Y-63773499D01*
X95447690Y-63774071D01*
X95442917Y-63774651D01*
X95386288Y-63781526D01*
X95386285Y-63781527D01*
X95377016Y-63785042D01*
X95355062Y-63791162D01*
X95345319Y-63792947D01*
X95288928Y-63818327D01*
X95285413Y-63819783D01*
X95227572Y-63841720D01*
X95227570Y-63841721D01*
X95219414Y-63847351D01*
X95199556Y-63858551D01*
X95190524Y-63862615D01*
X95141846Y-63900752D01*
X95138782Y-63903007D01*
X95087870Y-63938149D01*
X95046847Y-63984454D01*
X95044239Y-63987225D01*
X92867016Y-66164447D01*
X92864245Y-66167055D01*
X92817949Y-66208070D01*
X92782820Y-66258964D01*
X92780566Y-66262027D01*
X92742417Y-66310723D01*
X92742415Y-66310726D01*
X92738349Y-66319760D01*
X92727153Y-66339610D01*
X92721522Y-66347768D01*
X92721520Y-66347772D01*
X92699583Y-66405613D01*
X92698127Y-66409128D01*
X92672747Y-66465519D01*
X92670962Y-66475262D01*
X92664842Y-66497216D01*
X92661327Y-66506485D01*
X92661326Y-66506488D01*
X92653872Y-66567886D01*
X92653299Y-66571648D01*
X92642151Y-66632482D01*
X92642151Y-66632484D01*
X92642151Y-66632485D01*
X92643330Y-66651979D01*
X92645885Y-66694214D01*
X92646000Y-66698019D01*
X92646000Y-93321979D01*
X92645885Y-93325784D01*
X92642151Y-93387515D01*
X80762276Y-93387515D01*
X80684010Y-93353519D01*
X80419490Y-93279404D01*
X80147364Y-93242000D01*
X79872635Y-93242000D01*
X79600509Y-93279404D01*
X79335989Y-93353519D01*
X79084030Y-93462961D01*
X78849325Y-93605687D01*
X78780715Y-93661505D01*
X78780714Y-93661505D01*
X79688201Y-94568992D01*
X79671109Y-94575213D01*
X79524627Y-94671555D01*
X79404312Y-94799082D01*
X79329482Y-94928691D01*
X78420541Y-94019750D01*
X78290317Y-94204236D01*
X78163938Y-94448134D01*
X78071944Y-94706980D01*
X78071942Y-94706988D01*
X78016053Y-94975945D01*
X78016052Y-94975951D01*
X77997308Y-95249995D01*
X77997308Y-95250004D01*
X64770500Y-95250004D01*
X64770500Y-88900004D01*
X77996807Y-88900004D01*
X78015556Y-89174116D01*
X78015557Y-89174122D01*
X78015558Y-89174130D01*
X78046217Y-89321670D01*
X78071460Y-89443146D01*
X78071462Y-89443154D01*
X78163477Y-89702058D01*
X78289892Y-89946028D01*
X78357797Y-90042227D01*
X78448343Y-90170502D01*
X78635889Y-90371314D01*
X78849031Y-90544718D01*
X79083800Y-90687484D01*
X79335823Y-90796953D01*
X79600404Y-90871085D01*
X79695504Y-90884156D01*
X79872604Y-90908499D01*
X79872615Y-90908500D01*
X80147385Y-90908500D01*
X80147395Y-90908499D01*
X80276945Y-90890692D01*
X80419596Y-90871085D01*
X80684177Y-90796953D01*
X80936200Y-90687484D01*
X81170969Y-90544718D01*
X81384111Y-90371314D01*
X81571657Y-90170502D01*
X81730111Y-89946023D01*
X81856523Y-89702058D01*
X81948538Y-89443153D01*
X82004442Y-89174130D01*
X82023193Y-88900000D01*
X82004442Y-88625870D01*
X81948538Y-88356847D01*
X81856523Y-88097942D01*
X81730111Y-87853977D01*
X81571657Y-87629498D01*
X81384111Y-87428686D01*
X81170969Y-87255282D01*
X80936200Y-87112516D01*
X80936201Y-87112516D01*
X80936197Y-87112514D01*
X80684180Y-87003048D01*
X80684178Y-87003047D01*
X80684177Y-87003047D01*
X80551886Y-86965980D01*
X80419593Y-86928914D01*
X80147395Y-86891500D01*
X80147385Y-86891500D01*
X79872615Y-86891500D01*
X79872604Y-86891500D01*
X79600406Y-86928914D01*
X79335819Y-87003048D01*
X79083802Y-87112514D01*
X78849028Y-87255284D01*
X78635886Y-87428688D01*
X78448343Y-87629498D01*
X78289892Y-87853971D01*
X78163477Y-88097941D01*
X78071462Y-88356845D01*
X78071460Y-88356853D01*
X78015557Y-88625877D01*
X78015556Y-88625883D01*
X77996807Y-88899995D01*
X77996807Y-88900004D01*
X64770500Y-88900004D01*
X64770500Y-64829861D01*
X87586502Y-64829861D01*
X87606457Y-65057948D01*
X87625839Y-65130281D01*
X87665715Y-65279101D01*
X87665717Y-65279107D01*
X87762477Y-65486610D01*
X87888456Y-65666527D01*
X87893802Y-65674161D01*
X88055700Y-65836059D01*
X88243251Y-65967384D01*
X88450757Y-66064145D01*
X88671913Y-66123404D01*
X88900000Y-66143359D01*
X89128087Y-66123404D01*
X89349243Y-66064145D01*
X89556749Y-65967384D01*
X89744300Y-65836059D01*
X89906198Y-65674161D01*
X90037523Y-65486610D01*
X90134284Y-65279104D01*
X90193543Y-65057948D01*
X90213498Y-64829861D01*
X90193543Y-64601774D01*
X90134284Y-64380618D01*
X90037523Y-64173112D01*
X89906198Y-63985561D01*
X89760860Y-63840223D01*
X89726834Y-63777911D01*
X89731899Y-63707096D01*
X89774446Y-63650260D01*
X89805922Y-63633072D01*
X89809197Y-63631850D01*
X89809201Y-63631850D01*
X89946204Y-63580750D01*
X90063261Y-63493122D01*
X90150889Y-63376065D01*
X90201989Y-63239062D01*
X90208500Y-63178499D01*
X90208500Y-61481223D01*
X90208499Y-61481211D01*
X90201990Y-61420664D01*
X90201988Y-61420656D01*
X90150889Y-61283658D01*
X90150887Y-61283653D01*
X90063261Y-61166599D01*
X89946207Y-61078973D01*
X89946202Y-61078971D01*
X89809204Y-61027872D01*
X89809196Y-61027870D01*
X89748649Y-61021361D01*
X89748638Y-61021361D01*
X88051362Y-61021361D01*
X88051350Y-61021361D01*
X87990803Y-61027870D01*
X87990795Y-61027872D01*
X87853797Y-61078971D01*
X87853792Y-61078973D01*
X87736738Y-61166599D01*
X87649112Y-61283653D01*
X87649110Y-61283658D01*
X87598011Y-61420656D01*
X87598009Y-61420664D01*
X87591500Y-61481211D01*
X87591500Y-63178510D01*
X87598009Y-63239057D01*
X87598011Y-63239065D01*
X87649110Y-63376063D01*
X87649112Y-63376068D01*
X87736738Y-63493122D01*
X87853792Y-63580748D01*
X87853796Y-63580750D01*
X87994077Y-63633073D01*
X88050913Y-63675619D01*
X88075723Y-63742140D01*
X88060631Y-63811514D01*
X88039140Y-63840223D01*
X87893799Y-63985564D01*
X87762477Y-64173111D01*
X87665717Y-64380614D01*
X87665715Y-64380620D01*
X87606457Y-64601774D01*
X87591330Y-64774682D01*
X87586502Y-64829861D01*
X64770500Y-64829861D01*
X64770500Y-54677765D01*
X70535788Y-54677765D01*
X70565412Y-54947014D01*
X70633928Y-55209090D01*
X70739869Y-55458389D01*
X70739870Y-55458390D01*
X70880982Y-55689610D01*
X71054255Y-55897820D01*
X71255998Y-56078582D01*
X71481910Y-56228044D01*
X71727176Y-56343020D01*
X71986569Y-56421060D01*
X71986572Y-56421060D01*
X71986574Y-56421061D01*
X72254557Y-56460500D01*
X72254561Y-56460500D01*
X72457631Y-56460500D01*
X72660156Y-56445677D01*
X72660160Y-56445676D01*
X72660161Y-56445676D01*
X72770665Y-56421060D01*
X72924553Y-56386780D01*
X73177558Y-56290014D01*
X73413777Y-56157441D01*
X73628177Y-55991888D01*
X73816186Y-55796881D01*
X73973799Y-55576579D01*
X74021814Y-55483190D01*
X74097656Y-55335675D01*
X74097657Y-55335672D01*
X74153463Y-55172092D01*
X74171522Y-55119159D01*
X78131500Y-55119159D01*
X78131501Y-55119170D01*
X78134311Y-55172092D01*
X78173135Y-55372836D01*
X78179031Y-55403317D01*
X78262182Y-55623652D01*
X78262184Y-55623657D01*
X78381373Y-55826766D01*
X78533180Y-56006819D01*
X78713233Y-56158626D01*
X78916342Y-56277815D01*
X78916344Y-56277816D01*
X78916348Y-56277818D01*
X79136686Y-56360970D01*
X79367908Y-56405689D01*
X79420829Y-56408500D01*
X81359170Y-56408499D01*
X81412092Y-56405689D01*
X81643314Y-56360970D01*
X81863652Y-56277818D01*
X82066768Y-56158625D01*
X82246819Y-56006819D01*
X82398625Y-55826768D01*
X82517818Y-55623652D01*
X82587615Y-55438701D01*
X82630381Y-55382031D01*
X82696997Y-55357477D01*
X82766312Y-55372836D01*
X82816320Y-55423232D01*
X82831500Y-55483190D01*
X82831500Y-58948649D01*
X82838009Y-59009196D01*
X82838011Y-59009204D01*
X82889110Y-59146202D01*
X82889112Y-59146207D01*
X82976738Y-59263261D01*
X83093792Y-59350887D01*
X83093794Y-59350888D01*
X83093796Y-59350889D01*
X83152875Y-59372924D01*
X83230795Y-59401988D01*
X83230803Y-59401990D01*
X83291350Y-59408499D01*
X83291355Y-59408499D01*
X83291362Y-59408500D01*
X83291368Y-59408500D01*
X86888632Y-59408500D01*
X86888638Y-59408500D01*
X86888645Y-59408499D01*
X86888649Y-59408499D01*
X86949196Y-59401990D01*
X86949199Y-59401989D01*
X86949201Y-59401989D01*
X87086204Y-59350889D01*
X87115183Y-59329196D01*
X87196064Y-59268649D01*
X130771500Y-59268649D01*
X130778009Y-59329196D01*
X130778011Y-59329204D01*
X130829110Y-59466202D01*
X130829112Y-59466207D01*
X130916738Y-59583261D01*
X131033792Y-59670887D01*
X131033794Y-59670888D01*
X131033796Y-59670889D01*
X131092875Y-59692924D01*
X131170795Y-59721988D01*
X131170803Y-59721990D01*
X131231350Y-59728499D01*
X131231355Y-59728499D01*
X131231362Y-59728500D01*
X131255000Y-59728500D01*
X131323121Y-59748502D01*
X131369614Y-59802158D01*
X131381000Y-59854500D01*
X131381000Y-71096979D01*
X131380885Y-71100784D01*
X131377151Y-71162515D01*
X131388299Y-71223349D01*
X131388872Y-71227112D01*
X131396325Y-71288504D01*
X131396327Y-71288510D01*
X131399840Y-71297774D01*
X131405961Y-71319732D01*
X131407747Y-71329478D01*
X131407748Y-71329482D01*
X131433131Y-71385882D01*
X131434587Y-71389397D01*
X131456519Y-71447224D01*
X131456523Y-71447233D01*
X131462147Y-71455380D01*
X131473353Y-71475247D01*
X131477416Y-71484275D01*
X131515555Y-71532958D01*
X131517809Y-71536022D01*
X131546053Y-71576939D01*
X131552948Y-71586927D01*
X131599255Y-71627951D01*
X131601999Y-71630535D01*
X138200903Y-78229438D01*
X143964095Y-83992630D01*
X143998121Y-84054942D01*
X144001000Y-84081725D01*
X144001000Y-86132859D01*
X143980998Y-86200980D01*
X143947271Y-86236072D01*
X143880222Y-86283020D01*
X143880216Y-86283025D01*
X143723025Y-86440216D01*
X143723020Y-86440222D01*
X143595512Y-86622323D01*
X143595512Y-86622324D01*
X143501560Y-86823804D01*
X143444022Y-87038537D01*
X143424647Y-87260000D01*
X143444022Y-87481463D01*
X143483688Y-87629498D01*
X143501559Y-87696193D01*
X143501561Y-87696199D01*
X143595511Y-87897675D01*
X143595512Y-87897677D01*
X143723016Y-88079772D01*
X143723020Y-88079777D01*
X143723023Y-88079781D01*
X143880219Y-88236977D01*
X143880223Y-88236980D01*
X143880227Y-88236983D01*
X143984124Y-88309732D01*
X144062323Y-88364488D01*
X144263804Y-88458440D01*
X144478537Y-88515978D01*
X144700000Y-88535353D01*
X144921463Y-88515978D01*
X145136196Y-88458440D01*
X145337677Y-88364488D01*
X145519781Y-88236977D01*
X145676977Y-88079781D01*
X145804488Y-87897677D01*
X145898440Y-87696196D01*
X145955978Y-87481463D01*
X145975353Y-87260000D01*
X145955978Y-87038537D01*
X145898440Y-86823804D01*
X145804488Y-86622324D01*
X145676977Y-86440219D01*
X145519781Y-86283023D01*
X145452728Y-86236071D01*
X145408400Y-86180614D01*
X145399000Y-86132859D01*
X145399000Y-83763019D01*
X145399115Y-83759214D01*
X145402849Y-83697485D01*
X145402848Y-83697484D01*
X145391694Y-83636618D01*
X145391130Y-83632916D01*
X145383673Y-83571490D01*
X145380161Y-83562230D01*
X145374035Y-83540253D01*
X145372251Y-83530517D01*
X145346863Y-83474108D01*
X145345411Y-83470602D01*
X145323480Y-83412773D01*
X145317850Y-83404617D01*
X145306645Y-83384750D01*
X145302584Y-83375725D01*
X145264437Y-83327034D01*
X145262197Y-83323991D01*
X145239636Y-83291305D01*
X145227054Y-83273075D01*
X145227050Y-83273071D01*
X145180744Y-83232047D01*
X145177989Y-83229454D01*
X142328485Y-80379950D01*
X146841500Y-80379950D01*
X146847675Y-80466296D01*
X146856482Y-80589432D01*
X146916033Y-80863183D01*
X147013934Y-81125668D01*
X147013935Y-81125669D01*
X147148196Y-81371550D01*
X147316083Y-81595821D01*
X147316084Y-81595822D01*
X147316092Y-81595831D01*
X147514168Y-81793907D01*
X147514177Y-81793915D01*
X147514179Y-81793917D01*
X147738450Y-81961804D01*
X147984331Y-82096065D01*
X148246817Y-82193967D01*
X148520564Y-82253517D01*
X148800000Y-82273503D01*
X149079436Y-82253517D01*
X149353183Y-82193967D01*
X149615669Y-82096065D01*
X149861550Y-81961804D01*
X150085821Y-81793917D01*
X150283917Y-81595821D01*
X150451804Y-81371550D01*
X150586065Y-81125669D01*
X150683967Y-80863183D01*
X150743517Y-80589436D01*
X150758500Y-80379950D01*
X150758500Y-80140050D01*
X150743517Y-79930564D01*
X150683967Y-79656817D01*
X150586065Y-79394331D01*
X150451804Y-79148450D01*
X150283917Y-78924179D01*
X150283915Y-78924177D01*
X150283907Y-78924168D01*
X150085831Y-78726092D01*
X150085822Y-78726084D01*
X150085821Y-78726083D01*
X149861550Y-78558196D01*
X149615669Y-78423935D01*
X149615668Y-78423934D01*
X149353183Y-78326033D01*
X149079432Y-78266482D01*
X148800000Y-78246497D01*
X148520567Y-78266482D01*
X148246816Y-78326033D01*
X147984331Y-78423934D01*
X147738450Y-78558196D01*
X147514177Y-78726084D01*
X147514168Y-78726092D01*
X147316092Y-78924168D01*
X147316084Y-78924177D01*
X147148196Y-79148450D01*
X147013934Y-79394331D01*
X146916033Y-79656816D01*
X146856482Y-79930567D01*
X146846793Y-80066038D01*
X146841500Y-80140050D01*
X146841500Y-80379950D01*
X142328485Y-80379950D01*
X134708536Y-72760000D01*
X138424647Y-72760000D01*
X138444022Y-72981463D01*
X138490273Y-73154074D01*
X138501559Y-73196193D01*
X138501561Y-73196199D01*
X138595511Y-73397675D01*
X138595512Y-73397677D01*
X138723016Y-73579772D01*
X138723020Y-73579777D01*
X138723023Y-73579781D01*
X138880219Y-73736977D01*
X138880223Y-73736980D01*
X138880227Y-73736983D01*
X138984124Y-73809732D01*
X139062323Y-73864488D01*
X139263804Y-73958440D01*
X139478537Y-74015978D01*
X139700000Y-74035353D01*
X139921463Y-74015978D01*
X140136196Y-73958440D01*
X140337677Y-73864488D01*
X140519781Y-73736977D01*
X140676977Y-73579781D01*
X140804488Y-73397677D01*
X140835805Y-73330516D01*
X140882722Y-73277232D01*
X140950999Y-73257771D01*
X141018959Y-73278313D01*
X141064195Y-73330517D01*
X141095511Y-73397675D01*
X141095512Y-73397677D01*
X141223016Y-73579772D01*
X141223020Y-73579777D01*
X141223023Y-73579781D01*
X141380219Y-73736977D01*
X141380223Y-73736980D01*
X141380227Y-73736983D01*
X141484124Y-73809732D01*
X141562323Y-73864488D01*
X141763804Y-73958440D01*
X141978537Y-74015978D01*
X142200000Y-74035353D01*
X142421463Y-74015978D01*
X142636196Y-73958440D01*
X142837677Y-73864488D01*
X143019781Y-73736977D01*
X143176977Y-73579781D01*
X143304488Y-73397677D01*
X143335805Y-73330516D01*
X143382722Y-73277232D01*
X143450999Y-73257771D01*
X143518959Y-73278313D01*
X143564195Y-73330517D01*
X143595511Y-73397675D01*
X143595512Y-73397677D01*
X143723016Y-73579772D01*
X143723020Y-73579777D01*
X143723023Y-73579781D01*
X143880219Y-73736977D01*
X143880223Y-73736980D01*
X143880227Y-73736983D01*
X143984124Y-73809732D01*
X144062323Y-73864488D01*
X144263804Y-73958440D01*
X144478537Y-74015978D01*
X144700000Y-74035353D01*
X144921463Y-74015978D01*
X145136196Y-73958440D01*
X145337677Y-73864488D01*
X145519781Y-73736977D01*
X145676977Y-73579781D01*
X145804488Y-73397677D01*
X145898440Y-73196196D01*
X145955978Y-72981463D01*
X145975353Y-72760000D01*
X145955978Y-72538537D01*
X145898440Y-72323804D01*
X145804488Y-72122324D01*
X145676977Y-71940219D01*
X145519781Y-71783023D01*
X145519777Y-71783020D01*
X145519772Y-71783016D01*
X145337677Y-71655512D01*
X145337675Y-71655511D01*
X145136199Y-71561561D01*
X145136193Y-71561559D01*
X145094074Y-71550273D01*
X144921463Y-71504022D01*
X144700000Y-71484647D01*
X144478537Y-71504022D01*
X144370547Y-71532958D01*
X144263806Y-71561559D01*
X144263801Y-71561561D01*
X144062323Y-71655512D01*
X143880222Y-71783020D01*
X143880216Y-71783025D01*
X143723025Y-71940216D01*
X143723020Y-71940222D01*
X143595512Y-72122323D01*
X143564195Y-72189483D01*
X143517277Y-72242768D01*
X143449000Y-72262229D01*
X143381040Y-72241687D01*
X143335805Y-72189483D01*
X143329558Y-72176087D01*
X143304488Y-72122324D01*
X143176977Y-71940219D01*
X143019781Y-71783023D01*
X143019777Y-71783020D01*
X143019772Y-71783016D01*
X142837677Y-71655512D01*
X142837675Y-71655511D01*
X142636199Y-71561561D01*
X142636193Y-71561559D01*
X142594074Y-71550273D01*
X142421463Y-71504022D01*
X142200000Y-71484647D01*
X141978537Y-71504022D01*
X141870547Y-71532958D01*
X141763806Y-71561559D01*
X141763801Y-71561561D01*
X141562323Y-71655512D01*
X141380222Y-71783020D01*
X141380216Y-71783025D01*
X141223025Y-71940216D01*
X141223020Y-71940222D01*
X141095512Y-72122323D01*
X141064195Y-72189483D01*
X141017277Y-72242768D01*
X140949000Y-72262229D01*
X140881040Y-72241687D01*
X140835805Y-72189483D01*
X140829558Y-72176087D01*
X140804488Y-72122324D01*
X140676977Y-71940219D01*
X140519781Y-71783023D01*
X140519777Y-71783020D01*
X140519772Y-71783016D01*
X140337677Y-71655512D01*
X140337675Y-71655511D01*
X140136199Y-71561561D01*
X140136193Y-71561559D01*
X140094073Y-71550273D01*
X139921463Y-71504022D01*
X139700000Y-71484647D01*
X139478537Y-71504022D01*
X139370547Y-71532958D01*
X139263806Y-71561559D01*
X139263801Y-71561561D01*
X139062323Y-71655512D01*
X138880222Y-71783020D01*
X138880216Y-71783025D01*
X138723025Y-71940216D01*
X138723020Y-71940222D01*
X138595512Y-72122323D01*
X138530273Y-72262229D01*
X138501560Y-72323804D01*
X138444022Y-72538537D01*
X138424647Y-72760000D01*
X134708536Y-72760000D01*
X132815905Y-70867369D01*
X132781879Y-70805057D01*
X132779000Y-70778274D01*
X132779000Y-59854500D01*
X132799002Y-59786379D01*
X132852658Y-59739886D01*
X132905000Y-59728500D01*
X132928632Y-59728500D01*
X132928638Y-59728500D01*
X132928645Y-59728499D01*
X132928649Y-59728499D01*
X132989196Y-59721990D01*
X132989199Y-59721989D01*
X132989201Y-59721989D01*
X133126204Y-59670889D01*
X133148389Y-59654282D01*
X133243261Y-59583261D01*
X133330887Y-59466207D01*
X133330887Y-59466206D01*
X133330889Y-59466204D01*
X133381989Y-59329201D01*
X133382998Y-59319808D01*
X133410163Y-59254215D01*
X133468478Y-59213721D01*
X133539429Y-59211182D01*
X133600490Y-59247405D01*
X133611487Y-59260995D01*
X133613074Y-59263261D01*
X133613802Y-59264300D01*
X133775700Y-59426198D01*
X133867271Y-59490317D01*
X133911599Y-59545772D01*
X133921000Y-59593529D01*
X133921000Y-66651979D01*
X133920885Y-66655784D01*
X133917151Y-66717515D01*
X133928299Y-66778349D01*
X133928872Y-66782112D01*
X133936325Y-66843504D01*
X133936327Y-66843510D01*
X133939840Y-66852774D01*
X133945961Y-66874732D01*
X133947747Y-66884478D01*
X133947748Y-66884482D01*
X133973131Y-66940882D01*
X133974587Y-66944397D01*
X133996519Y-67002224D01*
X133996523Y-67002233D01*
X134002147Y-67010380D01*
X134013352Y-67030246D01*
X134016167Y-67036500D01*
X134017416Y-67039275D01*
X134055555Y-67087958D01*
X134057809Y-67091022D01*
X134086053Y-67131939D01*
X134092948Y-67141927D01*
X134139255Y-67182951D01*
X134141999Y-67185535D01*
X137284454Y-70327989D01*
X137287047Y-70330744D01*
X137328071Y-70377050D01*
X137328075Y-70377054D01*
X137346305Y-70389636D01*
X137378991Y-70412197D01*
X137382034Y-70414437D01*
X137430724Y-70452583D01*
X137430725Y-70452584D01*
X137439750Y-70456645D01*
X137459617Y-70467850D01*
X137467773Y-70473480D01*
X137525614Y-70495416D01*
X137529108Y-70496863D01*
X137585517Y-70522251D01*
X137595253Y-70524035D01*
X137617230Y-70530161D01*
X137626490Y-70533673D01*
X137687916Y-70541130D01*
X137691618Y-70541694D01*
X137752485Y-70552849D01*
X137814218Y-70549114D01*
X137818020Y-70549000D01*
X142851980Y-70549000D01*
X142855781Y-70549114D01*
X142917515Y-70552849D01*
X142978352Y-70541699D01*
X142982107Y-70541128D01*
X142987664Y-70540453D01*
X143043510Y-70533673D01*
X143052765Y-70530162D01*
X143074741Y-70524036D01*
X143084483Y-70522251D01*
X143140900Y-70496858D01*
X143144358Y-70495426D01*
X143202227Y-70473480D01*
X143210382Y-70467849D01*
X143230252Y-70456644D01*
X143239275Y-70452584D01*
X143287998Y-70414411D01*
X143290994Y-70412207D01*
X143341927Y-70377052D01*
X143382967Y-70330726D01*
X143385520Y-70328014D01*
X144749474Y-68964061D01*
X144811784Y-68930037D01*
X144812212Y-68929944D01*
X144982288Y-68893794D01*
X145156752Y-68816118D01*
X145311253Y-68703866D01*
X145311255Y-68703864D01*
X145439034Y-68561951D01*
X145439035Y-68561949D01*
X145439040Y-68561944D01*
X145534527Y-68396556D01*
X145593542Y-68214928D01*
X145613504Y-68025000D01*
X145593542Y-67835072D01*
X145534527Y-67653444D01*
X145439040Y-67488056D01*
X145439038Y-67488054D01*
X145439034Y-67488048D01*
X145311255Y-67346135D01*
X145156752Y-67233882D01*
X144982288Y-67156206D01*
X144795487Y-67116500D01*
X144604513Y-67116500D01*
X144417711Y-67156206D01*
X144243247Y-67233882D01*
X144088744Y-67346135D01*
X143960965Y-67488048D01*
X143960958Y-67488058D01*
X143866018Y-67652500D01*
X143865473Y-67653444D01*
X143845278Y-67715594D01*
X143806459Y-67835067D01*
X143806458Y-67835069D01*
X143806458Y-67835072D01*
X143803936Y-67859066D01*
X143799972Y-67896782D01*
X143772958Y-67962439D01*
X143763757Y-67972705D01*
X142622367Y-69114096D01*
X142560057Y-69148120D01*
X142533274Y-69151000D01*
X138136725Y-69151000D01*
X138068604Y-69130998D01*
X138047630Y-69114095D01*
X135355905Y-66422369D01*
X135321879Y-66360057D01*
X135319000Y-66333274D01*
X135319000Y-59593529D01*
X135339002Y-59525408D01*
X135372727Y-59490317D01*
X135464300Y-59426198D01*
X135626198Y-59264300D01*
X135757523Y-59076749D01*
X135775804Y-59037543D01*
X135822721Y-58984258D01*
X135890998Y-58964796D01*
X135958958Y-58985337D01*
X136004195Y-59037543D01*
X136022477Y-59076749D01*
X136153802Y-59264300D01*
X136315700Y-59426198D01*
X136407271Y-59490317D01*
X136451599Y-59545772D01*
X136461000Y-59593529D01*
X136461000Y-65381979D01*
X136460885Y-65385784D01*
X136457151Y-65447515D01*
X136468299Y-65508349D01*
X136468872Y-65512112D01*
X136476325Y-65573504D01*
X136476327Y-65573510D01*
X136479840Y-65582774D01*
X136485961Y-65604732D01*
X136487747Y-65614478D01*
X136487748Y-65614482D01*
X136513131Y-65670882D01*
X136514587Y-65674397D01*
X136536519Y-65732224D01*
X136536523Y-65732233D01*
X136542147Y-65740380D01*
X136553352Y-65760246D01*
X136555619Y-65765282D01*
X136557416Y-65769275D01*
X136595555Y-65817958D01*
X136597809Y-65821022D01*
X136626053Y-65861939D01*
X136632948Y-65871927D01*
X136679255Y-65912951D01*
X136681999Y-65915535D01*
X137761984Y-66995519D01*
X138763756Y-67997291D01*
X138797781Y-68059603D01*
X138799971Y-68073215D01*
X138806457Y-68134927D01*
X138831709Y-68212641D01*
X138865473Y-68316556D01*
X138865476Y-68316561D01*
X138960958Y-68481941D01*
X138960965Y-68481951D01*
X139088744Y-68623864D01*
X139088747Y-68623866D01*
X139243248Y-68736118D01*
X139417712Y-68813794D01*
X139604513Y-68853500D01*
X139795487Y-68853500D01*
X139982288Y-68813794D01*
X140156752Y-68736118D01*
X140311253Y-68623866D01*
X140346532Y-68584685D01*
X140439034Y-68481951D01*
X140439035Y-68481949D01*
X140439040Y-68481944D01*
X140534527Y-68316556D01*
X140593542Y-68134928D01*
X140613504Y-67945000D01*
X140593542Y-67755072D01*
X140534527Y-67573444D01*
X140439040Y-67408056D01*
X140439038Y-67408054D01*
X140439034Y-67408048D01*
X140311255Y-67266135D01*
X140156752Y-67153882D01*
X139982288Y-67076206D01*
X139982287Y-67076205D01*
X139982283Y-67076204D01*
X139812369Y-67040087D01*
X139749895Y-67006359D01*
X139749471Y-67005936D01*
X137895905Y-65152369D01*
X137861879Y-65090057D01*
X137859000Y-65063274D01*
X137859000Y-59593529D01*
X137879002Y-59525408D01*
X137912727Y-59490317D01*
X138004300Y-59426198D01*
X138166198Y-59264300D01*
X138297523Y-59076749D01*
X138315804Y-59037543D01*
X138362721Y-58984258D01*
X138430998Y-58964796D01*
X138498958Y-58985337D01*
X138544195Y-59037543D01*
X138562477Y-59076749D01*
X138693802Y-59264300D01*
X138855700Y-59426198D01*
X139043251Y-59557523D01*
X139250757Y-59654284D01*
X139471913Y-59713543D01*
X139700000Y-59733498D01*
X139928087Y-59713543D01*
X140149243Y-59654284D01*
X140356749Y-59557523D01*
X140544300Y-59426198D01*
X140706198Y-59264300D01*
X140837523Y-59076749D01*
X140934284Y-58869243D01*
X140993543Y-58648087D01*
X141013498Y-58420000D01*
X140993543Y-58191913D01*
X140934284Y-57970757D01*
X140837523Y-57763251D01*
X140706198Y-57575700D01*
X140544300Y-57413802D01*
X140356749Y-57282477D01*
X140356748Y-57282476D01*
X140149246Y-57185717D01*
X140149240Y-57185715D01*
X140055771Y-57160670D01*
X139928087Y-57126457D01*
X139700000Y-57106502D01*
X139471913Y-57126457D01*
X139250759Y-57185715D01*
X139250753Y-57185717D01*
X139043250Y-57282477D01*
X138855703Y-57413799D01*
X138855697Y-57413804D01*
X138693804Y-57575697D01*
X138693799Y-57575703D01*
X138562477Y-57763250D01*
X138544195Y-57802457D01*
X138497278Y-57855742D01*
X138429001Y-57875203D01*
X138361041Y-57854661D01*
X138315805Y-57802457D01*
X138313894Y-57798359D01*
X138297523Y-57763251D01*
X138166198Y-57575700D01*
X138004300Y-57413802D01*
X137816749Y-57282477D01*
X137609246Y-57185717D01*
X137609240Y-57185715D01*
X137515771Y-57160670D01*
X137388087Y-57126457D01*
X137160000Y-57106502D01*
X136931913Y-57126457D01*
X136710759Y-57185715D01*
X136710753Y-57185717D01*
X136503250Y-57282477D01*
X136315703Y-57413799D01*
X136315697Y-57413804D01*
X136153804Y-57575697D01*
X136153799Y-57575703D01*
X136022476Y-57763251D01*
X136004193Y-57802459D01*
X135957275Y-57855743D01*
X135888997Y-57875203D01*
X135821038Y-57854660D01*
X135775805Y-57802457D01*
X135757523Y-57763251D01*
X135626198Y-57575700D01*
X135464300Y-57413802D01*
X135276749Y-57282477D01*
X135276748Y-57282477D01*
X135069246Y-57185717D01*
X135069240Y-57185715D01*
X134975771Y-57160670D01*
X134848087Y-57126457D01*
X134620000Y-57106502D01*
X134391913Y-57126457D01*
X134170759Y-57185715D01*
X134170753Y-57185717D01*
X133963250Y-57282477D01*
X133775703Y-57413799D01*
X133775697Y-57413804D01*
X133613804Y-57575697D01*
X133613795Y-57575708D01*
X133611483Y-57579010D01*
X133556021Y-57623333D01*
X133485401Y-57630635D01*
X133422044Y-57598598D01*
X133386065Y-57537393D01*
X133382999Y-57520198D01*
X133381989Y-57510799D01*
X133330889Y-57373796D01*
X133330888Y-57373794D01*
X133330887Y-57373792D01*
X133243261Y-57256738D01*
X133126207Y-57169112D01*
X133126202Y-57169110D01*
X132989204Y-57118011D01*
X132989196Y-57118009D01*
X132928649Y-57111500D01*
X132928638Y-57111500D01*
X131231362Y-57111500D01*
X131231350Y-57111500D01*
X131170803Y-57118009D01*
X131170795Y-57118011D01*
X131033797Y-57169110D01*
X131033792Y-57169112D01*
X130916738Y-57256738D01*
X130829112Y-57373792D01*
X130829110Y-57373797D01*
X130778011Y-57510795D01*
X130778009Y-57510803D01*
X130771500Y-57571350D01*
X130771500Y-59268649D01*
X87196064Y-59268649D01*
X87203261Y-59263261D01*
X87290887Y-59146207D01*
X87290887Y-59146206D01*
X87290889Y-59146204D01*
X87341989Y-59009201D01*
X87348500Y-58948638D01*
X87348500Y-55351362D01*
X87346814Y-55335675D01*
X87341990Y-55290803D01*
X87341988Y-55290795D01*
X87297713Y-55172092D01*
X87290889Y-55153796D01*
X87290888Y-55153794D01*
X87290887Y-55153792D01*
X87203261Y-55036738D01*
X87086207Y-54949112D01*
X87086202Y-54949110D01*
X86949204Y-54898011D01*
X86949196Y-54898009D01*
X86888649Y-54891500D01*
X86888638Y-54891500D01*
X83291362Y-54891500D01*
X83291350Y-54891500D01*
X83230803Y-54898009D01*
X83230795Y-54898011D01*
X83093797Y-54949110D01*
X83093792Y-54949112D01*
X82976738Y-55036738D01*
X82889111Y-55153794D01*
X82885085Y-55161168D01*
X82834881Y-55211368D01*
X82765507Y-55226458D01*
X82698987Y-55201645D01*
X82656442Y-55144808D01*
X82648499Y-55100784D01*
X82648499Y-54677765D01*
X146735788Y-54677765D01*
X146765412Y-54947014D01*
X146833928Y-55209090D01*
X146939869Y-55458389D01*
X146939870Y-55458390D01*
X147080982Y-55689610D01*
X147254255Y-55897820D01*
X147455998Y-56078582D01*
X147681910Y-56228044D01*
X147927176Y-56343020D01*
X148186569Y-56421060D01*
X148186572Y-56421060D01*
X148186574Y-56421061D01*
X148454557Y-56460500D01*
X148454561Y-56460500D01*
X148657631Y-56460500D01*
X148860156Y-56445677D01*
X148860160Y-56445676D01*
X148860161Y-56445676D01*
X148970665Y-56421060D01*
X149124553Y-56386780D01*
X149377558Y-56290014D01*
X149613777Y-56157441D01*
X149828177Y-55991888D01*
X150016186Y-55796881D01*
X150173799Y-55576579D01*
X150221814Y-55483190D01*
X150297656Y-55335675D01*
X150297657Y-55335672D01*
X150353463Y-55172092D01*
X150385118Y-55079305D01*
X150409718Y-54946118D01*
X150434318Y-54812941D01*
X150434319Y-54812930D01*
X150444212Y-54542235D01*
X150423025Y-54349676D01*
X150414587Y-54272985D01*
X150346071Y-54010909D01*
X150240130Y-53761610D01*
X150240129Y-53761609D01*
X150099018Y-53530390D01*
X149925745Y-53322180D01*
X149925741Y-53322177D01*
X149925740Y-53322175D01*
X149724012Y-53141427D01*
X149724002Y-53141418D01*
X149498090Y-52991956D01*
X149252824Y-52876980D01*
X149095392Y-52829615D01*
X148993425Y-52798938D01*
X148725442Y-52759500D01*
X148725439Y-52759500D01*
X148522369Y-52759500D01*
X148319839Y-52774323D01*
X148319838Y-52774323D01*
X148055456Y-52833217D01*
X148055441Y-52833222D01*
X147802441Y-52929986D01*
X147566229Y-53062555D01*
X147566225Y-53062557D01*
X147351818Y-53228116D01*
X147163815Y-53423117D01*
X147163810Y-53423123D01*
X147006203Y-53643417D01*
X147006196Y-53643427D01*
X146882343Y-53884324D01*
X146882342Y-53884327D01*
X146794883Y-54140689D01*
X146794880Y-54140702D01*
X146745681Y-54407058D01*
X146745680Y-54407069D01*
X146735788Y-54677765D01*
X82648499Y-54677765D01*
X82648499Y-53180830D01*
X82645689Y-53127908D01*
X82600970Y-52896686D01*
X82517818Y-52676348D01*
X82517816Y-52676344D01*
X82517815Y-52676342D01*
X82398626Y-52473233D01*
X82246819Y-52293180D01*
X82066766Y-52141373D01*
X81863657Y-52022184D01*
X81863652Y-52022182D01*
X81711166Y-51964636D01*
X82831500Y-51964636D01*
X82841970Y-52097669D01*
X82891234Y-52293181D01*
X82897320Y-52317332D01*
X82897323Y-52317341D01*
X82991004Y-52523588D01*
X82991009Y-52523597D01*
X83120011Y-52709799D01*
X83120015Y-52709804D01*
X83280195Y-52869984D01*
X83280200Y-52869988D01*
X83466402Y-52998990D01*
X83466408Y-52998993D01*
X83466409Y-52998994D01*
X83672664Y-53092679D01*
X83892331Y-53148030D01*
X84025364Y-53158500D01*
X84025367Y-53158500D01*
X86154633Y-53158500D01*
X86154636Y-53158500D01*
X86287669Y-53148030D01*
X86507336Y-53092679D01*
X86713591Y-52998994D01*
X86899802Y-52869986D01*
X87059986Y-52709802D01*
X87188994Y-52523591D01*
X87282679Y-52317336D01*
X87338030Y-52097669D01*
X87348500Y-51964636D01*
X87348500Y-50546000D01*
X130793917Y-50546000D01*
X131768314Y-50546000D01*
X131752359Y-50561955D01*
X131694835Y-50674852D01*
X131675014Y-50800000D01*
X131694835Y-50925148D01*
X131752359Y-51038045D01*
X131768314Y-51054000D01*
X130793918Y-51054000D01*
X130846186Y-51249068D01*
X130846188Y-51249073D01*
X130942912Y-51456498D01*
X131074184Y-51643974D01*
X131074189Y-51643980D01*
X131236019Y-51805810D01*
X131236025Y-51805815D01*
X131423501Y-51937087D01*
X131630926Y-52033811D01*
X131630931Y-52033813D01*
X131825999Y-52086081D01*
X131825999Y-51111685D01*
X131841955Y-51127641D01*
X131954852Y-51185165D01*
X132048519Y-51200000D01*
X132111481Y-51200000D01*
X132205148Y-51185165D01*
X132318045Y-51127641D01*
X132334000Y-51111686D01*
X132334000Y-52086081D01*
X132529068Y-52033813D01*
X132529073Y-52033811D01*
X132736498Y-51937087D01*
X132923974Y-51805815D01*
X132923980Y-51805810D01*
X133085810Y-51643980D01*
X133085815Y-51643974D01*
X133217087Y-51456498D01*
X133235529Y-51416951D01*
X133282446Y-51363666D01*
X133350723Y-51344205D01*
X133418683Y-51364747D01*
X133463919Y-51416951D01*
X133482477Y-51456749D01*
X133525783Y-51518597D01*
X133613802Y-51644300D01*
X133775700Y-51806198D01*
X133963251Y-51937523D01*
X134170757Y-52034284D01*
X134391913Y-52093543D01*
X134620000Y-52113498D01*
X134848087Y-52093543D01*
X135069243Y-52034284D01*
X135276749Y-51937523D01*
X135464300Y-51806198D01*
X135626198Y-51644300D01*
X135757523Y-51456749D01*
X135775805Y-51417542D01*
X135822718Y-51364259D01*
X135890995Y-51344796D01*
X135958955Y-51365336D01*
X136004193Y-51417541D01*
X136022475Y-51456747D01*
X136065805Y-51518628D01*
X136153802Y-51644300D01*
X136315700Y-51806198D01*
X136503251Y-51937523D01*
X136710757Y-52034284D01*
X136931913Y-52093543D01*
X137160000Y-52113498D01*
X137388087Y-52093543D01*
X137609243Y-52034284D01*
X137816749Y-51937523D01*
X138004300Y-51806198D01*
X138166198Y-51644300D01*
X138297523Y-51456749D01*
X138315804Y-51417543D01*
X138362721Y-51364258D01*
X138430998Y-51344796D01*
X138498958Y-51365337D01*
X138544195Y-51417543D01*
X138562477Y-51456749D01*
X138693802Y-51644300D01*
X138855700Y-51806198D01*
X139043251Y-51937523D01*
X139250757Y-52034284D01*
X139471913Y-52093543D01*
X139700000Y-52113498D01*
X139928087Y-52093543D01*
X140149243Y-52034284D01*
X140356749Y-51937523D01*
X140544300Y-51806198D01*
X140706198Y-51644300D01*
X140837523Y-51456749D01*
X140934284Y-51249243D01*
X140993543Y-51028087D01*
X141013498Y-50800000D01*
X140993543Y-50571913D01*
X140934284Y-50350757D01*
X140837523Y-50143251D01*
X140706198Y-49955700D01*
X140544300Y-49793802D01*
X140519460Y-49776409D01*
X140356749Y-49662477D01*
X140149246Y-49565717D01*
X140149240Y-49565715D01*
X140055771Y-49540670D01*
X139928087Y-49506457D01*
X139700000Y-49486502D01*
X139471913Y-49506457D01*
X139250759Y-49565715D01*
X139250753Y-49565717D01*
X139043250Y-49662477D01*
X138855703Y-49793799D01*
X138855697Y-49793804D01*
X138693804Y-49955697D01*
X138693799Y-49955703D01*
X138562477Y-50143250D01*
X138544195Y-50182457D01*
X138497278Y-50235742D01*
X138429001Y-50255203D01*
X138361041Y-50234661D01*
X138315805Y-50182457D01*
X138313894Y-50178359D01*
X138297523Y-50143251D01*
X138166198Y-49955700D01*
X138004300Y-49793802D01*
X137979460Y-49776409D01*
X137816749Y-49662477D01*
X137609246Y-49565717D01*
X137609240Y-49565715D01*
X137515771Y-49540670D01*
X137388087Y-49506457D01*
X137160000Y-49486502D01*
X136931913Y-49506457D01*
X136710759Y-49565715D01*
X136710753Y-49565717D01*
X136503250Y-49662477D01*
X136315703Y-49793799D01*
X136315697Y-49793804D01*
X136153804Y-49955697D01*
X136153799Y-49955703D01*
X136022477Y-50143250D01*
X136004195Y-50182457D01*
X135957278Y-50235742D01*
X135889001Y-50255203D01*
X135821041Y-50234661D01*
X135775805Y-50182457D01*
X135773894Y-50178359D01*
X135757523Y-50143251D01*
X135626198Y-49955700D01*
X135464300Y-49793802D01*
X135439460Y-49776409D01*
X135276749Y-49662477D01*
X135069246Y-49565717D01*
X135069240Y-49565715D01*
X134975771Y-49540670D01*
X134848087Y-49506457D01*
X134620000Y-49486502D01*
X134391913Y-49506457D01*
X134170759Y-49565715D01*
X134170753Y-49565717D01*
X133963250Y-49662477D01*
X133775703Y-49793799D01*
X133775697Y-49793804D01*
X133613804Y-49955697D01*
X133613799Y-49955703D01*
X133482475Y-50143252D01*
X133463918Y-50183049D01*
X133417001Y-50236333D01*
X133348724Y-50255794D01*
X133280764Y-50235252D01*
X133235530Y-50183049D01*
X133217089Y-50143503D01*
X133085815Y-49956025D01*
X133085810Y-49956019D01*
X132923980Y-49794189D01*
X132923974Y-49794184D01*
X132736498Y-49662912D01*
X132529073Y-49566188D01*
X132529071Y-49566187D01*
X132334000Y-49513917D01*
X132334000Y-50488313D01*
X132318045Y-50472359D01*
X132205148Y-50414835D01*
X132111481Y-50400000D01*
X132048519Y-50400000D01*
X131954852Y-50414835D01*
X131841955Y-50472359D01*
X131825999Y-50488314D01*
X131825999Y-49513917D01*
X131630928Y-49566187D01*
X131423501Y-49662912D01*
X131236025Y-49794184D01*
X131236019Y-49794189D01*
X131074189Y-49956019D01*
X131074184Y-49956025D01*
X130942912Y-50143501D01*
X130846188Y-50350926D01*
X130846186Y-50350931D01*
X130793917Y-50546000D01*
X87348500Y-50546000D01*
X87348500Y-50335364D01*
X87338030Y-50202331D01*
X87282679Y-49982664D01*
X87188994Y-49776409D01*
X87188993Y-49776408D01*
X87188990Y-49776402D01*
X87059988Y-49590200D01*
X87059984Y-49590195D01*
X86899804Y-49430015D01*
X86899799Y-49430011D01*
X86713597Y-49301009D01*
X86713588Y-49301004D01*
X86507341Y-49207323D01*
X86507338Y-49207322D01*
X86507336Y-49207321D01*
X86287669Y-49151970D01*
X86154636Y-49141500D01*
X84025364Y-49141500D01*
X83892331Y-49151970D01*
X83892327Y-49151970D01*
X83892326Y-49151971D01*
X83672667Y-49207320D01*
X83672658Y-49207323D01*
X83466411Y-49301004D01*
X83466402Y-49301009D01*
X83280200Y-49430011D01*
X83280195Y-49430015D01*
X83120015Y-49590195D01*
X83120011Y-49590200D01*
X82991009Y-49776402D01*
X82991004Y-49776411D01*
X82897323Y-49982658D01*
X82897320Y-49982667D01*
X82846829Y-50183049D01*
X82841970Y-50202331D01*
X82831500Y-50335364D01*
X82831500Y-51964636D01*
X81711166Y-51964636D01*
X81643318Y-51939031D01*
X81643315Y-51939030D01*
X81643314Y-51939030D01*
X81412092Y-51894311D01*
X81359171Y-51891500D01*
X81359158Y-51891500D01*
X79420840Y-51891500D01*
X79381329Y-51893598D01*
X79367908Y-51894311D01*
X79367907Y-51894311D01*
X79261378Y-51914914D01*
X79136686Y-51939030D01*
X79136684Y-51939030D01*
X79136682Y-51939031D01*
X78916347Y-52022182D01*
X78916342Y-52022184D01*
X78713233Y-52141373D01*
X78533180Y-52293180D01*
X78381373Y-52473233D01*
X78262184Y-52676342D01*
X78262182Y-52676347D01*
X78179031Y-52896681D01*
X78179030Y-52896685D01*
X78179030Y-52896686D01*
X78134311Y-53127908D01*
X78131500Y-53180829D01*
X78131500Y-53180840D01*
X78131500Y-53180841D01*
X78131500Y-55119159D01*
X74171522Y-55119159D01*
X74185118Y-55079305D01*
X74209718Y-54946118D01*
X74234318Y-54812941D01*
X74234319Y-54812930D01*
X74244212Y-54542235D01*
X74223025Y-54349676D01*
X74214587Y-54272985D01*
X74146071Y-54010909D01*
X74040130Y-53761610D01*
X74040130Y-53761609D01*
X73899018Y-53530390D01*
X73725745Y-53322180D01*
X73725741Y-53322177D01*
X73725740Y-53322175D01*
X73524012Y-53141427D01*
X73524002Y-53141418D01*
X73298090Y-52991956D01*
X73052824Y-52876980D01*
X72895392Y-52829615D01*
X72793425Y-52798938D01*
X72525442Y-52759500D01*
X72525439Y-52759500D01*
X72322369Y-52759500D01*
X72119839Y-52774323D01*
X72119838Y-52774323D01*
X71855456Y-52833217D01*
X71855441Y-52833222D01*
X71602441Y-52929986D01*
X71366229Y-53062555D01*
X71366225Y-53062557D01*
X71151818Y-53228116D01*
X70963815Y-53423117D01*
X70963810Y-53423123D01*
X70806203Y-53643417D01*
X70806196Y-53643427D01*
X70682343Y-53884324D01*
X70682342Y-53884327D01*
X70594883Y-54140689D01*
X70594880Y-54140702D01*
X70545681Y-54407058D01*
X70545680Y-54407069D01*
X70535788Y-54677765D01*
X64770500Y-54677765D01*
X64770500Y-54611086D01*
X64770537Y-54608936D01*
X64777432Y-54407067D01*
X64781501Y-54287960D01*
X64788661Y-54087491D01*
X64788947Y-54083367D01*
X64818582Y-53795098D01*
X64844044Y-53558266D01*
X64844585Y-53554394D01*
X64892592Y-53275962D01*
X64936199Y-53034269D01*
X64936971Y-53030620D01*
X65003143Y-52759083D01*
X65015721Y-52709804D01*
X65064688Y-52517953D01*
X65065651Y-52514586D01*
X65149726Y-52249687D01*
X65228868Y-52011905D01*
X65229994Y-52008805D01*
X65331588Y-51751180D01*
X65375859Y-51644302D01*
X65427927Y-51518597D01*
X65429203Y-51515726D01*
X65547631Y-51266709D01*
X65548139Y-51265669D01*
X65556363Y-51249240D01*
X65660899Y-51040402D01*
X65662284Y-51037795D01*
X65797226Y-50797799D01*
X65797851Y-50796718D01*
X65926657Y-50579627D01*
X65928091Y-50577328D01*
X66078943Y-50347336D01*
X66079732Y-50346167D01*
X66223891Y-50138540D01*
X66225355Y-50136522D01*
X66391421Y-49917531D01*
X66392408Y-49916268D01*
X66551140Y-49719294D01*
X66552588Y-49717566D01*
X66733099Y-49510548D01*
X66734449Y-49509051D01*
X66755443Y-49486502D01*
X66906810Y-49323920D01*
X66908226Y-49322454D01*
X67102454Y-49128226D01*
X67103920Y-49126810D01*
X67289051Y-48954449D01*
X67290548Y-48953099D01*
X67497566Y-48772588D01*
X67499294Y-48771140D01*
X67696268Y-48612408D01*
X67697531Y-48611421D01*
X67916522Y-48445355D01*
X67918540Y-48443891D01*
X68126167Y-48299732D01*
X68127336Y-48298943D01*
X68357328Y-48148091D01*
X68359627Y-48146657D01*
X68576718Y-48017851D01*
X68577799Y-48017226D01*
X68817795Y-47882284D01*
X68820402Y-47880899D01*
X69045703Y-47768122D01*
X69046706Y-47767632D01*
X69295726Y-47649203D01*
X69298597Y-47647927D01*
X69531175Y-47551590D01*
X69788805Y-47449994D01*
X69791905Y-47448868D01*
X70029687Y-47369726D01*
X70294586Y-47285651D01*
X70297953Y-47284688D01*
X70511124Y-47230279D01*
X70539090Y-47223142D01*
X70810620Y-47156971D01*
X70814269Y-47156199D01*
X71055962Y-47112592D01*
X71334394Y-47064585D01*
X71338266Y-47064044D01*
X71575098Y-47038582D01*
X71863369Y-47008947D01*
X71867491Y-47008661D01*
X72068033Y-47001499D01*
X72068226Y-47001548D01*
X72068225Y-47001492D01*
X72264256Y-46994795D01*
X72388938Y-46990537D01*
X72391089Y-46990500D01*
X148588911Y-46990500D01*
X148591062Y-46990537D01*
G37*
%TD.AperFunction*%
%TD*%
M02*
